999
DXF created from QGIS
  0
SECTION
  2
HEADER
  9
$ACADVER
  1
AC1015
  9
$EXTMIN
 10
695144.64424709882587194
 20
5343133.59410247020423412
 30
0.0
  9
$EXTMAX
 10
698318.64960736245848238
 20
5343548.75946870539337397
 30
0.0
  9
$LTSCALE
 40
1.0
  9
$PDMODE
 70
    33
  9
$PDSIZE
 40
     1
  9
$PSLTSCALE
 70
     0
  9
$HANDSEED
  5
9999999
  9
$DWGCODEPAGE
  3

  0
ENDSEC
  0
SECTION
  2
TABLES
  0
TABLE
  2
LTYPE
  5
64
100
AcDbSymbolTable
 70
     7
  0
LTYPE
  5
65
100
AcDbSymbolTableRecord
100
AcDbLinetypeTableRecord
  2
ByLayer
 70
    64
  3
Defaultstyle
 72
    65
 73
     0
 40
0.0
  0
LTYPE
  5
66
100
AcDbSymbolTableRecord
100
AcDbLinetypeTableRecord
  2
ByBlock
 70
    64
  3
Defaultstyle
 72
    65
 73
     0
 40
0.0
  0
LTYPE
  5
67
100
AcDbSymbolTableRecord
100
AcDbLinetypeTableRecord
  2
CONTINUOUS
 70
    64
  3
Defaultstyle
 72
    65
 73
     0
 40
0.0
  0
LTYPE
  5
68
100
AcDbSymbolTableRecord
100
AcDbLinetypeTableRecord
  2
DASH
 70
    64
  3

 72
    65
 73
     2
 40
2600.0
 49
2000.0
 74
     0
 49
-600.0
 74
     0
  0
LTYPE
  5
69
100
AcDbSymbolTableRecord
100
AcDbLinetypeTableRecord
  2
DOT
 70
    64
  3

 72
    65
 73
     2
 40
1200.0
 49
600.0
 74
     0
 49
-600.0
 74
     0
  0
LTYPE
  5
6a
100
AcDbSymbolTableRecord
100
AcDbLinetypeTableRecord
  2
DASHDOT
 70
    64
  3

 72
    65
 73
     4
 40
3800.0
 49
2000.0
 74
     0
 49
-600.0
 74
     0
 49
600.0
 74
     0
 49
-600.0
 74
     0
  0
LTYPE
  5
6b
100
AcDbSymbolTableRecord
100
AcDbLinetypeTableRecord
  2
DASHDOTDOT
 70
    64
  3

 72
    65
 73
     6
 40
5000.0
 49
2000.0
 74
     0
 49
-600.0
 74
     0
 49
600.0
 74
     0
 49
-600.0
 74
     0
 49
600.0
 74
     0
 49
-600.0
 74
     0
  0
LTYPE
  5
6c
100
AcDbSymbolTableRecord
100
AcDbLinetypeTableRecord
  2
symbolLayer0
 70
    64
  3

 72
    65
 73
     2
 40
2660.0
 49
660.0
 74
     0
 49
-2000.0
 74
     0
  0
LTYPE
  5
6d
100
AcDbSymbolTableRecord
100
AcDbLinetypeTableRecord
  2
symbolLayer1
 70
    64
  3

 72
    65
 73
     2
 40
2660.0
 49
660.0
 74
     0
 49
-2000.0
 74
     0
  0
ENDTAB
  0
TABLE
  2
BLOCK_RECORD
  5
6e
100
AcDbSymbolTable
 70
     0
  0
BLOCK_RECORD
  5
6f
100
AcDbSymbolTableRecord
100
AcDbBlockTableRecord
  2
*Model_Space
  0
BLOCK_RECORD
  5
70
100
AcDbSymbolTableRecord
100
AcDbBlockTableRecord
  2
*Paper_Space
  0
BLOCK_RECORD
  5
71
100
AcDbSymbolTableRecord
100
AcDbBlockTableRecord
  2
*Paper_Space0
  0
BLOCK_RECORD
  5
72
100
AcDbSymbolTableRecord
100
AcDbBlockTableRecord
  2
symbolLayer0
  0
BLOCK_RECORD
  5
73
100
AcDbSymbolTableRecord
100
AcDbBlockTableRecord
  2
symbolLayer1
  0
BLOCK_RECORD
  5
74
100
AcDbSymbolTableRecord
100
AcDbBlockTableRecord
  2
symbolLayer2
  0
BLOCK_RECORD
  5
75
100
AcDbSymbolTableRecord
100
AcDbBlockTableRecord
  2
symbolLayer3
  0
BLOCK_RECORD
  5
76
100
AcDbSymbolTableRecord
100
AcDbBlockTableRecord
  2
symbolLayer4
  0
BLOCK_RECORD
  5
77
100
AcDbSymbolTableRecord
100
AcDbBlockTableRecord
  2
symbolLayer5
  0
BLOCK_RECORD
  5
78
100
AcDbSymbolTableRecord
100
AcDbBlockTableRecord
  2
symbolLayer6
  0
BLOCK_RECORD
  5
79
100
AcDbSymbolTableRecord
100
AcDbBlockTableRecord
  2
symbolLayer7
  0
BLOCK_RECORD
  5
7a
100
AcDbSymbolTableRecord
100
AcDbBlockTableRecord
  2
symbolLayer8
  0
ENDTAB
  0
TABLE
  2
APPID
  5
7b
100
AcDbSymbolTable
 70
     1
  0
APPID
  5
7c
100
AcDbSymbolTableRecord
100
AcDbRegAppTableRecord
  2
ACAD
 70
     0
  0
ENDTAB
  0
TABLE
  2
VIEW
  5
7d
100
AcDbSymbolTable
 70
     0
  0
ENDTAB
  0
TABLE
  2
UCS
  5
7e
100
AcDbSymbolTable
 70
     0
  0
ENDTAB
  0
TABLE
  2
VPORT
  5
7f
100
AcDbSymbolTable
  0
VPORT
  5
80
100
AcDbSymbolTableRecord
100
AcDbViewportTableRecord
  2
*ACTIVE
 70
     0
 10
0.0
 20
0.0
 11
1.0
 21
1.0
 12
0.0
 22
0.0
 13
0.0
 23
0.0
 14
1.0
 24
1.0
 15
1.0
 25
1.0
 16
0.0
 26
0.0
 36
1.0
 17
696731.64692723064217716
 27
5343341.17678558826446533
 40
415.16536623518913984
 41
7.64515929892276791
 42
50.0
 43
0.0
 44
0.0
 50
0.0
 51
0.0
 71
     0
 72
   100
 73
     1
 74
     1
 75
     0
 76
     0
 77
     0
 78
     0
281
     0
 65
     1
110
0.0
120
0.0
130
0.0
111
1.0
121
0.0
131
0.0
112
0.0
122
1.0
132
0.0
 79
     0
146
0.0
 70
     0
  0
ENDTAB
  0
TABLE
  2
DIMSTYLE
  5
81
100
AcDbSymbolTable
100
AcDbDimStyleTable
 70
     0
  0
ENDTAB
  0
TABLE
  2
LAYER
  5
82
100
AcDbSymbolTable
 70
    19
  0
LAYER
  5
83
100
AcDbSymbolTableRecord
100
AcDbLayerTableRecord
  2
0
 70
    64
 62
     1
  6
CONTINUOUS
390
f
  0
LAYER
  5
84
100
AcDbSymbolTableRecord
100
AcDbLayerTableRecord
  2
Heaven_s Peak Drive
 70
    64
 62
     1
  6
CONTINUOUS
390
f
  0
LAYER
  5
85
100
AcDbSymbolTableRecord
100
AcDbLayerTableRecord
  2
Our Place
 70
    64
 62
     1
  6
CONTINUOUS
390
f
  0
LAYER
  5
86
100
AcDbSymbolTableRecord
100
AcDbLayerTableRecord
  2
Dill Park
 70
    64
 62
     1
  6
CONTINUOUS
390
f
  0
LAYER
  5
87
100
AcDbSymbolTableRecord
100
AcDbLayerTableRecord
  2
Cyclone Drive
 70
    64
 62
     1
  6
CONTINUOUS
390
f
  0
LAYER
  5
88
100
AcDbSymbolTableRecord
100
AcDbLayerTableRecord
  2
Looking Glass Avenue
 70
    64
 62
     1
  6
CONTINUOUS
390
f
  0
LAYER
  5
89
100
AcDbSymbolTableRecord
100
AcDbLayerTableRecord
  2
Bike Path
 70
    64
 62
     1
  6
CONTINUOUS
390
f
  0
LAYER
  5
8a
100
AcDbSymbolTableRecord
100
AcDbLayerTableRecord
  2
Mountain Vista Way
 70
    64
 62
     1
  6
CONTINUOUS
390
f
  0
LAYER
  5
8b
100
AcDbSymbolTableRecord
100
AcDbLayerTableRecord
  2
Dirtbike Park
 70
    64
 62
     1
  6
CONTINUOUS
390
f
  0
LAYER
  5
8c
100
AcDbSymbolTableRecord
100
AcDbLayerTableRecord
  2
Mountain Vista Court
 70
    64
 62
     1
  6
CONTINUOUS
390
f
  0
LAYER
  5
8d
100
AcDbSymbolTableRecord
100
AcDbLayerTableRecord
  2
Roads
 70
    64
 62
     1
  6
CONTINUOUS
390
f
  0
LAYER
  5
8e
100
AcDbSymbolTableRecord
100
AcDbLayerTableRecord
  2
Other Places
 70
    64
 62
     1
  6
CONTINUOUS
390
f
  0
LAYER
  5
8f
100
AcDbSymbolTableRecord
100
AcDbLayerTableRecord
  2
Cottage Drive
 70
    64
 62
     1
  6
CONTINUOUS
390
f
  0
LAYER
  5
90
100
AcDbSymbolTableRecord
100
AcDbLayerTableRecord
  2
Cottage Court
 70
    64
 62
     1
  6
CONTINUOUS
390
f
  0
LAYER
  5
91
100
AcDbSymbolTableRecord
100
AcDbLayerTableRecord
  2
Dog Pond Park
 70
    64
 62
     1
  6
CONTINUOUS
390
f
  0
LAYER
  5
92
100
AcDbSymbolTableRecord
100
AcDbLayerTableRecord
  2
Highways
 70
    64
 62
     1
  6
CONTINUOUS
390
f
  0
LAYER
  5
93
100
AcDbSymbolTableRecord
100
AcDbLayerTableRecord
  2
Jackson Peak Drive
 70
    64
 62
     1
  6
CONTINUOUS
390
f
  0
LAYER
  5
94
100
AcDbSymbolTableRecord
100
AcDbLayerTableRecord
  2
Walk Path
 70
    64
 62
     1
  6
CONTINUOUS
390
f
  0
LAYER
  5
95
100
AcDbSymbolTableRecord
100
AcDbLayerTableRecord
  2
Oberlin Loop
 70
    64
 62
     1
  6
CONTINUOUS
390
f
  0
ENDTAB
  0
TABLE
  2
STYLE
  5
96
100
AcDbSymbolTable
 70
     1
  0
STYLE
  5
97
100
AcDbSymbolTableRecord
100
AcDbTextStyleTableRecord
  2
STANDARD
 70
    64
 40
0.0
 41
1.0
 50
0.0
 71
     0
 42
5.0
  3
romans.shx
  4

  0
ENDTAB
  0
ENDSEC
  0
SECTION
  2
BLOCKS
  0
BLOCK
  5
98
330
6f
100
AcDbEntity
  8
0
100
AcDbBlockBegin
  2
*Model_Space
 70
     0
 10
0.0
 20
0.0
 30
0.0
  3
*Model_Space
  1

  0
ENDBLK
  5
99
100
AcDbEntity
  8
0
100
AcDbBlockEnd
  0
BLOCK
  5
9a
330
70
100
AcDbEntity
  8
0
100
AcDbBlockBegin
  2
*Paper_Space
 70
     0
 10
0.0
 20
0.0
 30
0.0
  3
*Paper_Space
  1

  0
ENDBLK
  5
9b
100
AcDbEntity
  8
0
100
AcDbBlockEnd
  0
BLOCK
  5
9c
330
71
100
AcDbEntity
  8
0
100
AcDbBlockBegin
  2
*Paper_Space0
 70
     0
 10
0.0
 20
0.0
 30
0.0
  3
*Paper_Space0
  1

  0
ENDBLK
  5
9d
100
AcDbEntity
  8
0
100
AcDbBlockEnd
  0
BLOCK
  5
9e
330
72
100
AcDbEntity
  8
0
100
AcDbBlockBegin
  2
symbolLayer0
 70
     0
 10
0.0
 20
0.0
 30
0.0
  3
symbolLayer0
  1

  0
HATCH
  5
9f
330
72
100
AcDbEntity
  8
0
420
14360106
100
AcDbHatch
 10
0.0
 20
0.0
 30
0.0
210
0.0
220
0.0
230
1.0
  2
SOLID
 70
     1
 71
     0
 91
     1
 92
     3
 72
     1
 73
     1
 93
     2
 10
-1500.0
 20
0.0
 42
1.0
 10
1500.0
 20
0.0
 42
1.0
 97
     0
 75
     0
 76
     1
 98
     0
  0
LWPOLYLINE
  5
a0
330
72
  8
0
100
AcDbEntity
100
AcDbPolyline
  6
CONTINUOUS
420
8392985
 90
     2
 70
     1
 43
400.0
 10
-1500.0
 20
0.0
 42
1.0
 10
1500.0
 20
0.0
 42
1.0
  0
ENDBLK
  5
a1
100
AcDbEntity
  8
0
100
AcDbBlockEnd
  0
BLOCK
  5
a2
330
73
100
AcDbEntity
  8
0
100
AcDbBlockBegin
  2
symbolLayer1
 70
     0
 10
0.0
 20
0.0
 30
0.0
  3
symbolLayer1
  1

  0
HATCH
  5
a3
330
73
100
AcDbEntity
  8
0
420
14360106
100
AcDbHatch
 10
0.0
 20
0.0
 30
0.0
210
0.0
220
0.0
230
1.0
  2
SOLID
 70
     1
 71
     0
 91
     1
 92
     3
 72
     1
 73
     1
 93
     2
 10
-1500.0
 20
0.0
 42
1.0
 10
1500.0
 20
0.0
 42
1.0
 97
     0
 75
     0
 76
     1
 98
     0
  0
LWPOLYLINE
  5
a4
330
73
  8
0
100
AcDbEntity
100
AcDbPolyline
  6
CONTINUOUS
420
8392985
 90
     2
 70
     1
 43
400.0
 10
-1500.0
 20
0.0
 42
1.0
 10
1500.0
 20
0.0
 42
1.0
  0
ENDBLK
  5
a5
100
AcDbEntity
  8
0
100
AcDbBlockEnd
  0
BLOCK
  5
a6
330
74
100
AcDbEntity
  8
0
100
AcDbBlockBegin
  2
symbolLayer2
 70
     0
 10
0.0
 20
0.0
 30
0.0
  3
symbolLayer2
  1

  0
HATCH
  5
a7
330
74
100
AcDbEntity
  8
0
420
14360106
100
AcDbHatch
 10
0.0
 20
0.0
 30
0.0
210
0.0
220
0.0
230
1.0
  2
SOLID
 70
     1
 71
     0
 91
     1
 92
     3
 72
     1
 73
     1
 93
     2
 10
-1500.0
 20
0.0
 42
1.0
 10
1500.0
 20
0.0
 42
1.0
 97
     0
 75
     0
 76
     1
 98
     0
  0
LWPOLYLINE
  5
a8
330
74
  8
0
100
AcDbEntity
100
AcDbPolyline
  6
CONTINUOUS
420
8392985
 90
     2
 70
     1
 43
400.0
 10
-1500.0
 20
0.0
 42
1.0
 10
1500.0
 20
0.0
 42
1.0
  0
ENDBLK
  5
a9
100
AcDbEntity
  8
0
100
AcDbBlockEnd
  0
BLOCK
  5
aa
330
75
100
AcDbEntity
  8
0
100
AcDbBlockBegin
  2
symbolLayer3
 70
     0
 10
0.0
 20
0.0
 30
0.0
  3
symbolLayer3
  1

  0
HATCH
  5
ab
330
75
100
AcDbEntity
  8
0
420
14360106
100
AcDbHatch
 10
0.0
 20
0.0
 30
0.0
210
0.0
220
0.0
230
1.0
  2
SOLID
 70
     1
 71
     0
 91
     1
 92
     3
 72
     1
 73
     1
 93
     2
 10
-1500.0
 20
0.0
 42
1.0
 10
1500.0
 20
0.0
 42
1.0
 97
     0
 75
     0
 76
     1
 98
     0
  0
LWPOLYLINE
  5
ac
330
75
  8
0
100
AcDbEntity
100
AcDbPolyline
  6
CONTINUOUS
420
8392985
 90
     2
 70
     1
 43
400.0
 10
-1500.0
 20
0.0
 42
1.0
 10
1500.0
 20
0.0
 42
1.0
  0
ENDBLK
  5
ad
100
AcDbEntity
  8
0
100
AcDbBlockEnd
  0
BLOCK
  5
ae
330
76
100
AcDbEntity
  8
0
100
AcDbBlockBegin
  2
symbolLayer4
 70
     0
 10
0.0
 20
0.0
 30
0.0
  3
symbolLayer4
  1

  0
HATCH
  5
af
330
76
100
AcDbEntity
  8
0
420
14360106
100
AcDbHatch
 10
0.0
 20
0.0
 30
0.0
210
0.0
220
0.0
230
1.0
  2
SOLID
 70
     1
 71
     0
 91
     1
 92
     3
 72
     1
 73
     1
 93
     2
 10
-1500.0
 20
0.0
 42
1.0
 10
1500.0
 20
0.0
 42
1.0
 97
     0
 75
     0
 76
     1
 98
     0
  0
LWPOLYLINE
  5
b0
330
76
  8
0
100
AcDbEntity
100
AcDbPolyline
  6
CONTINUOUS
420
8392985
 90
     2
 70
     1
 43
400.0
 10
-1500.0
 20
0.0
 42
1.0
 10
1500.0
 20
0.0
 42
1.0
  0
ENDBLK
  5
b1
100
AcDbEntity
  8
0
100
AcDbBlockEnd
  0
BLOCK
  5
b2
330
77
100
AcDbEntity
  8
0
100
AcDbBlockBegin
  2
symbolLayer5
 70
     0
 10
0.0
 20
0.0
 30
0.0
  3
symbolLayer5
  1

  0
HATCH
  5
b3
330
77
100
AcDbEntity
  8
0
420
14360106
100
AcDbHatch
 10
0.0
 20
0.0
 30
0.0
210
0.0
220
0.0
230
1.0
  2
SOLID
 70
     1
 71
     0
 91
     1
 92
     3
 72
     1
 73
     1
 93
     2
 10
-1500.0
 20
0.0
 42
1.0
 10
1500.0
 20
0.0
 42
1.0
 97
     0
 75
     0
 76
     1
 98
     0
  0
LWPOLYLINE
  5
b4
330
77
  8
0
100
AcDbEntity
100
AcDbPolyline
  6
CONTINUOUS
420
8392985
 90
     2
 70
     1
 43
400.0
 10
-1500.0
 20
0.0
 42
1.0
 10
1500.0
 20
0.0
 42
1.0
  0
ENDBLK
  5
b5
100
AcDbEntity
  8
0
100
AcDbBlockEnd
  0
BLOCK
  5
b6
330
78
100
AcDbEntity
  8
0
100
AcDbBlockBegin
  2
symbolLayer6
 70
     0
 10
0.0
 20
0.0
 30
0.0
  3
symbolLayer6
  1

  0
HATCH
  5
b7
330
78
100
AcDbEntity
  8
0
420
14360106
100
AcDbHatch
 10
0.0
 20
0.0
 30
0.0
210
0.0
220
0.0
230
1.0
  2
SOLID
 70
     1
 71
     0
 91
     1
 92
     3
 72
     1
 73
     1
 93
     2
 10
-1500.0
 20
0.0
 42
1.0
 10
1500.0
 20
0.0
 42
1.0
 97
     0
 75
     0
 76
     1
 98
     0
  0
LWPOLYLINE
  5
b8
330
78
  8
0
100
AcDbEntity
100
AcDbPolyline
  6
CONTINUOUS
420
8392985
 90
     2
 70
     1
 43
400.0
 10
-1500.0
 20
0.0
 42
1.0
 10
1500.0
 20
0.0
 42
1.0
  0
ENDBLK
  5
b9
100
AcDbEntity
  8
0
100
AcDbBlockEnd
  0
BLOCK
  5
ba
330
79
100
AcDbEntity
  8
0
100
AcDbBlockBegin
  2
symbolLayer7
 70
     0
 10
0.0
 20
0.0
 30
0.0
  3
symbolLayer7
  1

  0
HATCH
  5
bb
330
79
100
AcDbEntity
  8
0
420
14360106
100
AcDbHatch
 10
0.0
 20
0.0
 30
0.0
210
0.0
220
0.0
230
1.0
  2
SOLID
 70
     1
 71
     0
 91
     1
 92
     3
 72
     1
 73
     1
 93
     2
 10
-1500.0
 20
0.0
 42
1.0
 10
1500.0
 20
0.0
 42
1.0
 97
     0
 75
     0
 76
     1
 98
     0
  0
LWPOLYLINE
  5
bc
330
79
  8
0
100
AcDbEntity
100
AcDbPolyline
  6
CONTINUOUS
420
8392985
 90
     2
 70
     1
 43
400.0
 10
-1500.0
 20
0.0
 42
1.0
 10
1500.0
 20
0.0
 42
1.0
  0
ENDBLK
  5
bd
100
AcDbEntity
  8
0
100
AcDbBlockEnd
  0
BLOCK
  5
be
330
7a
100
AcDbEntity
  8
0
100
AcDbBlockBegin
  2
symbolLayer8
 70
     0
 10
0.0
 20
0.0
 30
0.0
  3
symbolLayer8
  1

  0
HATCH
  5
bf
330
7a
100
AcDbEntity
  8
0
420
14360106
100
AcDbHatch
 10
0.0
 20
0.0
 30
0.0
210
0.0
220
0.0
230
1.0
  2
SOLID
 70
     1
 71
     0
 91
     1
 92
     3
 72
     1
 73
     1
 93
     2
 10
-1500.0
 20
0.0
 42
1.0
 10
1500.0
 20
0.0
 42
1.0
 97
     0
 75
     0
 76
     1
 98
     0
  0
LWPOLYLINE
  5
c0
330
7a
  8
0
100
AcDbEntity
100
AcDbPolyline
  6
CONTINUOUS
420
8392985
 90
     2
 70
     1
 43
400.0
 10
-1500.0
 20
0.0
 42
1.0
 10
1500.0
 20
0.0
 42
1.0
  0
ENDBLK
  5
c1
100
AcDbEntity
  8
0
100
AcDbBlockEnd
  0
ENDSEC
  0
SECTION
  2
ENTITIES
  0
INSERT
  5
c2
100
AcDbEntity
100
AcDbBlockReference
  8
Oberlin Loop
  2
symbolLayer0
 50
0.0
 10
695631.78207297355402261
 20
5343245.09868597518652678
  0
INSERT
  5
c3
100
AcDbEntity
100
AcDbBlockReference
  8
Oberlin Loop
  2
symbolLayer0
 50
0.0
 10
695632.22871855681296438
 20
5343277.48049075622111559
  0
INSERT
  5
c4
100
AcDbEntity
100
AcDbBlockReference
  8
Oberlin Loop
  2
symbolLayer0
 50
0.0
 10
695633.12200972309801728
 20
5343311.42555507831275463
  0
INSERT
  5
c5
100
AcDbEntity
100
AcDbBlockReference
  8
Oberlin Loop
  2
symbolLayer0
 50
0.0
 10
695630.88878180726896971
 20
5343338.67093565315008163
  0
INSERT
  5
c6
100
AcDbEntity
100
AcDbBlockReference
  8
Oberlin Loop
  2
symbolLayer0
 50
0.0
 10
695634.68526926427148283
 20
5343374.84922789037227631
  0
INSERT
  5
c7
100
AcDbEntity
100
AcDbBlockReference
  8
Oberlin Loop
  2
symbolLayer0
 50
0.0
 10
695657.91083958989474922
 20
5343375.51919626537710428
  0
INSERT
  5
c8
100
AcDbEntity
100
AcDbBlockReference
  8
Oberlin Loop
  2
symbolLayer0
 50
0.0
 10
695663.49390937970019877
 20
5343428.67002066411077976
  0
INSERT
  5
c9
100
AcDbEntity
100
AcDbBlockReference
  8
Oberlin Loop
  2
symbolLayer0
 50
0.0
 10
695636.24852880544494838
 20
5343423.98024204093962908
  0
INSERT
  5
ca
100
AcDbEntity
100
AcDbBlockReference
  8
Oberlin Loop
  2
symbolLayer0
 50
0.0
 10
695611.9063445219071582
 20
5343426.21346995700150728
  0
INSERT
  5
cb
100
AcDbEntity
100
AcDbBlockReference
  8
Oberlin Loop
  2
symbolLayer0
 50
0.0
 10
695592.47726165328640491
 20
5343410.1342289624735713
  0
INSERT
  5
cc
100
AcDbEntity
100
AcDbBlockReference
  8
Oberlin Loop
  2
symbolLayer0
 50
0.0
 10
695589.12741977942641824
 20
5343385.56872188672423363
  0
INSERT
  5
cd
100
AcDbEntity
100
AcDbBlockReference
  8
Oberlin Loop
  2
symbolLayer0
 50
0.0
 10
695585.10760953079443425
 20
5343356.98340456373989582
  0
INSERT
  5
ce
100
AcDbEntity
100
AcDbBlockReference
  8
Oberlin Loop
  2
symbolLayer0
 50
0.0
 10
695584.88428673916496336
 20
5343331.07796073891222477
  0
INSERT
  5
cf
100
AcDbEntity
100
AcDbBlockReference
  8
Oberlin Loop
  2
symbolLayer0
 50
0.0
 10
695587.11751465511042625
 20
5343305.17251691408455372
  0
INSERT
  5
d0
100
AcDbEntity
100
AcDbBlockReference
  8
Oberlin Loop
  2
symbolLayer0
 50
0.0
 10
695583.99099557276349515
 20
5343282.84023775439709425
  0
INSERT
  5
d1
100
AcDbEntity
100
AcDbBlockReference
  8
Oberlin Loop
  2
symbolLayer0
 50
0.0
 10
695586.22422348870895803
 20
5343261.62457255367189646
  0
INSERT
  5
d2
100
AcDbEntity
100
AcDbBlockReference
  8
Mountain Vista Way
  2
symbolLayer1
 50
0.0
 10
695183.27077013906091452
 20
5343501.20855042245239019
  0
INSERT
  5
d3
100
AcDbEntity
100
AcDbBlockReference
  8
Mountain Vista Way
  2
symbolLayer1
 50
0.0
 10
695200.73957517056260258
 20
5343504.38469679187983274
  0
INSERT
  5
d4
100
AcDbEntity
100
AcDbBlockReference
  8
Mountain Vista Way
  2
symbolLayer1
 50
0.0
 10
695222.17856316384859383
 20
5343505.70809111278504133
  0
INSERT
  5
d5
100
AcDbEntity
100
AcDbBlockReference
  8
Mountain Vista Way
  2
symbolLayer1
 50
0.0
 10
695240.70608365174848586
 20
5343505.97276997659355402
  0
INSERT
  5
d6
100
AcDbEntity
100
AcDbBlockReference
  8
Mountain Vista Way
  2
symbolLayer1
 50
0.0
 10
695260.82167732447851449
 20
5343506.76680656895041466
  0
INSERT
  5
d7
100
AcDbEntity
100
AcDbBlockReference
  8
Mountain Vista Way
  2
symbolLayer1
 50
0.0
 10
695281.46662872540764511
 20
5343508.88423748221248388
  0
INSERT
  5
d8
100
AcDbEntity
100
AcDbBlockReference
  8
Mountain Vista Way
  2
symbolLayer1
 50
0.0
 10
695296.55332397983875126
 20
5343510.47231066692620516
  0
INSERT
  5
d9
100
AcDbEntity
100
AcDbBlockReference
  8
Mountain Vista Way
  2
symbolLayer1
 50
0.0
 10
695306.08176308800466359
 20
5343511.53102612309157848
  0
INSERT
  5
da
100
AcDbEntity
100
AcDbBlockReference
  8
Mountain Vista Way
  2
symbolLayer1
 50
0.0
 10
695317.72763310896698385
 20
5343511.53102612309157848
  0
INSERT
  5
db
100
AcDbEntity
100
AcDbBlockReference
  8
Mountain Vista Way
  2
symbolLayer1
 50
0.0
 10
695326.99139335297513753
 20
5343512.32506271544843912
  0
INSERT
  5
dc
100
AcDbEntity
100
AcDbBlockReference
  8
Mountain Vista Way
  2
symbolLayer1
 50
0.0
 10
695338.63726337405387312
 20
5343512.58974157925695181
  0
INSERT
  5
dd
100
AcDbEntity
100
AcDbBlockReference
  8
Mountain Vista Way
  2
symbolLayer1
 50
0.0
 10
695349.39624675735831261
 20
5343512.08487726841121912
  0
INSERT
  5
de
100
AcDbEntity
100
AcDbBlockReference
  8
Mountain Vista Way
  2
symbolLayer1
 50
0.0
 10
695360.37529599515255541
 20
5343514.02235654555261135
  0
INSERT
  5
df
100
AcDbEntity
100
AcDbBlockReference
  8
Mountain Vista Way
  2
symbolLayer1
 50
0.0
 10
695369.41686595557257533
 20
5343513.69944333285093307
  0
INSERT
  5
e0
100
AcDbEntity
100
AcDbBlockReference
  8
Mountain Vista Way
  2
symbolLayer1
 50
0.0
 10
695385.56252659938763827
 20
5343511.76196405570954084
  0
INSERT
  5
e1
100
AcDbEntity
100
AcDbBlockReference
  8
Mountain Vista Way
  2
symbolLayer1
 50
0.0
 10
695404.29149294621311128
 20
5343513.3765301201492548
  0
INSERT
  5
e2
100
AcDbEntity
100
AcDbBlockReference
  8
Mountain Vista Way
  2
symbolLayer1
 50
0.0
 10
695424.95793857029639184
 20
5343509.50157156586647034
  0
INSERT
  5
e3
100
AcDbEntity
100
AcDbBlockReference
  8
Mountain Vista Way
  2
symbolLayer1
 50
0.0
 10
695443.04107849136926234
 20
5343517.57440188713371754
  0
INSERT
  5
e4
100
AcDbEntity
100
AcDbBlockReference
  8
Mountain Vista Way
  2
symbolLayer1
 50
0.0
 10
695452.72847487754188478
 20
5343516.60566224902868271
  0
INSERT
  5
e5
100
AcDbEntity
100
AcDbBlockReference
  8
Mountain Vista Way
  2
symbolLayer1
 50
0.0
 10
695467.58248266985174268
 20
5343517.25148867443203926
  0
INSERT
  5
e6
100
AcDbEntity
100
AcDbBlockReference
  8
Mountain Vista Way
  2
symbolLayer1
 50
0.0
 10
695478.23861869482789189
 20
5343517.57440188713371754
  0
INSERT
  5
e7
100
AcDbEntity
100
AcDbBlockReference
  8
Mountain Vista Way
  2
symbolLayer1
 50
0.0
 10
695492.76971327420324087
 20
5343521.44936044234782457
  0
INSERT
  5
e8
100
AcDbEntity
100
AcDbBlockReference
  8
Mountain Vista Way
  2
symbolLayer1
 50
0.0
 10
695502.78002287331037223
 20
5343520.80353401601314545
  0
INSERT
  5
e9
100
AcDbEntity
100
AcDbBlockReference
  8
Mountain Vista Way
  2
symbolLayer1
 50
0.0
 10
695592.87280926574021578
 20
5343525.00140578392893076
  0
INSERT
  5
ea
100
AcDbEntity
100
AcDbBlockReference
  8
Mountain Vista Way
  2
symbolLayer1
 50
0.0
 10
695603.20603207766544074
 20
5343524.67849257029592991
  0
INSERT
  5
eb
100
AcDbEntity
100
AcDbBlockReference
  8
Mountain Vista Way
  2
symbolLayer1
 50
0.0
 10
695613.86216810264158994
 20
5343521.44936044234782457
  0
INSERT
  5
ec
100
AcDbEntity
100
AcDbBlockReference
  8
Mountain Vista Way
  2
symbolLayer1
 50
0.0
 10
695624.19539091468323022
 20
5343520.80353401601314545
  0
INSERT
  5
ed
100
AcDbEntity
100
AcDbBlockReference
  8
Mountain Vista Way
  2
symbolLayer1
 50
0.0
 10
695640.34105155838187784
 20
5343524.67849257029592991
  0
INSERT
  5
ee
100
AcDbEntity
100
AcDbBlockReference
  8
Mountain Vista Way
  2
symbolLayer1
 50
0.0
 10
695662.94497645972296596
 20
5343523.70975293219089508
  0
INSERT
  5
ef
100
AcDbEntity
100
AcDbBlockReference
  8
Mountain Vista Way
  2
symbolLayer1
 50
0.0
 10
695685.87181457388214767
 20
5343525.00140578392893076
  0
INSERT
  5
f0
100
AcDbEntity
100
AcDbBlockReference
  8
Mountain Vista Way
  2
symbolLayer1
 50
0.0
 10
695707.18408662371803075
 20
5343525.00140578392893076
  0
INSERT
  5
f1
100
AcDbEntity
100
AcDbBlockReference
  8
Mountain Vista Way
  2
symbolLayer1
 50
0.0
 10
695724.94431333185639232
 20
5343528.23053791187703609
  0
INSERT
  5
f2
100
AcDbEntity
100
AcDbBlockReference
  8
Mountain Vista Way
  2
symbolLayer1
 50
0.0
 10
695735.27753614389803261
 20
5343528.23053791187703609
  0
INSERT
  5
f3
100
AcDbEntity
100
AcDbBlockReference
  8
Mountain Vista Way
  2
symbolLayer1
 50
0.0
 10
695750.93882696842774749
 20
5343525.32431899663060904
  0
INSERT
  5
f4
100
AcDbEntity
100
AcDbBlockReference
  8
Mountain Vista Way
  2
symbolLayer1
 50
0.0
 10
695772.89692544401623309
 20
5343519.83479437790811062
  0
INSERT
  5
f5
100
AcDbEntity
100
AcDbBlockReference
  8
Mountain Vista Way
  2
symbolLayer1
 50
0.0
 10
695790.33423893933650106
 20
5343509.50157156586647034
  0
INSERT
  5
f6
100
AcDbEntity
100
AcDbBlockReference
  8
Mountain Vista Way
  2
symbolLayer1
 50
0.0
 10
695805.83407315739896148
 20
5343494.32465056050568819
  0
INSERT
  5
f7
100
AcDbEntity
100
AcDbBlockReference
  8
Mountain Vista Way
  2
symbolLayer1
 50
0.0
 10
695812.61525062774308026
 20
5343461.06458963453769684
  0
INSERT
  5
f8
100
AcDbEntity
100
AcDbBlockReference
  8
Mountain Vista Way
  2
symbolLayer1
 50
0.0
 10
695757.72000443888828158
 20
5343469.78324638213962317
  0
INSERT
  5
f9
100
AcDbEntity
100
AcDbBlockReference
  8
Mountain Vista Way
  2
symbolLayer1
 50
0.0
 10
695763.53244227066170424
 20
5343446.53349505458027124
  0
INSERT
  5
fa
100
AcDbEntity
100
AcDbBlockReference
  8
Mountain Vista Way
  2
symbolLayer1
 50
0.0
 10
695765.14700833498500288
 20
5343426.51287585683166981
  0
INSERT
  5
fb
100
AcDbEntity
100
AcDbBlockReference
  8
Mountain Vista Way
  2
symbolLayer1
 50
0.0
 10
695764.17826869641430676
 20
5343408.7526491479948163
  0
INSERT
  5
fc
100
AcDbEntity
100
AcDbBlockReference
  8
Mountain Vista Way
  2
symbolLayer1
 50
0.0
 10
695766.11574797367211431
 20
5343390.02368280105292797
  0
INSERT
  5
fd
100
AcDbEntity
100
AcDbBlockReference
  8
Mountain Vista Way
  2
symbolLayer1
 50
0.0
 10
695767.08448761224281043
 20
5343374.20093537028878927
  0
INSERT
  5
fe
100
AcDbEntity
100
AcDbBlockReference
  8
Mountain Vista Way
  2
symbolLayer1
 50
0.0
 10
695766.76157439942471683
 20
5343356.11779544968158007
  0
INSERT
  5
ff
100
AcDbEntity
100
AcDbBlockReference
  8
Mountain Vista Way
  2
symbolLayer1
 50
0.0
 10
695816.81312239519320428
 20
5343378.72172035090625286
  0
INSERT
  5
100
100
AcDbEntity
100
AcDbBlockReference
  8
Mountain Vista Way
  2
symbolLayer1
 50
0.0
 10
695818.10477524669840932
 20
5343357.73236151412129402
  0
INSERT
  5
101
100
AcDbEntity
100
AcDbBlockReference
  8
Mountain Vista Way
  2
symbolLayer1
 50
0.0
 10
695770.87871786335017532
 20
5343262.23077880498021841
  0
INSERT
  5
102
100
AcDbEntity
100
AcDbBlockReference
  8
Mountain Vista Way
  2
symbolLayer1
 50
0.0
 10
695818.99278658186085522
 20
5343261.42349577322602272
  0
INSERT
  5
103
100
AcDbEntity
100
AcDbBlockReference
  8
Mountain Vista Way
  2
symbolLayer1
 50
0.0
 10
695829.81037921318784356
 20
5343245.76220494881272316
  0
INSERT
  5
104
100
AcDbEntity
100
AcDbBlockReference
  8
Mountain Vista Way
  2
symbolLayer1
 50
0.0
 10
695847.73206252779345959
 20
5343233.24931794963777065
  0
INSERT
  5
105
100
AcDbEntity
100
AcDbBlockReference
  8
Mountain Vista Way
  2
symbolLayer1
 50
0.0
 10
695889.87223680806346238
 20
5343191.91642670147120953
  0
INSERT
  5
106
100
AcDbEntity
100
AcDbBlockReference
  8
Mountain Vista Way
  2
symbolLayer1
 50
0.0
 10
695667.62721804599277675
 20
5343471.55926905106753111
  0
INSERT
  5
107
100
AcDbEntity
100
AcDbBlockReference
  8
Mountain Vista Way
  2
symbolLayer1
 50
0.0
 10
695643.40872708032839
 20
5343471.43817659560590982
  0
INSERT
  5
108
100
AcDbEntity
100
AcDbBlockReference
  8
Mountain Vista Way
  2
symbolLayer1
 50
0.0
 10
695618.22149647597689182
 20
5343468.77414258942008018
  0
INSERT
  5
109
100
AcDbEntity
100
AcDbBlockReference
  8
Mountain Vista Way
  2
symbolLayer1
 50
0.0
 10
695594.36628287483472377
 20
5343472.04363887012004852
  0
INSERT
  5
10a
100
AcDbEntity
100
AcDbBlockReference
  8
Mountain Vista Way
  2
symbolLayer1
 50
0.0
 10
695433.64632220368366688
 20
5343467.44212558679282665
  0
INSERT
  5
10b
100
AcDbEntity
100
AcDbBlockReference
  8
Mountain Vista Way
  2
symbolLayer1
 50
0.0
 10
695413.18169733765535057
 20
5343464.65699912514537573
  0
INSERT
  5
10c
100
AcDbEntity
100
AcDbBlockReference
  8
Mountain Vista Way
  2
symbolLayer1
 50
0.0
 10
695392.23270265234168619
 20
5343463.56716703251004219
  0
INSERT
  5
10d
100
AcDbEntity
100
AcDbBlockReference
  8
Mountain Vista Way
  2
symbolLayer1
 50
0.0
 10
695373.58446460880804807
 20
5343453.63758573587983847
  0
INSERT
  5
10e
100
AcDbEntity
100
AcDbBlockReference
  8
Mountain Vista Court
  2
symbolLayer2
 50
0.0
 10
695808.73522302228957415
 20
5343409.94202739000320435
  0
INSERT
  5
10f
100
AcDbEntity
100
AcDbBlockReference
  8
Mountain Vista Court
  2
symbolLayer2
 50
0.0
 10
695832.07245474366936833
 20
5343406.03387853689491749
  0
INSERT
  5
110
100
AcDbEntity
100
AcDbBlockReference
  8
Mountain Vista Court
  2
symbolLayer2
 50
0.0
 10
695863.00266137928701937
 20
5343427.13788234256207943
  0
INSERT
  5
111
100
AcDbEntity
100
AcDbBlockReference
  8
Mountain Vista Court
  2
symbolLayer2
 50
0.0
 10
695860.43444927595555782
 20
5343453.26664895843714476
  0
INSERT
  5
112
100
AcDbEntity
100
AcDbBlockReference
  8
Mountain Vista Court
  2
symbolLayer2
 50
0.0
 10
695840.44705942843575031
 20
5343476.6038806801661849
  0
INSERT
  5
113
100
AcDbEntity
100
AcDbBlockReference
  8
Looking Glass Avenue
  2
symbolLayer3
 50
0.0
 10
695462.58011179591994733
 20
5343232.28437392879277468
  0
INSERT
  5
114
100
AcDbEntity
100
AcDbBlockReference
  8
Looking Glass Avenue
  2
symbolLayer3
 50
0.0
 10
695464.12637678370811045
 20
5343271.55950462073087692
  0
INSERT
  5
115
100
AcDbEntity
100
AcDbBlockReference
  8
Looking Glass Avenue
  2
symbolLayer3
 50
0.0
 10
695468.45591874979436398
 20
5343290.42393747344613075
  0
INSERT
  5
116
100
AcDbEntity
100
AcDbBlockReference
  8
Looking Glass Avenue
  2
symbolLayer3
 50
0.0
 10
695473.32665346167050302
 20
5343305.731960853561759
  0
INSERT
  5
117
100
AcDbEntity
100
AcDbBlockReference
  8
Looking Glass Avenue
  2
symbolLayer3
 50
0.0
 10
695474.02247270627412945
 20
5343314.1591050373390317
  0
INSERT
  5
118
100
AcDbEntity
100
AcDbBlockReference
  8
Looking Glass Avenue
  2
symbolLayer3
 50
0.0
 10
695475.02754494838882238
 20
5343327.37967068329453468
  0
INSERT
  5
119
100
AcDbEntity
100
AcDbBlockReference
  8
Looking Glass Avenue
  2
symbolLayer3
 50
0.0
 10
695474.64097870141267776
 20
5343335.0336823733523488
  0
INSERT
  5
11a
100
AcDbEntity
100
AcDbBlockReference
  8
Looking Glass Avenue
  2
symbolLayer3
 50
0.0
 10
695474.79560520022641867
 20
5343346.5920131579041481
  0
INSERT
  5
11b
100
AcDbEntity
100
AcDbBlockReference
  8
Looking Glass Avenue
  2
symbolLayer3
 50
0.0
 10
695474.48635220259893686
 20
5343358.1116873174905777
  0
INSERT
  5
11c
100
AcDbEntity
100
AcDbBlockReference
  8
Looking Glass Avenue
  2
symbolLayer3
 50
0.0
 10
695476.26455693866591901
 20
5343392.65138148423284292
  0
INSERT
  5
11d
100
AcDbEntity
100
AcDbBlockReference
  8
Looking Glass Avenue
  2
symbolLayer3
 50
0.0
 10
695478.35201467236038297
 20
5343411.67044083494693041
  0
INSERT
  5
11e
100
AcDbEntity
100
AcDbBlockReference
  8
Looking Glass Avenue
  2
symbolLayer3
 50
0.0
 10
695483.2227493841201067
 20
5343466.79478765372186899
  0
INSERT
  5
11f
100
AcDbEntity
100
AcDbBlockReference
  8
Looking Glass Avenue
  2
symbolLayer3
 50
0.0
 10
695478.19738817354664207
 20
5343445.68827056884765625
  0
INSERT
  5
120
100
AcDbEntity
100
AcDbBlockReference
  8
Looking Glass Avenue
  2
symbolLayer3
 50
0.0
 10
695479.66633991210255772
 20
5343430.22562068980187178
  0
INSERT
  5
121
100
AcDbEntity
100
AcDbBlockReference
  8
Jackson Peak Drive
  2
symbolLayer4
 50
0.0
 10
695262.15269059978891164
 20
5343460.02216340322047472
  0
INSERT
  5
122
100
AcDbEntity
100
AcDbBlockReference
  8
Jackson Peak Drive
  2
symbolLayer4
 50
0.0
 10
695259.30532500694971532
 20
5343439.47646657656878233
  0
INSERT
  5
123
100
AcDbEntity
100
AcDbBlockReference
  8
Jackson Peak Drive
  2
symbolLayer4
 50
0.0
 10
695252.94062544661574066
 20
5343417.42334090732038021
  0
INSERT
  5
124
100
AcDbEntity
100
AcDbBlockReference
  8
Jackson Peak Drive
  2
symbolLayer4
 50
0.0
 10
695250.09325985389295965
 20
5343398.44090362265706062
  0
INSERT
  5
125
100
AcDbEntity
100
AcDbBlockReference
  8
Jackson Peak Drive
  2
symbolLayer4
 50
0.0
 10
695251.99150358245242387
 20
5343379.01182075403630733
  0
INSERT
  5
126
100
AcDbEntity
100
AcDbBlockReference
  8
Jackson Peak Drive
  2
symbolLayer4
 50
0.0
 10
695257.6862347680144012
 20
5343358.91276951041072607
  0
INSERT
  5
127
100
AcDbEntity
100
AcDbBlockReference
  8
Jackson Peak Drive
  2
symbolLayer4
 50
0.0
 10
695265.72585526539478451
 20
5343341.60525316186249256
  0
INSERT
  5
128
100
AcDbEntity
100
AcDbBlockReference
  8
Jackson Peak Drive
  2
symbolLayer4
 50
0.0
 10
695275.7753808869747445
 20
5343323.29278425127267838
  0
INSERT
  5
129
100
AcDbEntity
100
AcDbBlockReference
  8
Jackson Peak Drive
  2
symbolLayer4
 50
0.0
 10
695287.49982744560111314
 20
5343304.08702417463064194
  0
INSERT
  5
12a
100
AcDbEntity
100
AcDbBlockReference
  8
Jackson Peak Drive
  2
symbolLayer4
 50
0.0
 10
695302.57411587808746845
 20
5343291.80427063722163439
  0
INSERT
  5
12b
100
AcDbEntity
100
AcDbBlockReference
  8
Jackson Peak Drive
  2
symbolLayer4
 50
0.0
 10
695317.17271594097837806
 20
5343276.61236794106662273
  0
INSERT
  5
12c
100
AcDbEntity
100
AcDbBlockReference
  8
Jackson Peak Drive
  2
symbolLayer4
 50
0.0
 10
695333.95331316639203578
 20
5343264.72611157316714525
  0
INSERT
  5
12d
100
AcDbEntity
100
AcDbBlockReference
  8
Jackson Peak Drive
  2
symbolLayer4
 50
0.0
 10
695351.89922964351717383
 20
5343253.07291905581951141
  0
INSERT
  5
12e
100
AcDbEntity
100
AcDbBlockReference
  8
Jackson Peak Drive
  2
symbolLayer4
 50
0.0
 10
695371.47659307322464883
 20
5343245.61487584374845028
  0
INSERT
  5
12f
100
AcDbEntity
100
AcDbBlockReference
  8
Jackson Peak Drive
  2
symbolLayer4
 50
0.0
 10
695390.82089265249669552
 20
5343238.85602418426424265
  0
INSERT
  5
130
100
AcDbEntity
100
AcDbBlockReference
  8
Jackson Peak Drive
  2
symbolLayer4
 50
0.0
 10
695411.79663918435107917
 20
5343234.6608748771250248
  0
INSERT
  5
131
100
AcDbEntity
100
AcDbBlockReference
  8
Jackson Peak Drive
  2
symbolLayer4
 50
0.0
 10
695203.09775471652392298
 20
5343379.40651061851531267
  0
INSERT
  5
132
100
AcDbEntity
100
AcDbBlockReference
  8
Jackson Peak Drive
  2
symbolLayer4
 50
0.0
 10
695204.4600448333658278
 20
5343358.97215886600315571
  0
INSERT
  5
133
100
AcDbEntity
100
AcDbBlockReference
  8
Jackson Peak Drive
  2
symbolLayer4
 50
0.0
 10
695210.72657937055919319
 20
5343340.71747130155563354
  0
INSERT
  5
134
100
AcDbEntity
100
AcDbBlockReference
  8
Jackson Peak Drive
  2
symbolLayer4
 50
0.0
 10
695218.21917501301504672
 20
5343322.46278373617678881
  0
INSERT
  5
135
100
AcDbEntity
100
AcDbBlockReference
  8
Jackson Peak Drive
  2
symbolLayer4
 50
0.0
 10
695228.70880891231354326
 20
5343307.47759245149791241
  0
INSERT
  5
136
100
AcDbEntity
100
AcDbBlockReference
  8
Jackson Peak Drive
  2
symbolLayer4
 50
0.0
 10
695233.06813728611450642
 20
5343289.90404994506388903
  0
INSERT
  5
137
100
AcDbEntity
100
AcDbBlockReference
  8
Jackson Peak Drive
  2
symbolLayer4
 50
0.0
 10
695239.47090083500370383
 20
5343281.73030924424529076
  0
INSERT
  5
138
100
AcDbEntity
100
AcDbBlockReference
  8
Jackson Peak Drive
  2
symbolLayer4
 50
0.0
 10
695245.87366438389290124
 20
5343271.78559139091521502
  0
INSERT
  5
139
100
AcDbEntity
100
AcDbBlockReference
  8
Jackson Peak Drive
  2
symbolLayer4
 50
0.0
 10
695252.14019892120268196
 20
5343264.56545377243310213
  0
INSERT
  5
13a
100
AcDbEntity
100
AcDbBlockReference
  8
Jackson Peak Drive
  2
symbolLayer4
 50
0.0
 10
695262.35737479710951447
 20
5343255.16565196681767702
  0
INSERT
  5
13b
100
AcDbEntity
100
AcDbBlockReference
  8
Jackson Peak Drive
  2
symbolLayer4
 50
0.0
 10
695269.30505439278203994
 20
5343250.12517853453755379
  0
INSERT
  5
13c
100
AcDbEntity
100
AcDbBlockReference
  8
Jackson Peak Drive
  2
symbolLayer4
 50
0.0
 10
695278.26211191061884165
 20
5343239.73771639354526997
  0
INSERT
  5
13d
100
AcDbEntity
100
AcDbBlockReference
  8
Jackson Peak Drive
  2
symbolLayer4
 50
0.0
 10
695285.61847854137886316
 20
5343234.01609790325164795
  0
INSERT
  5
13e
100
AcDbEntity
100
AcDbBlockReference
  8
Jackson Peak Drive
  2
symbolLayer4
 50
0.0
 10
695299.37760872102808207
 20
5343225.56989917904138565
  0
INSERT
  5
13f
100
AcDbEntity
100
AcDbBlockReference
  8
Jackson Peak Drive
  2
symbolLayer4
 50
0.0
 10
695316.13377715763635933
 20
5343213.99043318629264832
  0
INSERT
  5
140
100
AcDbEntity
100
AcDbBlockReference
  8
Jackson Peak Drive
  2
symbolLayer4
 50
0.0
 10
695333.97977768757846206
 20
5343206.77029556687921286
  0
INSERT
  5
141
100
AcDbEntity
100
AcDbBlockReference
  8
Jackson Peak Drive
  2
symbolLayer4
 50
0.0
 10
695352.50692327599972486
 20
5343197.50672277342528105
  0
INSERT
  5
142
100
AcDbEntity
100
AcDbBlockReference
  8
Jackson Peak Drive
  2
symbolLayer4
 50
0.0
 10
695366.12982444395311177
 20
5343191.10395922418683767
  0
INSERT
  5
143
100
AcDbEntity
100
AcDbBlockReference
  8
Jackson Peak Drive
  2
symbolLayer4
 50
0.0
 10
695374.98471020313445479
 20
5343187.56200492009520531
  0
INSERT
  5
144
100
AcDbEntity
100
AcDbBlockReference
  8
Jackson Peak Drive
  2
symbolLayer4
 50
0.0
 10
695387.5177792776376009
 20
5343181.29547038301825523
  0
INSERT
  5
145
100
AcDbEntity
100
AcDbBlockReference
  8
Jackson Peak Drive
  2
symbolLayer4
 50
0.0
 10
695396.91758108360227197
 20
5343179.93318026605993509
  0
INSERT
  5
146
100
AcDbEntity
100
AcDbBlockReference
  8
Jackson Peak Drive
  2
symbolLayer4
 50
0.0
 10
695408.90573411132209003
 20
5343179.93318026605993509
  0
INSERT
  5
147
100
AcDbEntity
100
AcDbBlockReference
  8
Jackson Peak Drive
  2
symbolLayer4
 50
0.0
 10
695418.70414813794195652
 20
5343180.25776450335979462
  0
INSERT
  5
148
100
AcDbEntity
100
AcDbBlockReference
  8
Jackson Peak Drive
  2
symbolLayer4
 50
0.0
 10
695434.47605101426597685
 20
5343183.81417397502809763
  0
INSERT
  5
149
100
AcDbEntity
100
AcDbBlockReference
  8
Jackson Peak Drive
  2
symbolLayer4
 50
0.0
 10
695453.80436336272396147
 20
5343185.20581246446818113
  0
INSERT
  5
14a
100
AcDbEntity
100
AcDbBlockReference
  8
Jackson Peak Drive
  2
symbolLayer4
 50
0.0
 10
695472.05029021960217506
 20
5343183.6595474760979414
  0
INSERT
  5
14b
100
AcDbEntity
100
AcDbBlockReference
  8
Jackson Peak Drive
  2
symbolLayer4
 50
0.0
 10
695566.44976772938389331
 20
5343185.7470052083954215
  0
INSERT
  5
14c
100
AcDbEntity
100
AcDbBlockReference
  8
Jackson Peak Drive
  2
symbolLayer4
 50
0.0
 10
695574.95422516262624413
 20
5343185.12849921360611916
  0
INSERT
  5
14d
100
AcDbEntity
100
AcDbBlockReference
  8
Jackson Peak Drive
  2
symbolLayer4
 50
0.0
 10
695588.7159835547208786
 20
5343186.36551120318472385
  0
INSERT
  5
14e
100
AcDbEntity
100
AcDbBlockReference
  8
Jackson Peak Drive
  2
symbolLayer4
 50
0.0
 10
695598.76670597586780787
 20
5343186.67476420104503632
  0
INSERT
  5
14f
100
AcDbEntity
100
AcDbBlockReference
  8
Jackson Peak Drive
  2
symbolLayer4
 50
0.0
 10
695612.83771736558992416
 20
5343188.37565568741410971
  0
INSERT
  5
150
100
AcDbEntity
100
AcDbBlockReference
  8
Jackson Peak Drive
  2
symbolLayer4
 50
0.0
 10
695622.88843978673685342
 20
5343188.68490868527442217
  0
INSERT
  5
151
100
AcDbEntity
100
AcDbBlockReference
  8
Jackson Peak Drive
  2
symbolLayer4
 50
0.0
 10
695636.65019817883148789
 20
5343188.37565568741410971
  0
INSERT
  5
152
100
AcDbEntity
100
AcDbBlockReference
  8
Jackson Peak Drive
  2
symbolLayer4
 50
0.0
 10
695646.23704110365360975
 20
5343189.14878818206489086
  0
INSERT
  5
153
100
AcDbEntity
100
AcDbBlockReference
  8
Jackson Peak Drive
  2
symbolLayer4
 50
0.0
 10
695660.77193198970053345
 20
5343183.1183547293767333
  0
INSERT
  5
154
100
AcDbEntity
100
AcDbBlockReference
  8
Jackson Peak Drive
  2
symbolLayer4
 50
0.0
 10
695669.12176292412914336
 20
5343182.96372823044657707
  0
INSERT
  5
155
100
AcDbEntity
100
AcDbBlockReference
  8
Jackson Peak Drive
  2
symbolLayer4
 50
0.0
 10
695662.62744997511617839
 20
5343243.88656875211745501
  0
INSERT
  5
156
100
AcDbEntity
100
AcDbBlockReference
  8
Jackson Peak Drive
  2
symbolLayer4
 50
0.0
 10
695577.89212863962166011
 20
5343239.8662797836586833
  0
INSERT
  5
157
100
AcDbEntity
100
AcDbBlockReference
  8
Heaven_s Peak Drive
  2
symbolLayer5
 50
0.0
 10
695721.3345124019542709
 20
5343476.90774364676326513
  0
INSERT
  5
158
100
AcDbEntity
100
AcDbBlockReference
  8
Heaven_s Peak Drive
  2
symbolLayer5
 50
0.0
 10
695718.65463890274986625
 20
5343454.12881890498101711
  0
INSERT
  5
159
100
AcDbEntity
100
AcDbBlockReference
  8
Heaven_s Peak Drive
  2
symbolLayer5
 50
0.0
 10
695720.44122123555280268
 20
5343430.00995741225779057
  0
INSERT
  5
15a
100
AcDbEntity
100
AcDbBlockReference
  8
Heaven_s Peak Drive
  2
symbolLayer5
 50
0.0
 10
695717.76134773646481335
 20
5343408.1243238365277648
  0
INSERT
  5
15b
100
AcDbEntity
100
AcDbBlockReference
  8
Heaven_s Peak Drive
  2
symbolLayer5
 50
0.0
 10
695713.29489190457388759
 20
5343388.02527259290218353
  0
INSERT
  5
15c
100
AcDbEntity
100
AcDbBlockReference
  8
Heaven_s Peak Drive
  2
symbolLayer5
 50
0.0
 10
695711.50830957188736647
 20
5343361.22653760202229023
  0
INSERT
  5
15d
100
AcDbEntity
100
AcDbBlockReference
  8
Heaven_s Peak Drive
  2
symbolLayer5
 50
0.0
 10
695711.95495515502989292
 20
5343328.17476444691419601
  0
INSERT
  5
15e
100
AcDbEntity
100
AcDbBlockReference
  8
Heaven_s Peak Drive
  2
symbolLayer5
 50
0.0
 10
695719.54793006915133446
 20
5343286.63672521058470011
  0
INSERT
  5
15f
100
AcDbEntity
100
AcDbBlockReference
  8
Heaven_s Peak Drive
  2
symbolLayer5
 50
0.0
 10
695723.12109473464079201
 20
5343266.09102838393300772
  0
INSERT
  5
160
100
AcDbEntity
100
AcDbBlockReference
  8
Heaven_s Peak Drive
  2
symbolLayer5
 50
0.0
 10
695720.88786681869532913
 20
5343245.99197714030742645
  0
INSERT
  5
161
100
AcDbEntity
100
AcDbBlockReference
  8
Heaven_s Peak Drive
  2
symbolLayer5
 50
0.0
 10
695714.1881830709753558
 20
5343221.87311564851552248
  0
INSERT
  5
162
100
AcDbEntity
100
AcDbBlockReference
  8
Heaven_s Peak Drive
  2
symbolLayer5
 50
0.0
 10
695716.86805657006334513
 20
5343201.77406440488994122
  0
INSERT
  5
163
100
AcDbEntity
100
AcDbBlockReference
  8
Heaven_s Peak Drive
  2
symbolLayer5
 50
0.0
 10
695715.52811982051935047
 20
5343183.46159549430012703
  0
INSERT
  5
164
100
AcDbEntity
100
AcDbBlockReference
  8
Heaven_s Peak Drive
  2
symbolLayer5
 50
0.0
 10
695665.05716892064083368
 20
5343277.70381354633718729
  0
INSERT
  5
165
100
AcDbEntity
100
AcDbBlockReference
  8
Heaven_s Peak Drive
  2
symbolLayer5
 50
0.0
 10
695660.59071308874990791
 20
5343307.62906762026250362
  0
INSERT
  5
166
100
AcDbEntity
100
AcDbBlockReference
  8
Heaven_s Peak Drive
  2
symbolLayer5
 50
0.0
 10
695657.91083958966191858
 20
5343339.34090402629226446
  0
INSERT
  5
167
100
AcDbEntity
100
AcDbBlockReference
  8
Cyclone Drive
  2
symbolLayer6
 50
0.0
 10
695419.91078693687450141
 20
5343278.19218976702541113
  0
INSERT
  5
168
100
AcDbEntity
100
AcDbBlockReference
  8
Cyclone Drive
  2
symbolLayer6
 50
0.0
 10
695401.55971902562305331
 20
5343282.7799567449837923
  0
INSERT
  5
169
100
AcDbEntity
100
AcDbBlockReference
  8
Cyclone Drive
  2
symbolLayer6
 50
0.0
 10
695378.62088413641322404
 20
5343284.19157735351473093
  0
INSERT
  5
16a
100
AcDbEntity
100
AcDbBlockReference
  8
Cyclone Drive
  2
symbolLayer6
 50
0.0
 10
695361.32853168155997992
 20
5343302.18974011298269033
  0
INSERT
  5
16b
100
AcDbEntity
100
AcDbBlockReference
  8
Cyclone Drive
  2
symbolLayer6
 50
0.0
 10
695346.85942044376861304
 20
5343316.30594619829207659
  0
INSERT
  5
16c
100
AcDbEntity
100
AcDbBlockReference
  8
Cyclone Drive
  2
symbolLayer6
 50
0.0
 10
695331.3315937495790422
 20
5343330.06924713216722012
  0
INSERT
  5
16d
100
AcDbEntity
100
AcDbBlockReference
  8
Cyclone Drive
  2
symbolLayer6
 50
0.0
 10
695317.56829281605314463
 20
5343345.24416867364197969
  0
INSERT
  5
16e
100
AcDbEntity
100
AcDbBlockReference
  8
Cyclone Drive
  2
symbolLayer6
 50
0.0
 10
695303.80499188264366239
 20
5343361.12490051984786987
  0
INSERT
  5
16f
100
AcDbEntity
100
AcDbBlockReference
  8
Cyclone Drive
  2
symbolLayer6
 50
0.0
 10
695298.51141460053622723
 20
5343380.5346838878467679
  0
INSERT
  5
170
100
AcDbEntity
100
AcDbBlockReference
  8
Cyclone Drive
  2
symbolLayer6
 50
0.0
 10
695289.68878579698503017
 20
5343400.65027755964547396
  0
INSERT
  5
171
100
AcDbEntity
100
AcDbBlockReference
  8
Cyclone Drive
  2
symbolLayer6
 50
0.0
 10
695290.74750125338323414
 20
5343422.17749183997511864
  0
INSERT
  5
172
100
AcDbEntity
100
AcDbBlockReference
  8
Cyclone Drive
  2
symbolLayer6
 50
0.0
 10
695296.04107853549066931
 20
5343442.99889581650495529
  0
INSERT
  5
173
100
AcDbEntity
100
AcDbBlockReference
  8
Cyclone Drive
  2
symbolLayer6
 50
0.0
 10
695295.68817338335793465
 20
5343462.76158433686941862
  0
INSERT
  5
174
100
AcDbEntity
100
AcDbBlockReference
  8
Cyclone Drive
  2
symbolLayer6
 50
0.0
 10
695342.9774637701921165
 20
5343463.46739464066922665
  0
INSERT
  5
175
100
AcDbEntity
100
AcDbBlockReference
  8
Cyclone Drive
  2
symbolLayer6
 50
0.0
 10
695343.33036892232485116
 20
5343443.35180096887052059
  0
INSERT
  5
176
100
AcDbEntity
100
AcDbBlockReference
  8
Cyclone Drive
  2
symbolLayer6
 50
0.0
 10
695342.62455861805938184
 20
5343423.94201760087162256
  0
INSERT
  5
177
100
AcDbEntity
100
AcDbBlockReference
  8
Cyclone Drive
  2
symbolLayer6
 50
0.0
 10
695343.68327407445758581
 20
5343404.17932908143848181
  0
INSERT
  5
178
100
AcDbEntity
100
AcDbBlockReference
  8
Cyclone Drive
  2
symbolLayer6
 50
0.0
 10
695365.21048835502006114
 20
5343366.06557265017181635
  0
INSERT
  5
179
100
AcDbEntity
100
AcDbBlockReference
  8
Cyclone Drive
  2
symbolLayer6
 50
0.0
 10
695378.9737892885459587
 20
5343348.42031504306942225
  0
INSERT
  5
17a
100
AcDbEntity
100
AcDbBlockReference
  8
Cyclone Drive
  2
symbolLayer6
 50
0.0
 10
695396.26614174339920282
 20
5343333.24539350066334009
  0
INSERT
  5
17b
100
AcDbEntity
100
AcDbBlockReference
  8
Cyclone Drive
  2
symbolLayer6
 50
0.0
 10
695417.45359661558177322
 20
5343325.75462321005761623
  0
INSERT
  5
17c
100
AcDbEntity
100
AcDbBlockReference
  8
Cottage Drive
  2
symbolLayer7
 50
0.0
 10
695812.07040867884643376
 20
5343335.07949337363243103
  0
INSERT
  5
17d
100
AcDbEntity
100
AcDbBlockReference
  8
Cottage Drive
  2
symbolLayer7
 50
0.0
 10
695933.41640083387028426
 20
5343185.32975228410214186
  0
INSERT
  5
17e
100
AcDbEntity
100
AcDbBlockReference
  8
Cottage Drive
  2
symbolLayer7
 50
0.0
 10
695967.90854273142758757
 20
5343184.55349997337907553
  0
INSERT
  5
17f
100
AcDbEntity
100
AcDbBlockReference
  8
Cottage Drive
  2
symbolLayer7
 50
0.0
 10
695963.55374829529318959
 20
5343216.26533637940883636
  0
INSERT
  5
180
100
AcDbEntity
100
AcDbBlockReference
  8
Cottage Court
  2
symbolLayer8
 50
0.0
 10
695773.89686753251589835
 20
5343187.23337347339838743
  0
INSERT
  5
181
100
AcDbEntity
100
AcDbBlockReference
  8
Cottage Court
  2
symbolLayer8
 50
0.0
 10
695799.18817368079908192
 20
5343183.8835316002368927
  0
LWPOLYLINE
  5
182
  8
Other Places
100
AcDbEntity
100
AcDbPolyline
  6
CONTINUOUS
420
16712144
 90
     5
 70
   129
 43
253.99999999999997158
 10
695404.82704347174149007
 20
5343258.63424269389361143
 10
695382.12905272119678557
 20
5343265.62138600926846266
 10
695396.12762376584578305
 20
5343303.52601348794996738
 10
695413.9241540664806962
 20
5343298.63015996385365725
 10
695404.82704347174149007
 20
5343258.63424269389361143
  0
LWPOLYLINE
  5
183
  8
Other Places
100
AcDbEntity
100
AcDbPolyline
  6
CONTINUOUS
420
16712144
 90
    13
 70
   129
 43
253.99999999999997158
 10
695438.45010092912707478
 20
5343345.26031539868563414
 10
695441.66545898444019258
 20
5343344.61985789891332388
 10
695439.2604757237713784
 20
5343310.68868102505803108
 10
695438.99906449974514544
 20
5343309.01564919203519821
 10
695438.47624205180909485
 20
5343307.76087531633675098
 10
695437.06462144223041832
 20
5343306.29697246197611094
 10
695435.28702511906158179
 20
5343305.14676307700574398
 10
695432.15009043121244758
 20
5343304.72850511875003576
 10
695428.38576880586333573
 20
5343304.98991634231060743
 10
695424.83057615964207798
 20
5343305.51273879036307335
 10
695398.32347804727032781
 20
5343312.93681755196303129
 10
695413.68138745636679232
 20
5343351.31198523286730051
 10
695438.45010092912707478
 20
5343345.26031539868563414
  0
LWPOLYLINE
  5
184
  8
Other Places
100
AcDbEntity
100
AcDbPolyline
  6
CONTINUOUS
420
16712144
 90
     6
 70
   129
 43
253.99999999999997158
 10
695398.2058429962489754
 20
5343358.84062848426401615
 10
695413.68138745636679232
 20
5343351.31198523286730051
 10
695398.32347804727032781
 20
5343312.93681755196303129
 10
695387.10893653822131455
 20
5343318.11275978665798903
 10
695374.87489125563297421
 20
5343325.37999181356281042
 10
695398.2058429962489754
 20
5343358.84062848426401615
  0
LWPOLYLINE
  5
185
  8
Other Places
100
AcDbEntity
100
AcDbPolyline
  6
CONTINUOUS
420
16712144
 90
     5
 70
   129
 43
253.99999999999997158
 10
695385.06992899102624506
 20
5343370.67384322267025709
 10
695398.2058429962489754
 20
5343358.84062848426401615
 10
695374.87489125563297421
 20
5343325.37999181356281042
 10
695354.75929756986442953
 20
5343342.05802790354937315
 10
695385.06992899102624506
 20
5343370.67384322267025709
  0
LWPOLYLINE
  5
186
  8
Other Places
100
AcDbEntity
100
AcDbPolyline
  6
CONTINUOUS
420
16712144
 90
     5
 70
   129
 43
253.99999999999997158
 10
695374.68318969127722085
 20
5343384.56349292397499084
 10
695385.06992899102624506
 20
5343370.67384322267025709
 10
695354.75929756986442953
 20
5343342.05802790354937315
 10
695339.64972882333677262
 20
5343362.81407908815890551
 10
695374.68318969127722085
 20
5343384.56349292397499084
  0
LWPOLYLINE
  5
187
  8
Other Places
100
AcDbEntity
100
AcDbPolyline
  6
CONTINUOUS
420
16712144
 90
     7
 70
   129
 43
253.99999999999997158
 10
695364.08732141216751188
 20
5343417.64072646945714951
 10
695367.60765922884456813
 20
5343400.40501310210675001
 10
695328.26527001871727407
 20
5343387.59586312249302864
 10
695324.76235961739439517
 20
5343399.98675513919442892
 10
695323.35073900781571865
 20
5343407.09714043233543634
 10
695323.14161002857144922
 20
5343413.84155001118779182
 10
695364.08732141216751188
 20
5343417.64072646945714951
  0
LWPOLYLINE
  5
188
  8
Other Places
100
AcDbEntity
100
AcDbPolyline
  6
CONTINUOUS
420
16712144
 90
     5
 70
   129
 43
253.99999999999997158
 10
695363.6342086240183562
 20
5343434.75444793328642845
 10
695364.08732141216751188
 20
5343417.64072646945714951
 10
695323.14161002857144922
 20
5343413.84155001118779182
 10
695321.8868361534550786
 20
5343433.34282732009887695
 10
695363.6342086240183562
 20
5343434.75444793328642845
  0
LWPOLYLINE
  5
189
  8
Other Places
100
AcDbEntity
100
AcDbPolyline
  6
CONTINUOUS
420
16712144
 90
     5
 70
   129
 43
253.99999999999997158
 10
695363.6342086240183562
 20
5343434.75444793328642845
 10
695321.8868361534550786
 20
5343433.34282732009887695
 10
695321.67770717432722449
 20
5343451.69389524403959513
 10
695363.34665627789217979
 20
5343453.57605605665594339
 10
695363.6342086240183562
 20
5343434.75444793328642845
  0
LWPOLYLINE
  5
18a
  8
Other Places
100
AcDbEntity
100
AcDbPolyline
  6
CONTINUOUS
420
16712144
 90
    11
 70
   129
 43
253.99999999999997158
 10
695363.34665627789217979
 20
5343453.57605605665594339
 10
695321.67770717432722449
 20
5343451.69389524403959513
 10
695321.46857819508295506
 20
5343474.75036519952118397
 10
695321.72998941910918802
 20
5343475.9005745854228735
 10
695322.14824737748131156
 20
5343477.36447743978351355
 10
695323.03704553900752217
 20
5343478.7238158043473959
 10
695324.08269043499603868
 20
5343479.71717845555394888
 10
695325.12833533086813986
 20
5343480.44912988319993019
 10
695326.33082696131896228
 20
5343480.86738784145563841
 10
695362.87611607473809272
 20
5343482.22672620601952076
 10
695363.34665627789217979
 20
5343453.57605605665594339
  0
LWPOLYLINE
  5
18b
  8
Other Places
100
AcDbEntity
100
AcDbPolyline
  6
CONTINUOUS
420
16712144
 90
     5
 70
   129
 43
253.99999999999997158
 10
695363.52713830559514463
 20
5343441.76268695946782827
 10
695362.87611607473809272
 20
5343482.22672620601952076
 10
695382.30563717847689986
 20
5343483.32225651200860739
 10
695383.71161974081769586
 20
5343442.24610931240022182
 10
695363.52713830559514463
 20
5343441.76268695946782827
  0
LWPOLYLINE
  5
18c
  8
Other Places
100
AcDbEntity
100
AcDbPolyline
  6
CONTINUOUS
420
16712144
 90
     5
 70
   129
 43
253.99999999999997158
 10
695383.71161974081769586
 20
5343442.24610931240022182
 10
695382.30563717847689986
 20
5343483.32225651200860739
 10
695403.01933120226021856
 20
5343484.35227140691131353
 10
695405.06266062147915363
 20
5343442.7574709951877594
 10
695383.71161974081769586
 20
5343442.24610931240022182
  0
LWPOLYLINE
  5
18d
  8
Other Places
100
AcDbEntity
100
AcDbPolyline
  6
CONTINUOUS
420
16712144
 90
     5
 70
   129
 43
253.99999999999997158
 10
695405.06266062147915363
 20
5343442.7574709951877594
 10
695403.01933120226021856
 20
5343484.35227140691131353
 10
695423.35503810888621956
 20
5343485.18384306505322456
 10
695425.09896935301367193
 20
5343443.2373445825651288
 10
695405.06266062147915363
 20
5343442.7574709951877594
  0
LWPOLYLINE
  5
18e
  8
Other Places
100
AcDbEntity
100
AcDbPolyline
  6
CONTINUOUS
420
16712144
 90
    10
 70
   129
 43
253.99999999999997158
 10
695425.09896935301367193
 20
5343443.2373445825651288
 10
695423.35503810888621956
 20
5343485.18384306505322456
 10
695446.10986256564501673
 20
5343485.48623275849968195
 10
695447.7730058814631775
 20
5343484.8058559475466609
 10
695449.20935692684724927
 20
5343483.97428428940474987
 10
695450.34331827855203301
 20
5343482.99151778500527143
 10
695451.02369508950505406
 20
5343481.85755643341690302
 10
695451.47727963025681674
 20
5343480.64799765776842833
 10
695448.74632272333838046
 20
5343443.80370340775698423
 10
695425.09896935301367193
 20
5343443.2373445825651288
  0
LWPOLYLINE
  5
18f
  8
Other Places
100
AcDbEntity
100
AcDbPolyline
  6
CONTINUOUS
420
16712144
 90
     5
 70
   129
 43
253.99999999999997158
 10
695382.12905272119678557
 20
5343265.62138600926846266
 10
695359.70200756855774671
 20
5343275.06080460175871849
 10
695380.11331189854536206
 20
5343311.49876270163804293
 10
695396.12762376584578305
 20
5343303.52601348794996738
 10
695382.12905272119678557
 20
5343265.62138600926846266
  0
LWPOLYLINE
  5
190
  8
Other Places
100
AcDbEntity
100
AcDbPolyline
  6
CONTINUOUS
420
16712144
 90
     5
 70
   129
 43
253.99999999999997158
 10
695359.70200756855774671
 20
5343275.06080460175871849
 10
695339.89548262604512274
 20
5343288.21475628111511469
 10
695365.0694246330531314
 20
5343321.32642774935811758
 10
695380.11331189854536206
 20
5343311.49876270163804293
 10
695359.70200756855774671
 20
5343275.06080460175871849
  0
LWPOLYLINE
  5
191
  8
Other Places
100
AcDbEntity
100
AcDbPolyline
  6
CONTINUOUS
420
16712144
 90
     6
 70
   129
 43
253.99999999999997158
 10
695339.89548262604512274
 20
5343288.21475628111511469
 10
695321.82769842282868922
 20
5343300.91512341983616352
 10
695320.24015253048855811
 20
5343302.72946158237755299
 10
695351.46188841306138784
 20
5343333.55431099236011505
 10
695365.0694246330531314
 20
5343321.32642774935811758
 10
695339.89548262604512274
 20
5343288.21475628111511469
  0
LWPOLYLINE
  5
192
  8
Other Places
100
AcDbEntity
100
AcDbPolyline
  6
CONTINUOUS
420
16712144
 90
     5
 70
   129
 43
253.99999999999997158
 10
695320.24015253048855811
 20
5343302.72946158237755299
 10
695304.83717750362120569
 20
5343321.28862903825938702
 10
695339.0828103240346536
 20
5343347.14294785633683205
 10
695351.46188841306138784
 20
5343333.55431099236011505
 10
695320.24015253048855811
 20
5343302.72946158237755299
  0
LWPOLYLINE
  5
193
  8
Other Places
100
AcDbEntity
100
AcDbPolyline
  6
CONTINUOUS
420
16712144
 90
     6
 70
   129
 43
253.99999999999997158
 10
695304.83717750362120569
 20
5343321.28862903825938702
 10
695300.22573467355687171
 20
5343326.9584357962012291
 10
695291.15404386015143245
 20
5343341.39754367433488369
 10
695329.10395042935851961
 20
5343362.94280935637652874
 10
695339.0828103240346536
 20
5343347.14294785633683205
 10
695304.83717750362120569
 20
5343321.28862903825938702
  0
LWPOLYLINE
  5
194
  8
Other Places
100
AcDbEntity
100
AcDbPolyline
  6
CONTINUOUS
420
16712144
 90
     6
 70
   129
 43
253.99999999999997158
 10
695291.15404386015143245
 20
5343341.39754367433488369
 10
695282.00675562338437885
 20
5343358.97394462488591671
 10
695280.79719684831798077
 20
5343363.73658230248838663
 10
695321.01502612081822008
 20
5343380.36801545973867178
 10
695329.10395042935851961
 20
5343362.94280935637652874
 10
695291.15404386015143245
 20
5343341.39754367433488369
  0
LWPOLYLINE
  5
195
  8
Other Places
100
AcDbEntity
100
AcDbPolyline
  6
CONTINUOUS
420
16712144
 90
     6
 70
   129
 43
253.99999999999997158
 10
695280.79719684831798077
 20
5343363.73658230248838663
 10
695276.94172825268469751
 20
5343375.60537778306752443
 10
695276.03455917129758745
 20
5343387.62536811083555222
 10
695316.70597298443317413
 20
5343396.31907180696725845
 10
695321.01502612081822008
 20
5343380.36801545973867178
 10
695280.79719684831798077
 20
5343363.73658230248838663
  0
LWPOLYLINE
  5
196
  8
Other Places
100
AcDbEntity
100
AcDbPolyline
  6
CONTINUOUS
420
16712144
 90
     5
 70
   129
 43
253.99999999999997158
 10
695276.03455917129758745
 20
5343387.62536811083555222
 10
695274.01232809410430491
 20
5343410.87157581932842731
 10
695314.00336509628687054
 20
5343413.13949852343648672
 10
695316.70597298443317413
 20
5343396.31907180696725845
 10
695276.03455917129758745
 20
5343387.62536811083555222
  0
LWPOLYLINE
  5
197
  8
Other Places
100
AcDbEntity
100
AcDbPolyline
  6
CONTINUOUS
420
16712144
 90
     5
 70
   129
 43
253.99999999999997158
 10
695274.01232809410430491
 20
5343410.87157581932842731
 10
695275.97786110371816903
 20
5343430.75369818601757288
 10
695313.17179343837779015
 20
5343431.20728272665292025
 10
695314.00336509628687054
 20
5343413.13949852343648672
 10
695274.01232809410430491
 20
5343410.87157581932842731
  0
LWPOLYLINE
  5
198
  8
Other Places
100
AcDbEntity
100
AcDbPolyline
  6
CONTINUOUS
420
16712144
 90
     5
 70
   129
 43
253.99999999999997158
 10
695275.97786110371816903
 20
5343430.75369818601757288
 10
695277.18741987878456712
 20
5343450.06883987598121166
 10
695312.79380632110405713
 20
5343451.20280122756958008
 10
695313.17179343837779015
 20
5343431.20728272665292025
 10
695275.97786110371816903
 20
5343430.75369818601757288
  0
LWPOLYLINE
  5
199
  8
Other Places
100
AcDbEntity
100
AcDbPolyline
  6
CONTINUOUS
420
16712144
 90
     9
 70
   129
 43
253.99999999999997158
 10
695277.18741987878456712
 20
5343450.06883987598121166
 10
695278.0189915366936475
 20
5343479.02265305537730455
 10
695307.35079183313064277
 20
5343480.45900410041213036
 10
695308.86274030199274421
 20
5343479.92982213664799929
 10
695310.14789650053717196
 20
5343478.87145820818841457
 10
695311.35745527571998537
 20
5343477.66189943253993988
 10
695312.4914166274247691
 20
5343476.0743535403162241
 10
695312.79380632110405713
 20
5343451.20280122756958008
 10
695277.18741987878456712
 20
5343450.06883987598121166
  0
LWPOLYLINE
  5
19a
  8
Other Places
100
AcDbEntity
100
AcDbPolyline
  6
CONTINUOUS
420
16712144
 90
    10
 70
   129
 43
253.99999999999997158
 10
695277.18741987878456712
 20
5343450.06883987598121166
 10
695243.77335871628019959
 20
5343449.16167079471051693
 10
695245.89008657273370773
 20
5343456.79701056238263845
 10
695246.34367111348547041
 20
5343462.24002505000680685
 10
695246.87285307759884745
 20
5343473.50404114369302988
 10
695247.78002215886954218
 20
5343475.24278188310563564
 10
695249.36756805120967329
 20
5343476.90592519845813513
 10
695251.48429590766318142
 20
5343478.26667882036417723
 10
695278.0189915366936475
 20
5343479.02265305537730455
 10
695277.18741987878456712
 20
5343450.06883987598121166
  0
LWPOLYLINE
  5
19b
  8
Other Places
100
AcDbEntity
100
AcDbPolyline
  6
CONTINUOUS
420
16712144
 90
     5
 70
   129
 43
253.99999999999997158
 10
695275.97786110371816903
 20
5343430.75369818601757288
 10
695236.44040864217095077
 20
5343429.20395100489258766
 10
695243.77335871628019959
 20
5343449.16167079471051693
 10
695277.18741987878456712
 20
5343450.06883987598121166
 10
695275.97786110371816903
 20
5343430.75369818601757288
  0
LWPOLYLINE
  5
19c
  8
Other Places
100
AcDbEntity
100
AcDbPolyline
  6
CONTINUOUS
420
16712144
 90
     5
 70
   129
 43
253.99999999999997158
 10
695274.01232809410430491
 20
5343410.87157581932842731
 10
695231.09189093357417732
 20
5343408.52805569302290678
 10
695236.44040864217095077
 20
5343429.20395100489258766
 10
695275.97786110371816903
 20
5343430.75369818601757288
 10
695274.01232809410430491
 20
5343410.87157581932842731
  0
LWPOLYLINE
  5
19d
  8
Other Places
100
AcDbEntity
100
AcDbPolyline
  6
CONTINUOUS
420
16712144
 90
     7
 70
   129
 43
253.99999999999997158
 10
695231.09189093357417732
 20
5343408.52805569302290678
 10
695274.01232809410430491
 20
5343410.87157581932842731
 10
695275.4041363283758983
 20
5343394.87228490319103003
 10
695230.41151412262115628
 20
5343385.62203638907521963
 10
695230.03352700534742326
 20
5343389.47750498540699482
 10
695230.03352700534742326
 20
5343398.17120868153870106
 10
695231.09189093357417732
 20
5343408.52805569302290678
  0
LWPOLYLINE
  5
19e
  8
Other Places
100
AcDbEntity
100
AcDbPolyline
  6
CONTINUOUS
420
16712144
 90
     7
 70
   129
 43
253.99999999999997158
 10
695276.94172825268469751
 20
5343375.60537778306752443
 10
695233.81339817761909217
 20
5343363.81217972561717033
 10
695231.92346259148325771
 20
5343371.14512979984283447
 10
695230.63830639293882996
 20
5343378.17569017969071865
 10
695230.41151412262115628
 20
5343385.62203638907521963
 10
695275.4041363283758983
 20
5343394.87228490319103003
 10
695276.94172825268469751
 20
5343375.60537778306752443
  0
LWPOLYLINE
  5
19f
  8
Other Places
100
AcDbEntity
100
AcDbPolyline
  6
CONTINUOUS
420
16712144
 90
     6
 70
   129
 43
253.99999999999997158
 10
695282.00675562338437885
 20
5343358.97394462488591671
 10
695241.52433536888565868
 20
5343341.45424174144864082
 10
695237.29087965609505773
 20
5343351.81108875386416912
 10
695233.81339817761909217
 20
5343363.81217972561717033
 10
695276.94172825268469751
 20
5343375.60537778306752443
 10
695282.00675562338437885
 20
5343358.97394462488591671
  0
LWPOLYLINE
  5
1a0
  8
Other Places
100
AcDbEntity
100
AcDbPolyline
  6
CONTINUOUS
420
16712144
 90
     5
 70
   129
 43
253.99999999999997158
 10
695290.54435003083199263
 20
5343342.56906280945986509
 10
695251.42759784020017833
 20
5343321.57211937569081783
 10
695241.52433536888565868
 20
5343341.45424174144864082
 10
695282.00675562338437885
 20
5343358.97394462488591671
 10
695290.54435003083199263
 20
5343342.56906280945986509
  0
LWPOLYLINE
  5
1a1
  8
Other Places
100
AcDbEntity
100
AcDbPolyline
  6
CONTINUOUS
420
16712144
 90
     6
 70
   129
 43
253.99999999999997158
 10
695300.22573467355687171
 20
5343326.9584357962012291
 10
695264.24136111396364868
 20
5343301.576600874774158
 10
695257.13520331017207354
 20
5343311.85785046312958002
 10
695251.42759784020017833
 20
5343321.57211937569081783
 10
695290.54435003083199263
 20
5343342.56906280945986509
 10
695300.22573467355687171
 20
5343326.9584357962012291
  0
LWPOLYLINE
  5
1a2
  8
Other Places
100
AcDbEntity
100
AcDbPolyline
  6
CONTINUOUS
420
16712144
 90
     5
 70
   129
 43
253.99999999999997158
 10
695311.5598985388642177
 20
5343313.18836884573101997
 10
695279.96562519040890038
 20
5343282.07246562652289867
 10
695264.24136111396364868
 20
5343301.576600874774158
 10
695300.22573467355687171
 20
5343326.9584357962012291
 10
695311.5598985388642177
 20
5343313.18836884573101997
  0
LWPOLYLINE
  5
1a3
  8
Other Places
100
AcDbEntity
100
AcDbPolyline
  6
CONTINUOUS
420
16712144
 90
     6
 70
   129
 43
253.99999999999997158
 10
695323.57250081864185631
 20
5343299.688651442527771
 10
695295.4630969965364784
 20
5343267.12307513970881701
 10
695279.96562519040890038
 20
5343282.07246562652289867
 10
695311.5598985388642177
 20
5343313.18836884573101997
 10
695321.82769842282868922
 20
5343300.91512341983616352
 10
695323.57250081864185631
 20
5343299.688651442527771
  0
LWPOLYLINE
  5
1a4
  8
Other Places
100
AcDbEntity
100
AcDbPolyline
  6
CONTINUOUS
420
16712144
 90
     5
 70
   129
 43
253.99999999999997158
 10
695339.05200533743482083
 20
5343288.80766081903129816
 10
695313.45528377627488226
 20
5343252.4571749921888113
 10
695295.4630969965364784
 20
5343267.12307513970881701
 10
695323.57250081864185631
 20
5343299.688651442527771
 10
695339.05200533743482083
 20
5343288.80766081903129816
  0
LWPOLYLINE
  5
1a5
  8
Other Places
100
AcDbEntity
100
AcDbPolyline
  6
CONTINUOUS
420
16712144
 90
     6
 70
   129
 43
253.99999999999997158
 10
695354.04297183826565742
 20
5343278.81909550633281469
 10
695332.63812997541390359
 20
5343240.1725936820730567
 10
695324.47360824339557439
 20
5343244.78403651248663664
 10
695313.45528377627488226
 20
5343252.4571749921888113
 10
695339.05200533743482083
 20
5343288.80766081903129816
 10
695354.04297183826565742
 20
5343278.81909550633281469
  0
LWPOLYLINE
  5
1a6
  8
Other Places
100
AcDbEntity
100
AcDbPolyline
  6
CONTINUOUS
420
16712144
 90
     6
 70
   129
 43
253.99999999999997158
 10
695370.34853409370407462
 20
5343270.57974079065024853
 10
695352.82264203508384526
 20
5343229.66455182339996099
 10
695332.63812997541390359
 20
5343240.1725936820730567
 10
695354.04297183826565742
 20
5343278.81909550633281469
 10
695359.70200756855774671
 20
5343275.06080460175871849
 10
695370.34853409370407462
 20
5343270.57974079065024853
  0
LWPOLYLINE
  5
1a7
  8
Other Places
100
AcDbEntity
100
AcDbPolyline
  6
CONTINUOUS
420
16712144
 90
     6
 70
   129
 43
253.99999999999997158
 10
695387.46718218515161425
 20
5343263.97814471926540136
 10
695374.51910256361588836
 20
5343221.87801720853894949
 10
695352.82264203508384526
 20
5343229.66455182339996099
 10
695370.34853409370407462
 20
5343270.57974079065024853
 10
695382.12905272119678557
 20
5343265.62138600926846266
 10
695387.46718218515161425
 20
5343263.97814471926540136
  0
LWPOLYLINE
  5
1a8
  8
Other Places
100
AcDbEntity
100
AcDbPolyline
  6
CONTINUOUS
420
16712144
 90
     5
 70
   129
 43
253.99999999999997158
 10
695404.82704347174149007
 20
5343258.63424269389361143
 10
695396.13996566878631711
 20
5343216.35940529685467482
 10
695374.51910256361588836
 20
5343221.87801720853894949
 10
695387.46718218515161425
 20
5343263.97814471926540136
 10
695404.82704347174149007
 20
5343258.63424269389361143
  0
LWPOLYLINE
  5
1a9
  8
Other Places
100
AcDbEntity
100
AcDbPolyline
  6
CONTINUOUS
420
16712144
 90
     9
 70
   129
 43
253.99999999999997158
 10
695435.67356790229678154
 20
5343253.71971168275922537
 10
695432.35113149869721383
 20
5343215.90582075621932745
 10
695430.99037787667475641
 20
5343214.39387228712439537
 10
695429.17603971401695162
 20
5343213.41110578272491693
 10
695426.60572731692809612
 20
5343212.73072897177189589
 10
695423.95981749636121094
 20
5343212.80632639490067959
 10
695396.13996566878631711
 20
5343216.35940529685467482
 10
695404.82704347174149007
 20
5343258.63424269389361143
 10
695435.67356790229678154
 20
5343253.71971168275922537
  0
LWPOLYLINE
  5
1aa
  8
Other Places
100
AcDbEntity
100
AcDbPolyline
  6
CONTINUOUS
420
16712144
 90
    11
 70
   129
 43
253.99999999999997158
 10
695487.02735991682857275
 20
5343244.80376070272177458
 10
695484.54422032204456627
 20
5343214.55328713729977608
 10
695447.14498788316268474
 20
5343213.54249707143753767
 10
695444.70514979294966906
 20
5343213.96075502969324589
 10
695443.62465006730053574
 20
5343214.69270645640790462
 10
695442.57900517154484987
 20
5343215.70349652227014303
 10
695441.88190857437439263
 20
5343217.13254454731941223
 10
695441.84705374448094517
 20
5343218.94499569945037365
 10
695442.09103755350224674
 20
5343220.75744685251265764
 10
695444.49602081382181495
 20
5343243.06453796196728945
 10
695487.02735991682857275
 20
5343244.80376070272177458
  0
LWPOLYLINE
  5
1ab
  8
Other Places
100
AcDbEntity
100
AcDbPolyline
  6
CONTINUOUS
420
16712144
 90
     5
 70
   129
 43
253.99999999999997158
 10
695488.53618130995891988
 20
5343263.37120364978909492
 10
695487.02735991682857275
 20
5343244.80376070272177458
 10
695444.49602081382181495
 20
5343243.06453796196728945
 10
695445.01884326164145023
 20
5343260.97992051113396883
 10
695488.53618130995891988
 20
5343263.37120364978909492
  0
LWPOLYLINE
  5
1ac
  8
Other Places
100
AcDbEntity
100
AcDbPolyline
  6
CONTINUOUS
420
16712144
 90
     5
 70
   129
 43
253.99999999999997158
 10
695490.03008913865778595
 20
5343281.75512139219790697
 10
695488.53618130995891988
 20
5343263.37120364978909492
 10
695445.01884326164145023
 20
5343260.97992051113396883
 10
695446.62216543511021882
 20
5343279.87123829498887062
 10
695490.03008913865778595
 20
5343281.75512139219790697
  0
LWPOLYLINE
  5
1ad
  8
Other Places
100
AcDbEntity
100
AcDbPolyline
  6
CONTINUOUS
420
16712144
 90
     5
 70
   129
 43
253.99999999999997158
 10
695491.4747208256740123
 20
5343299.53265062719583511
 10
695490.03008913865778595
 20
5343281.75512139219790697
 10
695446.62216543511021882
 20
5343279.87123829498887062
 10
695447.5283910115249455
 20
5343297.36836288403719664
 10
695491.4747208256740123
 20
5343299.53265062719583511
  0
LWPOLYLINE
  5
1ae
  8
Other Places
100
AcDbEntity
100
AcDbPolyline
  6
CONTINUOUS
420
16712144
 90
     5
 70
   129
 43
253.99999999999997158
 10
695498.39961848058737814
 20
5343384.74992200825363398
 10
695453.7325507263885811
 20
5343382.76269603986293077
 10
695454.77819562226068228
 20
5343401.93285246193408966
 10
695499.9175483729923144
 20
5343403.42945346515625715
 10
695498.39961848058737814
 20
5343384.74992200825363398
  0
LWPOLYLINE
  5
1af
  8
Other Places
100
AcDbEntity
100
AcDbPolyline
  6
CONTINUOUS
420
16712144
 90
     5
 70
   129
 43
253.99999999999997158
 10
695452.61719617084600031
 20
5343372.48052123188972473
 10
695497.56884834403172135
 20
5343374.52652699127793312
 10
695496.73807820759247988
 20
5343364.30313197430223227
 10
695451.50184161541983485
 20
5343362.19834642298519611
 10
695452.61719617084600031
 20
5343372.48052123188972473
  0
LWPOLYLINE
  5
1b0
  8
Other Places
100
AcDbEntity
100
AcDbPolyline
  6
CONTINUOUS
420
16712144
 90
     5
 70
   129
 43
253.99999999999997158
 10
695453.7325507263885811
 20
5343382.76269603986293077
 10
695498.39961848058737814
 20
5343384.74992200825363398
 10
695497.56884834403172135
 20
5343374.52652699127793312
 10
695452.61719617084600031
 20
5343372.48052123188972473
 10
695453.7325507263885811
 20
5343382.76269603986293077
  0
LWPOLYLINE
  5
1b1
  8
Other Places
100
AcDbEntity
100
AcDbPolyline
  6
CONTINUOUS
420
16712144
 90
     5
 70
   129
 43
253.99999999999997158
 10
695501.43627119204029441
 20
5343422.11874261777848005
 10
695499.9175483729923144
 20
5343403.42945346515625715
 10
695454.77819562226068228
 20
5343401.93285246193408966
 10
695456.06782432785257697
 20
5343420.73122403584420681
 10
695501.43627119204029441
 20
5343422.11874261777848005
  0
LWPOLYLINE
  5
1b2
  8
Other Places
100
AcDbEntity
100
AcDbPolyline
  6
CONTINUOUS
420
16712144
 90
     5
 70
   129
 43
253.99999999999997158
 10
695502.90884880826342851
 20
5343440.2401723638176918
 10
695501.43627119204029441
 20
5343422.11874261777848005
 10
695456.06782432785257697
 20
5343420.73122403584420681
 10
695457.49299959314521402
 20
5343438.514932781457901
 10
695502.90884880826342851
 20
5343440.2401723638176918
  0
LWPOLYLINE
  5
1b3
  8
Other Places
100
AcDbEntity
100
AcDbPolyline
  6
CONTINUOUS
420
16712144
 90
     5
 70
   129
 43
253.99999999999997158
 10
695504.40184202697128057
 20
5343458.61283498257398605
 10
695502.90884880826342851
 20
5343440.2401723638176918
 10
695457.49299959314521402
 20
5343438.514932781457901
 10
695458.67031829059123993
 20
5343457.22810365725308657
 10
695504.40184202697128057
 20
5343458.61283498257398605
  0
LWPOLYLINE
  5
1b4
  8
Other Places
100
AcDbEntity
100
AcDbPolyline
  6
CONTINUOUS
420
16712144
 90
     9
 70
   129
 43
253.99999999999997158
 10
695458.67031829059123993
 20
5343457.22810365725308657
 10
695460.46727840788662434
 20
5343480.83644174877554178
 10
695461.14888396952301264
 20
5343483.19107914343476295
 10
695461.83048953115940094
 20
5343484.80214683525264263
 10
695462.57405923493206501
 20
5343485.73160896450281143
 10
695463.87530621630139649
 20
5343486.4751786682754755
 10
695507.00234902871306986
 20
5343488.02428221702575684
 10
695504.40184202697128057
 20
5343458.61283498257398605
 10
695458.67031829059123993
 20
5343457.22810365725308657
  0
LWPOLYLINE
  5
1b5
  8
Other Places
100
AcDbEntity
100
AcDbPolyline
  6
CONTINUOUS
420
16712144
 90
     5
 70
   129
 43
253.99999999999997158
 10
695175.98990261449944228
 20
5343385.22577068861573935
 10
695220.23229998245369643
 20
5343392.53753944113850594
 10
695222.21515252557583153
 20
5343374.19615341816097498
 10
695180.07953598466701806
 20
5343363.78617756627500057
 10
695175.98990261449944228
 20
5343385.22577068861573935
  0
LWPOLYLINE
  5
1b6
  8
Other Places
100
AcDbEntity
100
AcDbPolyline
  6
CONTINUOUS
420
16712144
 90
     5
 70
   129
 43
253.99999999999997158
 10
695180.07953598466701806
 20
5343363.78617756627500057
 10
695222.21515252557583153
 20
5343374.19615341816097498
 10
695226.42871417966671288
 20
5343356.47440881375223398
 10
695185.90416533011011779
 20
5343343.58586728386580944
 10
695180.07953598466701806
 20
5343363.78617756627500057
  0
LWPOLYLINE
  5
1b7
  8
Other Places
100
AcDbEntity
100
AcDbPolyline
  6
CONTINUOUS
420
16712144
 90
     5
 70
   129
 43
253.99999999999997158
 10
695185.90416533011011779
 20
5343343.58586728386580944
 10
695226.42871417966671288
 20
5343356.47440881375223398
 10
695232.7490566608030349
 20
5343339.74409048166126013
 10
695193.71164721855893731
 20
5343322.88984386529773474
 10
695185.90416533011011779
 20
5343343.58586728386580944
  0
LWPOLYLINE
  5
1b8
  8
Other Places
100
AcDbEntity
100
AcDbPolyline
  6
CONTINUOUS
420
16712144
 90
     5
 70
   129
 43
253.99999999999997158
 10
695193.71164721855893731
 20
5343322.88984386529773474
 10
695232.7490566608030349
 20
5343339.74409048166126013
 10
695239.81296884559560567
 20
5343323.63341356907039881
 10
695202.63448366243392229
 20
5343303.6809598533436656
 10
695193.71164721855893731
 20
5343322.88984386529773474
  0
LWPOLYLINE
  5
1b9
  8
Other Places
100
AcDbEntity
100
AcDbPolyline
  6
CONTINUOUS
420
16712144
 90
     5
 70
   129
 43
253.99999999999997158
 10
695202.63448366243392229
 20
5343303.6809598533436656
 10
695239.81296884559560567
 20
5343323.63341356907039881
 10
695249.10759014147333801
 20
5343307.77059322409331799
 10
695213.16838779766112566
 20
5343285.09171726182103157
 10
695202.63448366243392229
 20
5343303.6809598533436656
  0
LWPOLYLINE
  5
1ba
  8
Other Places
100
AcDbEntity
100
AcDbPolyline
  6
CONTINUOUS
420
16712144
 90
     5
 70
   129
 43
253.99999999999997158
 10
695213.16838779766112566
 20
5343285.09171726182103157
 10
695249.10759014147333801
 20
5343307.77059322409331799
 10
695256.26444853923749179
 20
5343297.48454565647989511
 10
695219.70560477580875158
 20
5343274.92959797848016024
 10
695213.16838779766112566
 20
5343285.09171726182103157
  0
LWPOLYLINE
  5
1bb
  8
Other Places
100
AcDbEntity
100
AcDbPolyline
  6
CONTINUOUS
420
16712144
 90
     5
 70
   129
 43
253.99999999999997158
 10
695219.70560477580875158
 20
5343274.92959797848016024
 10
695256.26444853923749179
 20
5343297.48454565647989511
 10
695261.84122131671756506
 20
5343289.92492033634334803
 10
695226.89344524452462792
 20
5343265.01533526368439198
 10
695219.70560477580875158
 20
5343274.92959797848016024
  0
LWPOLYLINE
  5
1bc
  8
Other Places
100
AcDbEntity
100
AcDbPolyline
  6
CONTINUOUS
420
16712144
 90
     5
 70
   129
 43
253.99999999999997158
 10
695226.89344524452462792
 20
5343265.01533526368439198
 10
695261.84122131671756506
 20
5343289.92492033634334803
 10
695267.0462092423113063
 20
5343283.604577855207026
 10
695234.32914228120353073
 20
5343255.72071396745741367
 10
695226.89344524452462792
 20
5343265.01533526368439198
  0
LWPOLYLINE
  5
1bd
  8
Other Places
100
AcDbEntity
100
AcDbPolyline
  6
CONTINUOUS
420
16712144
 90
     5
 70
   129
 43
253.99999999999997158
 10
695234.32914228120353073
 20
5343255.72071396745741367
 10
695267.0462092423113063
 20
5343283.604577855207026
 10
695274.60583456291351467
 20
5343275.54923939891159534
 10
695242.63233730546198785
 20
5343246.42609267216175795
 10
695234.32914228120353073
 20
5343255.72071396745741367
  0
LWPOLYLINE
  5
1be
  8
Other Places
100
AcDbEntity
100
AcDbPolyline
  6
CONTINUOUS
420
16712144
 90
     5
 70
   129
 43
253.99999999999997158
 10
695242.63233730546198785
 20
5343246.42609267216175795
 10
695274.60583456291351467
 20
5343275.54923939891159534
 10
695281.4218901798594743
 20
5343267.74175751022994518
 10
695250.81160404568072408
 20
5343237.25539966020733118
 10
695242.63233730546198785
 20
5343246.42609267216175795
  0
LWPOLYLINE
  5
1bf
  8
Other Places
100
AcDbEntity
100
AcDbPolyline
  6
CONTINUOUS
420
16712144
 90
     5
 70
   129
 43
253.99999999999997158
 10
695250.81160404568072408
 20
5343237.25539966020733118
 10
695281.4218901798594743
 20
5343267.74175751022994518
 10
695287.37044780910946429
 20
5343262.16498473286628723
 10
695259.23872735386248678
 20
5343228.45649150013923645
 10
695250.81160404568072408
 20
5343237.25539966020733118
  0
LWPOLYLINE
  5
1c0
  8
Other Places
100
AcDbEntity
100
AcDbPolyline
  6
CONTINUOUS
420
16712144
 90
     5
 70
   129
 43
253.99999999999997158
 10
695259.23872735386248678
 20
5343228.45649150013923645
 10
695287.37044780910946429
 20
5343262.16498473286628723
 10
695296.04542768525425345
 20
5343254.7292876960709691
 10
695268.40942036570049822
 20
5343221.02079446334391832
 10
695259.23872735386248678
 20
5343228.45649150013923645
  0
LWPOLYLINE
  5
1c1
  8
Other Places
100
AcDbEntity
100
AcDbPolyline
  6
CONTINUOUS
420
16712144
 90
     5
 70
   129
 43
253.99999999999997158
 10
695268.40942036570049822
 20
5343221.02079446334391832
 10
695296.04542768525425345
 20
5343254.7292876960709691
 10
695304.22469442547298968
 20
5343248.03716036304831505
 10
695278.32368308119475842
 20
5343213.3372408589348197
 10
695268.40942036570049822
 20
5343221.02079446334391832
  0
LWPOLYLINE
  5
1c2
  8
Other Places
100
AcDbEntity
100
AcDbPolyline
  6
CONTINUOUS
420
16712144
 90
     5
 70
   129
 43
253.99999999999997158
 10
695278.32368308119475842
 20
5343213.3372408589348197
 10
695304.22469442547298968
 20
5343248.03716036304831505
 10
695319.09608849883079529
 20
5343237.87504107970744371
 10
695296.04542768525425345
 20
5343201.56405388377606869
 10
695278.32368308119475842
 20
5343213.3372408589348197
  0
LWPOLYLINE
  5
1c3
  8
Other Places
100
AcDbEntity
100
AcDbPolyline
  6
CONTINUOUS
420
16712144
 90
     5
 70
   129
 43
253.99999999999997158
 10
695296.04542768525425345
 20
5343201.56405388377606869
 10
695319.09608849883079529
 20
5343237.87504107970744371
 10
695334.21533913991879672
 20
5343229.20006120391190052
 10
695314.75859856070019305
 20
5343190.78229318093508482
 10
695296.04542768525425345
 20
5343201.56405388377606869
  0
LWPOLYLINE
  5
1c4
  8
Other Places
100
AcDbEntity
100
AcDbPolyline
  6
CONTINUOUS
420
16712144
 90
     5
 70
   129
 43
253.99999999999997158
 10
695314.75859856070019305
 20
5343190.78229318093508482
 10
695334.21533913991879672
 20
5343229.20006120391190052
 10
695350.41896226548124105
 20
5343222.01222073473036289
 10
695333.93650050100404769
 20
5343181.73552845325320959
 10
695314.75859856070019305
 20
5343190.78229318093508482
  0
LWPOLYLINE
  5
1c5
  8
Other Places
100
AcDbEntity
100
AcDbPolyline
  6
CONTINUOUS
420
16712144
 90
     5
 70
   129
 43
253.99999999999997158
 10
695333.93650050100404769
 20
5343181.73552845325320959
 10
695350.41896226548124105
 20
5343222.01222073473036289
 10
695367.14928059792146087
 20
5343215.1961651174351573
 10
695353.39324108022265136
 20
5343174.17590313218533993
 10
695333.93650050100404769
 20
5343181.73552845325320959
  0
LWPOLYLINE
  5
1c6
  8
Other Places
100
AcDbEntity
100
AcDbPolyline
  6
CONTINUOUS
420
16712144
 90
     5
 70
   129
 43
253.99999999999997158
 10
695353.39324108022265136
 20
5343174.17590313218533993
 10
695367.14928059792146087
 20
5343215.1961651174351573
 10
695378.05496958503499627
 20
5343211.47831659950315952
 10
695365.29035633883904666
 20
5343171.20162431802600622
 10
695353.39324108022265136
 20
5343174.17590313218533993
  0
LWPOLYLINE
  5
1c7
  8
Other Places
100
AcDbEntity
100
AcDbPolyline
  6
CONTINUOUS
420
16712144
 90
     5
 70
   129
 43
253.99999999999997158
 10
695365.29035633883904666
 20
5343171.20162431802600622
 10
695378.05496958503499627
 20
5343211.47831659950315952
 10
695387.34959088079631329
 20
5343209.61939234007149935
 10
695377.18747159745544195
 20
5343167.60770408343523741
 10
695365.29035633883904666
 20
5343171.20162431802600622
  0
LWPOLYLINE
  5
1c8
  8
Other Places
100
AcDbEntity
100
AcDbPolyline
  6
CONTINUOUS
420
16712144
 90
     5
 70
   129
 43
253.99999999999997158
 10
695377.18747159745544195
 20
5343167.60770408343523741
 10
695387.34959088079631329
 20
5343209.61939234007149935
 10
695398.50313643575645983
 20
5343207.14082666113972664
 10
695389.08458685607183725
 20
5343165.25306668877601624
 10
695377.18747159745544195
 20
5343167.60770408343523741
  0
LWPOLYLINE
  5
1c9
  8
Other Places
100
AcDbEntity
100
AcDbPolyline
  6
CONTINUOUS
420
16712144
 90
     5
 70
   129
 43
253.99999999999997158
 10
695389.08458685607183725
 20
5343165.25306668877601624
 10
695398.50313643575645983
 20
5343207.14082666113972664
 10
695406.55847489205189049
 20
5343205.52975897025316954
 10
695400.98170211457181722
 20
5343163.14628586173057556
 10
695389.08458685607183725
 20
5343165.25306668877601624
  0
LWPOLYLINE
  5
1ca
  8
Other Places
100
AcDbEntity
100
AcDbPolyline
  6
CONTINUOUS
420
16712144
 90
     5
 70
   129
 43
253.99999999999997158
 10
695400.98170211457181722
 20
5343163.14628586173057556
 10
695406.55847489205189049
 20
5343205.52975897025316954
 10
695416.59666589158587158
 20
5343204.41440441459417343
 10
695412.87881737318821251
 20
5343162.27878787368535995
 10
695400.98170211457181722
 20
5343163.14628586173057556
  0
LWPOLYLINE
  5
1cb
  8
Other Places
100
AcDbEntity
100
AcDbPolyline
  6
CONTINUOUS
420
16712144
 90
     5
 70
   129
 43
253.99999999999997158
 10
695412.87881737318821251
 20
5343162.27878787368535995
 10
695416.59666589158587158
 20
5343204.41440441459417343
 10
695426.01521547127049416
 20
5343204.29047613125294447
 10
695425.14771748369093984
 20
5343161.03950503468513489
 10
695412.87881737318821251
 20
5343162.27878787368535995
  0
LWPOLYLINE
  5
1cc
  8
Other Places
100
AcDbEntity
100
AcDbPolyline
  6
CONTINUOUS
420
16712144
 90
     5
 70
   129
 43
253.99999999999997158
 10
695425.14771748369093984
 20
5343161.03950503468513489
 10
695426.01521547127049416
 20
5343204.29047613125294447
 10
695444.97624291467946023
 20
5343203.91869127936661243
 10
695445.34802776656579226
 20
5343160.91557675041258335
 10
695425.14771748369093984
 20
5343161.03950503468513489
  0
LWPOLYLINE
  5
1cd
  8
Other Places
100
AcDbEntity
100
AcDbPolyline
  6
CONTINUOUS
420
16712144
 90
     5
 70
   129
 43
253.99999999999997158
 10
695445.34802776656579226
 20
5343160.91557675041258335
 10
695444.97624291467946023
 20
5343203.91869127936661243
 10
695464.4329834938980639
 20
5343205.03404583409428596
 10
695461.95441781496629119
 20
5343161.65914645418524742
 10
695445.34802776656579226
 20
5343160.91557675041258335
  0
LWPOLYLINE
  5
1ce
  8
Other Places
100
AcDbEntity
100
AcDbPolyline
  6
CONTINUOUS
420
16712144
 90
     5
 70
   129
 43
253.99999999999997158
 10
695461.95441781496629119
 20
5343161.65914645418524742
 10
695464.4329834938980639
 20
5343205.03404583409428596
 10
695484.15823535493109375
 20
5343205.65368725173175335
 10
695480.00804601074196398
 20
5343162.08309647254645824
 10
695461.95441781496629119
 20
5343161.65914645418524742
  0
LWPOLYLINE
  5
1cf
  8
Other Places
100
AcDbEntity
100
AcDbPolyline
  6
CONTINUOUS
420
16712144
 90
    25
 70
   129
 43
253.99999999999997158
 10
695175.98990261449944228
 20
5343385.22577068861573935
 10
695173.09824266331270337
 20
5343435.33410682342946529
 10
695173.09824266331270337
 20
5343463.25928013864904642
 10
695176.98132889345288277
 20
5343475.56948967650532722
 10
695231.014060691697523
 20
5343477.4697233634069562
 10
695232.83167552284430712
 20
5343477.38710450753569603
 10
695234.89714692183770239
 20
5343476.47829709202051163
 10
695236.54952404100913554
 20
5343474.99115768447518349
 10
695237.62356916849967092
 20
5343473.33878056518733501
 10
695238.11928230430930853
 20
5343471.35592802241444588
 10
695238.03666344832163304
 20
5343468.05117378383874893
 10
695237.70618802448734641
 20
5343464.58118183352053165
 10
695237.04523717681877315
 20
5343460.03714475594460964
 10
695236.3016674731625244
 20
5343456.07143966946750879
 10
695235.39286005764734
 20
5343451.52740259189158678
 10
695233.82310179434716702
 20
5343446.40503352228552103
 10
695232.00548696320038289
 20
5343441.86099644470959902
 10
695228.78335158072877675
 20
5343433.18601656891405582
 10
695226.71788018173538148
 20
5343426.74174580350518227
 10
695225.1481219184352085
 20
5343421.94985215831547976
 10
695223.99145793495699763
 20
5343416.95141137205064297
 10
695222.79348452354315668
 20
5343410.46583117917180061
 10
695221.88467710802797228
 20
5343404.39334526658058167
 10
695220.23229998245369643
 20
5343392.53753944113850594
 10
695175.98990261449944228
 20
5343385.22577068861573935
  0
LWPOLYLINE
  5
1d0
  8
Other Places
100
AcDbEntity
100
AcDbPolyline
  6
CONTINUOUS
420
16712144
 90
     5
 70
   129
 43
253.99999999999997158
 10
695171.48717497265897691
 20
5343525.67782581690698862
 10
695191.74944939708802849
 20
5343526.54532380495220423
 10
695191.99730596493463963
 20
5343484.96738454233855009
 10
695172.04485225048847497
 20
5343484.16185069642961025
 10
695171.48717497265897691
 20
5343525.67782581690698862
  0
LWPOLYLINE
  5
1d1
  8
Other Places
100
AcDbEntity
100
AcDbPolyline
  6
CONTINUOUS
420
16712144
 90
     5
 70
   129
 43
253.99999999999997158
 10
695191.74944939708802849
 20
5343526.54532380495220423
 10
695211.14422583382111043
 20
5343527.04103694017976522
 10
695212.32154453126713634
 20
5343485.52506181970238686
 10
695191.99730596493463963
 20
5343484.96738454233855009
 10
695191.74944939708802849
 20
5343526.54532380495220423
  0
LWPOLYLINE
  5
1d2
  8
Other Places
100
AcDbEntity
100
AcDbPolyline
  6
CONTINUOUS
420
16712144
 90
     5
 70
   129
 43
253.99999999999997158
 10
695211.14422583382111043
 20
5343527.04103694017976522
 10
695231.1431526547530666
 20
5343527.47478593420237303
 10
695232.13457892625592649
 20
5343486.45452394988387823
 10
695212.32154453126713634
 20
5343485.52506181970238686
 10
695211.14422583382111043
 20
5343527.04103694017976522
  0
LWPOLYLINE
  5
1d3
  8
Other Places
100
AcDbEntity
100
AcDbPolyline
  6
CONTINUOUS
420
16712144
 90
     5
 70
   129
 43
253.99999999999997158
 10
695231.1431526547530666
 20
5343527.47478593420237303
 10
695250.59989323350600898
 20
5343528.4662122055888176
 10
695252.27292506664525717
 20
5343486.95023708511143923
 10
695232.13457892625592649
 20
5343486.45452394988387823
 10
695231.1431526547530666
 20
5343527.47478593420237303
  0
LWPOLYLINE
  5
1d4
  8
Other Places
100
AcDbEntity
100
AcDbPolyline
  6
CONTINUOUS
420
16712144
 90
     5
 70
   129
 43
253.99999999999997158
 10
695250.59989323350600898
 20
5343528.4662122055888176
 10
695270.6143110899720341
 20
5343529.3337101936340332
 10
695271.23395250958856195
 20
5343488.06559164077043533
 10
695252.27292506664525717
 20
5343486.95023708511143923
 10
695250.59989323350600898
 20
5343528.4662122055888176
  0
LWPOLYLINE
  5
1d5
  8
Other Places
100
AcDbEntity
100
AcDbPolyline
  6
CONTINUOUS
420
16712144
 90
     5
 70
   129
 43
253.99999999999997158
 10
695270.6143110899720341
 20
5343529.3337101936340332
 10
695290.22596202371641994
 20
5343530.0772798964753747
 10
695290.47381859156303108
 20
5343488.49934063479304314
 10
695271.23395250958856195
 20
5343488.06559164077043533
 10
695270.6143110899720341
 20
5343529.3337101936340332
  0
LWPOLYLINE
  5
1d6
  8
Other Places
100
AcDbEntity
100
AcDbPolyline
  6
CONTINUOUS
420
16712144
 90
     5
 70
   129
 43
253.99999999999997158
 10
695290.22596202371641994
 20
5343530.0772798964753747
 10
695301.0077227265574038
 20
5343530.5110288904979825
 10
695301.56540000427048653
 20
5343488.93308962881565094
 10
695290.47381859156303108
 20
5343488.49934063479304314
 10
695290.22596202371641994
 20
5343530.0772798964753747
  0
LWPOLYLINE
  5
1d7
  8
Other Places
100
AcDbEntity
100
AcDbPolyline
  6
CONTINUOUS
420
16712144
 90
     5
 70
   129
 43
253.99999999999997158
 10
695301.0077227265574038
 20
5343530.5110288904979825
 10
695311.6655551454750821
 20
5343530.94477788452059031
 10
695312.40912484913133085
 20
5343489.61469519045203924
 10
695301.56540000427048653
 20
5343488.93308962881565094
 10
695301.0077227265574038
 20
5343530.5110288904979825
  0
LWPOLYLINE
  5
1d8
  8
Other Places
100
AcDbEntity
100
AcDbPolyline
  6
CONTINUOUS
420
16712144
 90
     5
 70
   129
 43
253.99999999999997158
 10
695311.6655551454750821
 20
5343530.94477788452059031
 10
695322.3233875643927604
 20
5343531.37852687854319811
 10
695323.25284969399217516
 20
5343489.49076690617948771
 10
695312.40912484913133085
 20
5343489.61469519045203924
 10
695311.6655551454750821
 20
5343530.94477788452059031
  0
LWPOLYLINE
  5
1d9
  8
Other Places
100
AcDbEntity
100
AcDbPolyline
  6
CONTINUOUS
420
16712144
 90
     5
 70
   129
 43
253.99999999999997158
 10
695322.3233875643927604
 20
5343531.37852687854319811
 10
695333.07416619639843702
 20
5343531.81227587163448334
 10
695333.63184347411151975
 20
5343490.23433660995215178
 10
695323.25284969399217516
 20
5343489.49076690617948771
 10
695322.3233875643927604
 20
5343531.37852687854319811
  0
LWPOLYLINE
  5
1da
  8
Other Places
100
AcDbEntity
100
AcDbPolyline
  6
CONTINUOUS
420
16712144
 90
     5
 70
   129
 43
253.99999999999997158
 10
695333.07416619639843702
 20
5343531.81227587163448334
 10
695343.73199861531611532
 20
5343531.87424001377075911
 10
695344.28967589302919805
 20
5343490.29630075208842754
 10
695333.63184347411151975
 20
5343490.23433660995215178
 10
695333.07416619639843702
 20
5343531.81227587163448334
  0
LWPOLYLINE
  5
1db
  8
Other Places
100
AcDbEntity
100
AcDbPolyline
  6
CONTINUOUS
420
16712144
 90
     5
 70
   129
 43
253.99999999999997158
 10
695343.73199861531611532
 20
5343531.87424001377075911
 10
695354.0180461824638769
 20
5343532.24602486565709114
 10
695354.88554417004343122
 20
5343490.66808560397475958
 10
695344.28967589302919805
 20
5343490.29630075208842754
 10
695343.73199861531611532
 20
5343531.87424001377075911
  0
LWPOLYLINE
  5
1dc
  8
Other Places
100
AcDbEntity
100
AcDbPolyline
  6
CONTINUOUS
420
16712144
 90
     5
 70
   129
 43
253.99999999999997158
 10
695354.0180461824638769
 20
5343532.24602486565709114
 10
695364.48998617543838918
 20
5343532.67977385967969894
 10
695365.60534073086455464
 20
5343491.10183459706604481
 10
695354.88554417004343122
 20
5343490.66808560397475958
 10
695354.0180461824638769
 20
5343532.24602486565709114
  0
LWPOLYLINE
  5
1dd
  8
Other Places
100
AcDbEntity
100
AcDbPolyline
  6
CONTINUOUS
420
16712144
 90
     5
 70
   129
 43
253.99999999999997158
 10
695364.48998617543838918
 20
5343532.67977385967969894
 10
695375.70549587206915021
 20
5343533.23745113704353571
 10
695375.82942415599245578
 20
5343491.41165530681610107
 10
695365.60534073086455464
 20
5343491.10183459706604481
 10
695364.48998617543838918
 20
5343532.67977385967969894
  0
LWPOLYLINE
  5
1de
  8
Other Places
100
AcDbEntity
100
AcDbPolyline
  6
CONTINUOUS
420
16712144
 90
     5
 70
   129
 43
253.99999999999997158
 10
695375.70549587206915021
 20
5343533.23745113704353571
 10
695394.97634402487892658
 20
5343533.91905669867992401
 10
695395.41009301866870373
 20
5343492.40308157913386822
 10
695375.82942415599245578
 20
5343491.41165530681610107
 10
695375.70549587206915021
 20
5343533.23745113704353571
  0
LWPOLYLINE
  5
1df
  8
Other Places
100
AcDbEntity
100
AcDbPolyline
  6
CONTINUOUS
420
16712144
 90
     5
 70
   129
 43
253.99999999999997158
 10
695394.97634402487892658
 20
5343533.91905669867992401
 10
695415.08370809443295002
 20
5343535.15833953861147165
 10
695415.88924194010905921
 20
5343493.64236441813409328
 10
695395.41009301866870373
 20
5343492.40308157913386822
 10
695394.97634402487892658
 20
5343533.91905669867992401
  0
LWPOLYLINE
  5
1e0
  8
Other Places
100
AcDbEntity
100
AcDbPolyline
  6
CONTINUOUS
420
16712144
 90
     5
 70
   129
 43
253.99999999999997158
 10
695415.08370809443295002
 20
5343535.15833953861147165
 10
695434.85026938305236399
 20
5343536.02583752572536469
 10
695435.84169565455522388
 20
5343494.07611341215670109
 10
695415.88924194010905921
 20
5343493.64236441813409328
 10
695415.08370809443295002
 20
5343535.15833953861147165
  0
LWPOLYLINE
  5
1e1
  8
Other Places
100
AcDbEntity
100
AcDbPolyline
  6
CONTINUOUS
420
16712144
 90
     5
 70
   129
 43
253.99999999999997158
 10
695434.85026938305236399
 20
5343536.02583752572536469
 10
695448.11059576470870525
 20
5343536.70744308736175299
 10
695449.10202203621156514
 20
5343494.69575483165681362
 10
695435.84169565455522388
 20
5343494.07611341215670109
 10
695434.85026938305236399
 20
5343536.02583752572536469
  0
LWPOLYLINE
  5
1e2
  8
Other Places
100
AcDbEntity
100
AcDbPolyline
  6
CONTINUOUS
420
16712144
 90
     5
 70
   129
 43
253.99999999999997158
 10
695448.11059576470870525
 20
5343536.70744308736175299
 10
695459.82181859714910388
 20
5343537.01726379711180925
 10
695460.87520901067182422
 20
5343495.00557554140686989
 10
695449.10202203621156514
 20
5343494.69575483165681362
 10
695448.11059576470870525
 20
5343536.70744308736175299
  0
LWPOLYLINE
  5
1e3
  8
Other Places
100
AcDbEntity
100
AcDbPolyline
  6
CONTINUOUS
420
16712144
 90
     5
 70
   129
 43
253.99999999999997158
 10
695459.82181859714910388
 20
5343537.01726379711180925
 10
695472.09071870730258524
 20
5343537.14119208138436079
 10
695473.33000154665205628
 20
5343495.87307352945208549
 10
695460.87520901067182422
 20
5343495.00557554140686989
 10
695459.82181859714910388
 20
5343537.01726379711180925
  0
LWPOLYLINE
  5
1e4
  8
Other Places
100
AcDbEntity
100
AcDbPolyline
  6
CONTINUOUS
420
16712144
 90
     5
 70
   129
 43
253.99999999999997158
 10
695472.09071870730258524
 20
5343537.14119208138436079
 10
695484.23569053353276104
 20
5343537.38904864899814129
 10
695485.04122437909245491
 20
5343495.99700181279331446
 10
695473.33000154665205628
 20
5343495.87307352945208549
 10
695472.09071870730258524
 20
5343537.14119208138436079
  0
LWPOLYLINE
  5
1e5
  8
Other Places
100
AcDbEntity
100
AcDbPolyline
  6
CONTINUOUS
420
16712144
 90
     5
 70
   129
 43
253.99999999999997158
 10
695484.23569053353276104
 20
5343537.38904864899814129
 10
695497.9917300509987399
 20
5343537.82279764302074909
 10
695496.56655478558968753
 20
5343496.74057151656597853
 10
695485.04122437909245491
 20
5343495.99700181279331446
 10
695484.23569053353276104
 20
5343537.38904864899814129
  0
LWPOLYLINE
  5
1e6
  8
Other Places
100
AcDbEntity
100
AcDbPolyline
  6
CONTINUOUS
420
16712144
 90
     5
 70
   129
 43
253.99999999999997158
 10
695497.9917300509987399
 20
5343537.82279764302074909
 10
695515.68249258364085108
 20
5343538.41145699471235275
 10
695513.38981933065224439
 20
5343497.08137429971247911
 10
695496.56655478558968753
 20
5343496.74057151656597853
 10
695497.9917300509987399
 20
5343537.82279764302074909
  0
LWPOLYLINE
  5
1e7
  8
Other Places
100
AcDbEntity
100
AcDbPolyline
  6
CONTINUOUS
420
16712144
 90
     5
 70
   129
 43
253.99999999999997158
 10
695598.52855040004942566
 20
5343541.69555652048438787
 10
695596.85551856679376215
 20
5343500.48940210975706577
 10
695583.84304875275120139
 20
5343499.93172483146190643
 10
695586.5075068575097248
 20
5343541.44769995287060738
 10
695598.52855040004942566
 20
5343541.69555652048438787
  0
LWPOLYLINE
  5
1e8
  8
Other Places
100
AcDbEntity
100
AcDbPolyline
  6
CONTINUOUS
420
16712144
 90
     5
 70
   129
 43
253.99999999999997158
 10
695598.52855040004942566
 20
5343541.69555652048438787
 10
695609.74406009702943265
 20
5343541.94341308902949095
 10
695607.63727926998399198
 20
5343500.73725867737084627
 10
695596.85551856679376215
 20
5343500.48940210975706577
 10
695598.52855040004942566
 20
5343541.69555652048438787
  0
LWPOLYLINE
  5
1e9
  8
Other Places
100
AcDbEntity
100
AcDbPolyline
  6
CONTINUOUS
420
16712144
 90
     5
 70
   129
 43
253.99999999999997158
 10
695609.74406009702943265
 20
5343541.94341308902949095
 10
695619.34850210265722126
 20
5343542.19126965664327145
 10
695618.23314754711464047
 20
5343501.04707938712090254
 10
695607.63727926998399198
 20
5343500.73725867737084627
 10
695609.74406009702943265
 20
5343541.94341308902949095
  0
LWPOLYLINE
  5
1ea
  8
Other Places
100
AcDbEntity
100
AcDbPolyline
  6
CONTINUOUS
420
16712144
 90
     5
 70
   129
 43
253.99999999999997158
 10
695619.34850210265722126
 20
5343542.19126965664327145
 10
695631.18365321925375611
 20
5343542.74894693400710821
 10
695628.95294410828500986
 20
5343501.29493595473468304
 10
695618.23314754711464047
 20
5343501.04707938712090254
 10
695619.34850210265722126
 20
5343542.19126965664327145
  0
LWPOLYLINE
  5
1eb
  8
Other Places
100
AcDbEntity
100
AcDbPolyline
  6
CONTINUOUS
420
16712144
 90
     5
 70
   129
 43
253.99999999999997158
 10
695631.18365321925375611
 20
5343542.74894693400710821
 10
695653.10346844187006354
 20
5343543.61644492205232382
 10
695652.60775530606042594
 20
5343502.10046980064362288
 10
695628.95294410828500986
 20
5343501.29493595473468304
 10
695631.18365321925375611
 20
5343542.74894693400710821
  0
LWPOLYLINE
  5
1ec
  8
Other Places
100
AcDbEntity
100
AcDbPolyline
  6
CONTINUOUS
420
16712144
 90
     5
 70
   129
 43
253.99999999999997158
 10
695653.10346844187006354
 20
5343543.61644492205232382
 10
695674.83739123842678964
 20
5343543.92626563180238008
 10
695674.89935538044665009
 20
5343502.90600364655256271
 10
695652.60775530606042594
 20
5343502.10046980064362288
 10
695653.10346844187006354
 20
5343543.61644492205232382
  0
LWPOLYLINE
  5
1ed
  8
Other Places
100
AcDbEntity
100
AcDbPolyline
  6
CONTINUOUS
420
16712144
 90
     5
 70
   129
 43
253.99999999999997158
 10
695674.83739123842678964
 20
5343543.92626563180238008
 10
695696.02912779280450195
 20
5343544.29805048368871212
 10
695696.33894850267097354
 20
5343503.71153749246150255
 10
695674.89935538044665009
 20
5343502.90600364655256271
 10
695674.83739123842678964
 20
5343543.92626563180238008
  0
LWPOLYLINE
  5
1ee
  8
Other Places
100
AcDbEntity
100
AcDbPolyline
  6
CONTINUOUS
420
16712144
 90
     5
 70
   129
 43
253.99999999999997158
 10
695696.02912779280450195
 20
5343544.29805048368871212
 10
695718.46014718664810061
 20
5343545.72322574909776449
 10
695719.32764517434407026
 20
5343504.82689204718917608
 10
695696.33894850267097354
 20
5343503.71153749246150255
 10
695696.02912779280450195
 20
5343544.29805048368871212
  0
LWPOLYLINE
  5
1ef
  8
Other Places
100
AcDbEntity
100
AcDbPolyline
  6
CONTINUOUS
420
16712144
 90
     5
 70
   129
 43
253.99999999999997158
 10
695718.46014718664810061
 20
5343545.72322574909776449
 10
695729.79958516755141318
 20
5343546.1569747431203723
 10
695730.4811907293042168
 20
5343505.07474861573427916
 10
695719.32764517434407026
 20
5343504.82689204718917608
 10
695718.46014718664810061
 20
5343545.72322574909776449
  0
LWPOLYLINE
  5
1f0
  8
Other Places
100
AcDbEntity
100
AcDbPolyline
  6
CONTINUOUS
420
16712144
 90
     5
 70
   129
 43
253.99999999999997158
 10
695729.79958516755141318
 20
5343546.1569747431203723
 10
695740.42643551563378423
 20
5343546.65268787834793329
 10
695740.98411279334686697
 20
5343505.75635417737066746
 10
695730.4811907293042168
 20
5343505.07474861573427916
 10
695729.79958516755141318
 20
5343546.1569747431203723
  0
LWPOLYLINE
  5
1f1
  8
Other Places
100
AcDbEntity
100
AcDbPolyline
  6
CONTINUOUS
420
16712144
 90
     7
 70
   129
 43
253.99999999999997158
 10
695740.42643551563378423
 20
5343546.65268787834793329
 10
695769.11583324859384447
 20
5343548.0158990016207099
 10
695756.16532757645472884
 20
5343504.39314305409789085
 10
695751.51801692857407033
 20
5343505.57046175096184015
 10
695745.13571030541788787
 20
5343506.12813902925699949
 10
695740.98411279334686697
 20
5343505.75635417737066746
 10
695740.42643551563378423
 20
5343546.65268787834793329
  0
LWPOLYLINE
  5
1f2
  8
Other Places
100
AcDbEntity
100
AcDbPolyline
  6
CONTINUOUS
420
16712144
 90
     8
 70
   129
 43
253.99999999999997158
 10
695768.60047565877903253
 20
5343546.27995764650404453
 10
695780.14545051963068545
 20
5343548.75946870539337397
 10
695794.89291630894877017
 20
5343535.37521403934806585
 10
695772.21404034714214504
 20
5343496.39976873900741339
 10
695766.14155443396884948
 20
5343500.17958140000700951
 10
695757.71443112578708678
 20
5343503.83546577580273151
 10
695756.16532757645472884
 20
5343504.39314305409789085
 10
695768.60047565877903253
 20
5343546.27995764650404453
  0
LWPOLYLINE
  5
1f3
  8
Other Places
100
AcDbEntity
100
AcDbPolyline
  6
CONTINUOUS
420
16712144
 90
     5
 70
   129
 43
253.99999999999997158
 10
695794.89291630894877017
 20
5343535.37521403934806585
 10
695816.76625842496287078
 20
5343516.47615073807537556
 10
695781.44669750100001693
 20
5343487.72478886321187019
 10
695772.21404034714214504
 20
5343496.39976873900741339
 10
695794.89291630894877017
 20
5343535.37521403934806585
  0
LWPOLYLINE
  5
1f4
  8
Other Places
100
AcDbEntity
100
AcDbPolyline
  6
CONTINUOUS
420
16712144
 90
     6
 70
   129
 43
253.99999999999997158
 10
695816.76625842496287078
 20
5343516.47615073807537556
 10
695836.25398107513319701
 20
5343498.44458542484790087
 10
695791.14408571959938854
 20
5343469.13554627168923616
 10
695787.30230891727842391
 20
5343478.43016756791621447
 10
695781.44669750100001693
 20
5343487.72478886321187019
 10
695816.76625842496287078
 20
5343516.47615073807537556
  0
LWPOLYLINE
  5
1f5
  8
Other Places
100
AcDbEntity
100
AcDbPolyline
  6
CONTINUOUS
420
16712144
 90
    20
 70
   129
 43
253.99999999999997158
 10
695791.14408571959938854
 20
5343469.13554627168923616
 10
695814.24631884787231684
 20
5343484.14565103780478239
 10
695827.91980397922452539
 20
5343450.43786642700433731
 10
695827.14525220461655408
 20
5343450.31393814366310835
 10
695825.41025622934103012
 20
5343449.47742222715169191
 10
695823.28798436711076647
 20
5343447.21573104709386826
 10
695821.84731806628406048
 20
5343445.79055578168481588
 10
695820.88687386573292315
 20
5343444.39636258687824011
 10
695819.94192070059943944
 20
5343443.23453492484986782
 10
695818.74911096761934459
 20
5343441.99525208584964275
 10
695817.41688191529829055
 20
5343441.37561066541820765
 10
695813.03291887091472745
 20
5343441.08128099236637354
 10
695798.00661444279830903
 20
5343440.60105889197438955
 10
695796.28710950305685401
 20
5343440.89538856688886881
 10
695794.7070238827727735
 20
5343441.54601205699145794
 10
695793.51421414979267865
 20
5343442.5219472935423255
 10
695792.80162651708815247
 20
5343444.25694326870143414
 10
695792.52278787840623409
 20
5343445.83702888991683722
 10
695792.27493131055962294
 20
5343462.19556237012147903
 10
695791.14408571959938854
 20
5343469.13554627168923616
  0
LWPOLYLINE
  5
1f6
  8
Other Places
100
AcDbEntity
100
AcDbPolyline
  6
CONTINUOUS
420
16712144
 90
    14
 70
   129
 43
253.99999999999997158
 10
695836.25398107513319701
 20
5343498.44458542484790087
 10
695862.27892070286907256
 20
5343493.14665128197520971
 10
695857.63161005487199873
 20
5343481.62132087536156178
 10
695860.79178129544015974
 20
5343479.7623966159299016
 10
695846.10627964814193547
 20
5343449.83371604327112436
 10
695844.06146296311635524
 20
5343445.92997509893029928
 10
695840.83158206276129931
 20
5343448.71836148668080568
 10
695838.08966878056526184
 20
5343450.34492021333426237
 10
695835.81248656299430877
 20
5343450.94907059799879789
 10
695833.72119677148293704
 20
5343451.25114579033106565
 10
695830.90957382950000465
 20
5343451.13496302347630262
 10
695827.91980397922452539
 20
5343450.43786642700433731
 10
695814.24631884787231684
 20
5343484.14565103780478239
 10
695836.25398107513319701
 20
5343498.44458542484790087
  0
LWPOLYLINE
  5
1f7
  8
Other Places
100
AcDbEntity
100
AcDbPolyline
  6
CONTINUOUS
420
16712144
 90
    12
 70
   129
 43
253.99999999999997158
 10
695860.79178129544015974
 20
5343479.7623966159299016
 10
695865.22996296442579478
 20
5343478.90264414995908737
 10
695870.45818744332063943
 20
5343475.88189222849905491
 10
695874.17603596160188317
 20
5343470.76985051576048136
 10
695878.12625001231208444
 20
5343464.49598114099353552
 10
695879.98517427139449865
 20
5343459.26775666233152151
 10
695874.40840149403084069
 20
5343445.67437301762402058
 10
695846.98926867137197405
 20
5343434.86937576066702604
 10
695846.64072037278674543
 20
5343440.56233130488544703
 10
695845.36270994460210204
 20
5343444.04781429003924131
 10
695844.06146296311635524
 20
5343445.92997509893029928
 10
695860.79178129544015974
 20
5343479.7623966159299016
  0
LWPOLYLINE
  5
1f8
  8
Other Places
100
AcDbEntity
100
AcDbPolyline
  6
CONTINUOUS
420
16712144
 90
    12
 70
   129
 43
253.99999999999997158
 10
695874.40840149403084069
 20
5343445.67437301762402058
 10
695880.44990533625241369
 20
5343437.19303108472377062
 10
695883.47065725736320019
 20
5343427.43367872387170792
 10
695880.21753980382345617
 20
5343418.13905742857605219
 10
695872.89802553341723979
 20
5343408.61207060050219297
 10
695863.37103870522696525
 20
5343403.96475995238870382
 10
695857.09716933057643473
 20
5343405.3589531471952796
 10
695840.48303376429248601
 20
5343425.92330276407301426
 10
695843.98303959600161761
 20
5343428.69716630596667528
 10
695845.87100954679772258
 20
5343431.80505530163645744
 10
695846.98926867137197405
 20
5343434.86937576066702604
 10
695874.40840149403084069
 20
5343445.67437301762402058
  0
LWPOLYLINE
  5
1f9
  8
Other Places
100
AcDbEntity
100
AcDbPolyline
  6
CONTINUOUS
420
16712144
 90
    15
 70
   129
 43
253.99999999999997158
 10
695857.09716933057643473
 20
5343405.3589531471952796
 10
695852.97268113074824214
 20
5343398.12657595053315163
 10
695847.39590835326816887
 20
5343392.66598593909293413
 10
695840.65730791387613863
 20
5343388.8319546552374959
 10
695821.37096872506663203
 20
5343388.25104082375764847
 10
695819.04731340112630278
 20
5343431.58721261564642191
 10
695823.01568100915756077
 20
5343427.41915587801486254
 10
695825.80464906722772866
 20
5343425.61391779128462076
 10
695828.8829107015626505
 20
5343424.15151557978242636
 10
695831.10490610485430807
 20
5343423.73035305179655552
 10
695834.6049119362141937
 20
5343423.7448758976534009
 10
695837.49495824507903308
 20
5343424.31126688327640295
 10
695839.29579112096689641
 20
5343425.00836347974836826
 10
695840.48303376429248601
 20
5343425.92330276407301426
 10
695857.09716933057643473
 20
5343405.3589531471952796
  0
LWPOLYLINE
  5
1fa
  8
Other Places
100
AcDbEntity
100
AcDbPolyline
  6
CONTINUOUS
420
16712144
 90
    12
 70
   129
 43
253.99999999999997158
 10
695820.75011706864461303
 20
5343387.88796968199312687
 10
695793.67953254724852741
 20
5343387.36514723394066095
 10
695792.75007041776552796
 20
5343426.51873943861573935
 10
695793.33098424877971411
 20
5343428.72621199674904346
 10
695794.08617222891189158
 20
5343430.46895348932594061
 10
695795.59654818940907717
 20
5343431.39841561857610941
 10
695797.57165521453134716
 20
5343432.32787774782627821
 10
695798.73348287644330412
 20
5343432.67642604652792215
 10
695816.56753748585470021
 20
5343432.85070019587874413
 10
695818.01982206327375025
 20
5343432.61833466403186321
 10
695819.04731340112630278
 20
5343431.58721261564642191
 10
695820.75011706864461303
 20
5343387.88796968199312687
  0
LWPOLYLINE
  5
1fb
  8
Other Places
100
AcDbEntity
100
AcDbPolyline
  6
CONTINUOUS
420
16712144
 90
     5
 70
   129
 43
253.99999999999997158
 10
695840.65730791387613863
 20
5343388.8319546552374959
 10
695841.1982839172706008
 20
5343369.35681847203522921
 10
695794.4347205274971202
 20
5343368.02071666065603495
 10
695793.67953254724852741
 20
5343387.36514723394066095
 10
695840.65730791387613863
 20
5343388.8319546552374959
  0
LWPOLYLINE
  5
1fc
  8
Other Places
100
AcDbEntity
100
AcDbPolyline
  6
CONTINUOUS
420
16712144
 90
     5
 70
   129
 43
253.99999999999997158
 10
695841.1982839172706008
 20
5343369.35681847203522921
 10
695841.25637530034873635
 20
5343349.19910853821784258
 10
695794.60899467673152685
 20
5343348.09537225961685181
 10
695794.4347205274971202
 20
5343368.02071666065603495
 10
695841.1982839172706008
 20
5343369.35681847203522921
  0
LWPOLYLINE
  5
1fd
  8
Other Places
100
AcDbEntity
100
AcDbPolyline
  6
CONTINUOUS
420
16712144
 90
    16
 70
   129
 43
253.99999999999997158
 10
695828.20033694989979267
 20
5343315.53515203762799501
 10
695828.22529809095431119
 20
5343314.01025323290377855
 10
695827.40838801627978683
 20
5343314.31886370573192835
 10
695825.78364464535843581
 20
5343314.84531686548143625
 10
695823.81398368743248284
 20
5343315.19931123033165932
 10
695820.90260694874450564
 20
5343315.53515203855931759
 10
695800.15309105045162141
 20
5343314.91793109197169542
 10
695799.58125399809796363
 20
5343315.04500599298626184
 10
695798.40127277898136526
 20
5343315.61684304475784302
 10
695797.33021290320903063
 20
5343316.50636734906584024
 10
695796.58591705735307187
 20
5343317.55019688885658979
 10
695795.96869611204601824
 20
5343318.62125676404684782
 10
695795.5965481890598312
 20
5343320.10984845645725727
 10
695794.60899467673152685
 20
5343348.09537225961685181
 10
695827.53971219621598721
 20
5343348.87455486599355936
 10
695828.20033694989979267
 20
5343315.53515203762799501
  0
LWPOLYLINE
  5
1fe
  8
Other Places
100
AcDbEntity
100
AcDbPolyline
  6
CONTINUOUS
420
16712144
 90
     8
 70
   129
 43
253.99999999999997158
 10
695797.43686505092773587
 20
5343279.26661391369998455
 10
695819.76574042753782123
 20
5343279.26661391369998455
 10
695834.33397009398322552
 20
5343263.74532249290496111
 10
695810.50742624700069427
 20
5343240.8718403996899724
 10
695805.19751076109241694
 20
5343246.18175588548183441
 10
695801.38526374555658549
 20
5343252.85318816266953945
 10
695797.84532008832320571
 20
5343261.97535066492855549
 10
695797.43686505092773587
 20
5343279.26661391369998455
  0
LWPOLYLINE
  5
1ff
  8
Other Places
100
AcDbEntity
100
AcDbPolyline
  6
CONTINUOUS
420
16712144
 90
     5
 70
   129
 43
253.99999999999997158
 10
695834.33397009398322552
 20
5343263.74532249290496111
 10
695847.40453128993976861
 20
5343250.40245793852955103
 10
695822.89722904737573117
 20
5343227.93743088282644749
 10
695810.50742624700069427
 20
5343240.8718403996899724
 10
695834.33397009398322552
 20
5343263.74532249290496111
  0
LWPOLYLINE
  5
200
  8
Other Places
100
AcDbEntity
100
AcDbPolyline
  6
CONTINUOUS
420
16712144
 90
     9
 70
   129
 43
253.99999999999997158
 10
695847.40453128993976861
 20
5343250.40245793852955103
 10
695864.42349118064157665
 20
5343232.83889133203774691
 10
695861.70045759819913656
 20
5343216.63684151601046324
 10
695846.99607625254429877
 20
5343216.50068983621895313
 10
695840.05234061717055738
 20
5343217.0452965535223484
 10
695833.24475666088983417
 20
5343219.76833013538271189
 10
695827.25408277940005064
 20
5343223.58057715091854334
 10
695822.89722904737573117
 20
5343227.93743088282644749
 10
695847.40453128993976861
 20
5343250.40245793852955103
  0
LWPOLYLINE
  5
201
  8
Other Places
100
AcDbEntity
100
AcDbPolyline
  6
CONTINUOUS
420
16712144
 90
     9
 70
   129
 43
253.99999999999997158
 10
695787.94028543203603476
 20
5343277.76894544344395399
 10
695788.8933471858035773
 20
5343277.78596440050750971
 10
695789.2167074236785993
 20
5343268.39149854145944118
 10
695789.33682115643750876
 20
5343264.3223014660179615
 10
695789.72727622045204043
 20
5343260.56277699209749699
 10
695790.79947069368790835
 20
5343255.03161502908915281
 10
695747.36708505265414715
 20
5343252.85318816266953945
 10
695746.27787161956075579
 20
5343277.36049040593206882
 10
695787.94028543203603476
 20
5343277.76894544344395399
  0
LWPOLYLINE
  5
202
  8
Other Places
100
AcDbEntity
100
AcDbPolyline
  6
CONTINUOUS
420
16712144
 90
     9
 70
   129
 43
253.99999999999997158
 10
695785.01302433072123677
 20
5343200.87728466000407934
 10
695785.82993440539576113
 20
5343172.69388708099722862
 10
695748.52437432506121695
 20
5343171.46852196846157312
 10
695748.25207096675876528
 20
5343180.99913950730115175
 10
695774.52934503799770027
 20
5343207.54871693719178438
 10
695777.79698533704504371
 20
5343204.6725127138197422
 10
695782.42614242725539953
 20
5343202.4770668875426054
 10
695784.9619674509158358
 20
5343202.57918064761906862
 10
695785.01302433072123677
 20
5343200.87728466000407934
  0
LWPOLYLINE
  5
203
  8
Other Places
100
AcDbEntity
100
AcDbPolyline
  6
CONTINUOUS
420
16712144
 90
     9
 70
   129
 43
253.99999999999997158
 10
695785.82993440539576113
 20
5343172.69388708099722862
 10
695784.9619674509158358
 20
5343202.57918064761906862
 10
695786.84468989004381001
 20
5343202.74086076486855745
 10
695789.75493203103542328
 20
5343203.36205280106514692
 10
695793.03959128970745951
 20
5343205.02140138950198889
 10
695795.86261126108001918
 20
5343207.05516709666699171
 10
695814.44731546170078218
 20
5343192.04444447346031666
 10
695814.95788425847422332
 20
5343173.56185403186827898
 10
695785.82993440539576113
 20
5343172.69388708099722862
  0
LWPOLYLINE
  5
204
  8
Other Places
100
AcDbEntity
100
AcDbPolyline
  6
CONTINUOUS
420
16712144
 90
    10
 70
   129
 43
253.99999999999997158
 10
695905.82140198186971247
 20
5343177.44217688776552677
 10
695879.31720844830852002
 20
5343176.89757017139345407
 10
695877.63800440588966012
 20
5343208.93859865516424179
 10
695894.7931159739382565
 20
5343209.75550873018801212
 10
695898.15152405865956098
 20
5343209.75550873018801212
 10
695900.69302206870634109
 20
5343209.52858926542103291
 10
695903.2345200787531212
 20
5343208.98398254904896021
 10
695904.59603686991613358
 20
5343207.89476911537349224
 10
695905.27679526549763978
 20
5343206.12479728739708662
 10
695905.82140198186971247
 20
5343177.44217688776552677
  0
LWPOLYLINE
  5
205
  8
Other Places
100
AcDbEntity
100
AcDbPolyline
  6
CONTINUOUS
420
16712144
 90
     5
 70
   129
 43
253.99999999999997158
 10
695748.52437432506121695
 20
5343171.46852196846157312
 10
695694.58207184076309204
 20
5343168.95538888778537512
 10
695693.49285840790253133
 20
5343192.10117433685809374
 10
695748.04429783835075796
 20
5343194.46113677509129047
 10
695748.52437432506121695
 20
5343171.46852196846157312
  0
LWPOLYLINE
  5
206
  8
Other Places
100
AcDbEntity
100
AcDbPolyline
  6
CONTINUOUS
420
16712144
 90
     5
 70
   129
 43
253.99999999999997158
 10
695748.04429783835075796
 20
5343194.46113677509129047
 10
695693.49285840790253133
 20
5343192.10117433685809374
 10
695693.4701664614258334
 20
5343212.70546177588403225
 10
695747.65853474766481668
 20
5343215.24695978593081236
 10
695748.04429783835075796
 20
5343194.46113677509129047
  0
LWPOLYLINE
  5
207
  8
Other Places
100
AcDbEntity
100
AcDbPolyline
  6
CONTINUOUS
420
16712144
 90
     5
 70
   129
 43
253.99999999999997158
 10
695747.65853474766481668
 20
5343215.24695978593081236
 10
695693.4701664614258334
 20
5343212.70546177588403225
 10
695692.92555974493734539
 20
5343234.12665928900241852
 10
695747.93083810585085303
 20
5343237.03122844360768795
 10
695747.65853474766481668
 20
5343215.24695978593081236
  0
LWPOLYLINE
  5
208
  8
Other Places
100
AcDbEntity
100
AcDbPolyline
  6
CONTINUOUS
420
16712144
 90
     8
 70
   129
 43
253.99999999999997158
 10
695747.93083810585085303
 20
5343237.03122844360768795
 10
695692.92555974493734539
 20
5343234.12665928900241852
 10
695693.03901947755366564
 20
5343240.29886874184012413
 10
695693.85592955222819
 20
5343246.01723926514387131
 10
695695.03591077111195773
 20
5343252.46175207663327456
 10
695695.48974970157723874
 20
5343256.00169573351740837
 10
695747.15029671997763216
 20
5343257.73092564754188061
 10
695747.93083810585085303
 20
5343237.03122844360768795
  0
LWPOLYLINE
  5
209
  8
Other Places
100
AcDbEntity
100
AcDbPolyline
  6
CONTINUOUS
420
16712144
 90
     8
 70
   129
 43
253.99999999999997158
 10
695746.27787161956075579
 20
5343277.36049040593206882
 10
695747.15029671997763216
 20
5343257.73092564754188061
 10
695695.48974970157723874
 20
5343256.00169573351740837
 10
695696.57896313443779945
 20
5343260.44931725040078163
 10
695696.66973092046100646
 20
5343267.43843677826225758
 10
695696.66973092046100646
 20
5343273.97371737565845251
 10
695746.04740654479246587
 20
5343278.96594560984522104
 10
695746.27787161956075579
 20
5343277.36049040593206882
  0
LWPOLYLINE
  5
20a
  8
Other Places
100
AcDbEntity
100
AcDbPolyline
  6
CONTINUOUS
420
16712144
 90
     7
 70
   129
 43
253.99999999999997158
 10
695746.04740654479246587
 20
5343278.96594560984522104
 10
695696.66973092046100646
 20
5343273.97371737565845251
 10
695694.85437519906554371
 20
5343282.32435369491577148
 10
695693.03901947755366564
 20
5343287.58888528682291508
 10
695691.4051993282046169
 20
5343291.85497123189270496
 10
695746.68278104730416089
 20
5343308.28394051175564528
 10
695746.04740654479246587
 20
5343278.96594560984522104
  0
LWPOLYLINE
  5
20b
  8
Other Places
100
AcDbEntity
100
AcDbPolyline
  6
CONTINUOUS
420
16712144
 90
    12
 70
   129
 43
253.99999999999997158
 10
695746.68278104730416089
 20
5343308.28394051175564528
 10
695691.4051993282046169
 20
5343291.85497123189270496
 10
695689.8621469649951905
 20
5343298.66255518794059753
 10
695688.40986238780897111
 20
5343305.83321028761565685
 10
695686.68527445232030004
 20
5343313.36693653184920549
 10
695686.04989994980860502
 20
5343318.99453926831483841
 10
695685.14222208911087364
 20
5343326.61903329845517874
 10
695684.41607980045955628
 20
5343334.87890183180570602
 10
695684.41607980045955628
 20
5343342.68493143375962973
 10
695684.32531201443634927
 20
5343348.67560531478375196
 10
695745.13972868397831917
 20
5343351.67094225529581308
 10
695746.68278104730416089
 20
5343308.28394051175564528
  0
LWPOLYLINE
  5
20c
  8
Other Places
100
AcDbEntity
100
AcDbPolyline
  6
CONTINUOUS
420
16712144
 90
     8
 70
   129
 43
253.99999999999997158
 10
695745.13972868397831917
 20
5343351.67094225529581308
 10
695684.32531201443634927
 20
5343348.67560531478375196
 10
695684.14377644238993526
 20
5343354.21244026441127062
 10
695684.59761537273880094
 20
5343359.65850742906332016
 10
695685.50529323343653232
 20
5343366.10302024055272341
 10
695686.68527445243671536
 20
5343372.72906862385571003
 10
695744.59512196760624647
 20
5343375.27056663390249014
 10
695745.13972868397831917
 20
5343351.67094225529581308
  0
LWPOLYLINE
  5
20d
  8
Other Places
100
AcDbEntity
100
AcDbPolyline
  6
CONTINUOUS
420
16712144
 90
     8
 70
   129
 43
253.99999999999997158
 10
695744.59512196760624647
 20
5343375.27056663390249014
 10
695686.68527445243671536
 20
5343372.72906862385571003
 10
695687.50218452711123973
 20
5343379.62742036581039429
 10
695689.13600467646028847
 20
5343385.43655867408961058
 10
695690.49752146750688553
 20
5343391.60876812692731619
 10
695692.58518054720479995
 20
5343397.41790643613785505
 10
695743.6874441069085151
 20
5343399.59633330162614584
 10
695744.59512196760624647
 20
5343375.27056663390249014
  0
LWPOLYLINE
  5
20e
  8
Other Places
100
AcDbEntity
100
AcDbPolyline
  6
CONTINUOUS
420
16712144
 90
     7
 70
   129
 43
253.99999999999997158
 10
695743.6874441069085151
 20
5343399.59633330162614584
 10
695692.58518054720479995
 20
5343397.41790643613785505
 10
695694.67283962690271437
 20
5343404.58856153581291437
 10
695695.76205305976327509
 20
5343411.84998442139476538
 10
695696.12512420408893377
 20
5343419.74678181018680334
 10
695742.87053403223399073
 20
5343422.65135096479207277
 10
695743.6874441069085151
 20
5343399.59633330162614584
  0
LWPOLYLINE
  5
20f
  8
Other Places
100
AcDbEntity
100
AcDbPolyline
  6
CONTINUOUS
420
16712144
 90
     7
 70
   129
 43
253.99999999999997158
 10
695742.87053403223399073
 20
5343422.65135096479207277
 10
695696.12512420408893377
 20
5343419.74678181018680334
 10
695696.30665977625176311
 20
5343423.19595768116414547
 10
695696.57896313443779945
 20
5343429.82200606446713209
 10
695696.94203427876345813
 20
5343442.43872832879424095
 10
695742.50746288790833205
 20
5343443.98178069200366735
 10
695742.87053403223399073
 20
5343422.65135096479207277
  0
LWPOLYLINE
  5
210
  8
Other Places
100
AcDbEntity
100
AcDbPolyline
  6
CONTINUOUS
420
16712144
 90
     5
 70
   129
 43
253.99999999999997158
 10
695742.50746288790833205
 20
5343443.98178069200366735
 10
695696.94203427876345813
 20
5343442.43872832879424095
 10
695697.94047992560081184
 20
5343466.58295942470431328
 10
695741.59978502721060067
 20
5343468.85215407609939575
 10
695742.50746288790833205
 20
5343443.98178069200366735
  0
LWPOLYLINE
  5
211
  8
Other Places
100
AcDbEntity
100
AcDbPolyline
  6
CONTINUOUS
420
16712144
 90
    11
 70
   129
 43
253.99999999999997158
 10
695741.59978502721060067
 20
5343468.85215407609939575
 10
695697.94047992560081184
 20
5343466.58295942470431328
 10
695698.8027738924138248
 20
5343484.22821703646332026
 10
695699.02061657898593694
 20
5343487.75000713672488928
 10
695699.60153040988370776
 20
5343490.10996957495808601
 10
695700.40028692747000605
 20
5343492.07055375445634127
 10
695702.17933553468901664
 20
5343493.99483081884682178
 10
695703.8857699129730463
 20
5343495.26557982433587313
 10
695706.83572296088095754
 20
5343495.53788318205624819
 10
695741.32748166902456433
 20
5343496.62709661480039358
 10
695741.59978502721060067
 20
5343468.85215407609939575
  0
LWPOLYLINE
  5
212
  8
Other Places
100
AcDbEntity
100
AcDbPolyline
  6
CONTINUOUS
420
16712144
 90
    16
 70
   129
 43
253.99999999999997158
 10
695741.32748166902456433
 20
5343496.62709661480039358
 10
695747.49061434681061655
 20
5343496.82678574323654175
 10
695753.22713842720258981
 20
5343495.66495808213949203
 10
695758.96366250759456307
 20
5343493.63175967335700989
 10
695763.97404429933521897
 20
5343491.4533328078687191
 10
695767.16907036944758147
 20
5343489.16598459798842669
 10
695770.61824624065775424
 20
5343486.33402967266738415
 10
695774.24895768391434103
 20
5343482.30393997021019459
 10
695777.2624481818638742
 20
5343478.38277161121368408
 10
695779.76763907773420215
 20
5343474.02591787930577993
 10
695781.40145922731608152
 20
5343470.03213529195636511
 10
695782.34544420253951102
 20
5343466.6555736493319273
 10
695783.43465763551648706
 20
5343462.33502703253179789
 10
695783.50727186433505267
 20
5343457.43356658332049847
 10
695742.05362395755946636
 20
5343456.41696738451719284
 10
695741.32748166902456433
 20
5343496.62709661480039358
  0
LWPOLYLINE
  5
213
  8
Other Places
100
AcDbEntity
100
AcDbPolyline
  6
CONTINUOUS
420
16712144
 90
     5
 70
   129
 43
253.99999999999997158
 10
695742.60796552360989153
 20
5343438.07725084386765957
 10
695742.05362395755946636
 20
5343456.41696738451719284
 10
695783.50727186433505267
 20
5343457.43356658332049847
 10
695783.68880743661429733
 20
5343439.38893071282655001
 10
695742.60796552360989153
 20
5343438.07725084386765957
  0
LWPOLYLINE
  5
214
  8
Other Places
100
AcDbEntity
100
AcDbPolyline
  6
CONTINUOUS
420
16712144
 90
     5
 70
   129
 43
253.99999999999997158
 10
695743.01362007425632328
 20
5343418.61314489040523767
 10
695742.60796552360989153
 20
5343438.07725084386765957
 10
695783.68880743661429733
 20
5343439.38893071282655001
 10
695784.4875639540841803
 20
5343420.14616006333380938
 10
695743.01362007425632328
 20
5343418.61314489040523767
  0
LWPOLYLINE
  5
215
  8
Other Places
100
AcDbEntity
100
AcDbPolyline
  6
CONTINUOUS
420
16712144
 90
     5
 70
   129
 43
253.99999999999997158
 10
695743.65659609960857779
 20
5343400.4669326189905405
 10
695743.01362007425632328
 20
5343418.61314489040523767
 10
695784.4875639540841803
 20
5343420.14616006333380938
 10
695785.21370624273549765
 20
5343402.35567399114370346
 10
695743.65659609960857779
 20
5343400.4669326189905405
  0
LWPOLYLINE
  5
216
  8
Other Places
100
AcDbEntity
100
AcDbPolyline
  6
CONTINUOUS
420
16712144
 90
     5
 70
   129
 43
253.99999999999997158
 10
695744.32919168856460601
 20
5343382.39749811310321093
 10
695743.65659609960857779
 20
5343400.4669326189905405
 10
695785.21370624273549765
 20
5343402.35567399114370346
 10
695785.4315489293076098
 20
5343383.76643140148371458
 10
695744.32919168856460601
 20
5343382.39749811310321093
  0
LWPOLYLINE
  5
217
  8
Other Places
100
AcDbEntity
100
AcDbPolyline
  6
CONTINUOUS
420
16712144
 90
     5
 70
   129
 43
253.99999999999997158
 10
695744.85274165449663997
 20
5343364.10704686585813761
 10
695744.32919168856460601
 20
5343382.39749811310321093
 10
695785.4315489293076098
 20
5343383.76643140148371458
 10
695785.67662195186130702
 20
5343365.56749029085040092
 10
695744.85274165449663997
 20
5343364.10704686585813761
  0
LWPOLYLINE
  5
218
  8
Other Places
100
AcDbEntity
100
AcDbPolyline
  6
CONTINUOUS
420
16712144
 90
     5
 70
   129
 43
253.99999999999997158
 10
695745.34921736863907427
 20
5343345.78061335720121861
 10
695744.85274165449663997
 20
5343364.10704686585813761
 10
695785.67662195186130702
 20
5343365.56749029085040092
 10
695786.14861443953122944
 20
5343347.41393307410180569
 10
695745.34921736863907427
 20
5343345.78061335720121861
  0
LWPOLYLINE
  5
219
  8
Other Places
100
AcDbEntity
100
AcDbPolyline
  6
CONTINUOUS
420
16712144
 90
     6
 70
   129
 43
253.99999999999997158
 10
695788.46496578783262521
 20
5343290.72491229139268398
 10
695788.8933471858035773
 20
5343277.78596440050750971
 10
695746.27787161956075579
 20
5343277.36049040593206882
 10
695746.04740654479246587
 20
5343278.96594560984522104
 10
695746.29777799220755696
 20
5343290.51879953872412443
 10
695788.46496578783262521
 20
5343290.72491229139268398
  0
LWPOLYLINE
  5
21a
  8
Other Places
100
AcDbEntity
100
AcDbPolyline
  6
CONTINUOUS
420
16712144
 90
     5
 70
   129
 43
253.99999999999997158
 10
695788.46496578783262521
 20
5343290.72491229139268398
 10
695746.29777799220755696
 20
5343290.51879953872412443
 10
695746.58419019391294569
 20
5343303.7346768481656909
 10
695788.03658438986167312
 20
5343303.66386018134653568
 10
695788.46496578783262521
 20
5343290.72491229139268398
  0
LWPOLYLINE
  5
21b
  8
Other Places
100
AcDbEntity
100
AcDbPolyline
  6
CONTINUOUS
420
16712144
 90
     6
 70
   129
 43
253.99999999999997158
 10
695788.03658438986167312
 20
5343303.66386018134653568
 10
695746.58419019391294569
 20
5343303.7346768481656909
 10
695746.68278104730416089
 20
5343308.28394051175564528
 10
695746.31220107758417726
 20
5343318.703777308575809
 10
695787.31044210121035576
 20
5343318.8765411302447319
 10
695788.03658438986167312
 20
5343303.66386018134653568
  0
LWPOLYLINE
  5
21c
  8
Other Places
100
AcDbEntity
100
AcDbPolyline
  6
CONTINUOUS
420
16712144
 90
     5
 70
   129
 43
253.99999999999997158
 10
695787.31044210121035576
 20
5343318.8765411302447319
 10
695746.31220107758417726
 20
5343318.703777308575809
 10
695745.81790199573151767
 20
5343332.60230443254113197
 10
695786.58429981267545372
 20
5343334.08922207821160555
 10
695787.31044210121035576
 20
5343318.8765411302447319
  0
LWPOLYLINE
  5
21d
  8
Other Places
100
AcDbEntity
100
AcDbPolyline
  6
CONTINUOUS
420
16712144
 90
     5
 70
   129
 43
253.99999999999997158
 10
695786.58429981267545372
 20
5343334.08922207821160555
 10
695745.81790199573151767
 20
5343332.60230443254113197
 10
695745.34921736863907427
 20
5343345.78061335720121861
 10
695786.14861443953122944
 20
5343347.41393307410180569
 10
695786.58429981267545372
 20
5343334.08922207821160555
  0
LWPOLYLINE
  5
21e
  8
Other Places
100
AcDbEntity
100
AcDbPolyline
  6
CONTINUOUS
420
16712144
 90
    10
 70
   129
 43
253.99999999999997158
 10
695665.04018306243233383
 20
5343169.01287512294948101
 10
695663.70623278291895986
 20
5343213.46354085206985474
 10
695679.02514565922319889
 20
5343214.15203132014721632
 10
695680.88622145098634064
 20
5343213.30217590089887381
 10
695682.41380967316217721
 20
5343212.45232048165053129
 10
695683.70472929766401649
 20
5343211.30125048290938139
 10
695684.4147350910352543
 20
5343210.09639216680079699
 10
695684.69443434302229434
 20
5343208.61183459870517254
 10
695685.46898611763026565
 20
5343169.8842458687722683
 10
695665.04018306243233383
 20
5343169.01287512294948101
  0
LWPOLYLINE
  5
21f
  8
Other Places
100
AcDbEntity
100
AcDbPolyline
  6
CONTINUOUS
420
16712144
 90
     5
 70
   129
 43
253.99999999999997158
 10
695663.70623278291895986
 20
5343213.46354085206985474
 10
695665.04018306243233383
 20
5343169.01287512294948101
 10
695654.86343335581477731
 20
5343168.66862988565117121
 10
695652.53977803199086338
 20
5343212.88262702059000731
 10
695663.70623278291895986
 20
5343213.46354085206985474
  0
LWPOLYLINE
  5
220
  8
Other Places
100
AcDbEntity
100
AcDbPolyline
  6
CONTINUOUS
420
16712144
 90
     5
 70
   129
 43
253.99999999999997158
 10
695652.53977803199086338
 20
5343212.88262702059000731
 10
695654.86343335581477731
 20
5343168.66862988565117121
 10
695641.82514514948707074
 20
5343168.34589997865259647
 10
695639.95331169408746064
 20
5343212.23716720845550299
 10
695652.53977803199086338
 20
5343212.88262702059000731
  0
LWPOLYLINE
  5
221
  8
Other Places
100
AcDbEntity
100
AcDbPolyline
  6
CONTINUOUS
420
16712144
 90
     5
 70
   129
 43
253.99999999999997158
 10
695641.82514514948707074
 20
5343168.34589997865259647
 10
695629.96482110035140067
 20
5343168.02317007258534431
 10
695628.67390147596597672
 20
5343212.17262122686952353
 10
695639.95331169408746064
 20
5343212.23716720845550299
 10
695641.82514514948707074
 20
5343168.34589997865259647
  0
LWPOLYLINE
  5
222
  8
Other Places
100
AcDbEntity
100
AcDbPolyline
  6
CONTINUOUS
420
16712144
 90
     5
 70
   129
 43
253.99999999999997158
 10
695629.96482110035140067
 20
5343168.02317007258534431
 10
695617.50744672492146492
 20
5343167.63589418586343527
 10
695618.02381457469891757
 20
5343211.52716141473501921
 10
695628.67390147596597672
 20
5343212.17262122686952353
 10
695629.96482110035140067
 20
5343168.02317007258534431
  0
LWPOLYLINE
  5
223
  8
Other Places
100
AcDbEntity
100
AcDbPolyline
  6
CONTINUOUS
420
16712144
 90
     5
 70
   129
 43
253.99999999999997158
 10
695617.50744672492146492
 20
5343167.63589418586343527
 10
695605.56644019926898181
 20
5343166.92588839214295149
 10
695605.76007814286276698
 20
5343211.0753395464271307
 10
695618.02381457469891757
 20
5343211.52716141473501921
 10
695617.50744672492146492
 20
5343167.63589418586343527
  0
LWPOLYLINE
  5
224
  8
Other Places
100
AcDbEntity
100
AcDbPolyline
  6
CONTINUOUS
420
16712144
 90
     5
 70
   129
 43
253.99999999999997158
 10
695605.56644019926898181
 20
5343166.92588839214295149
 10
695593.64157016889657825
 20
5343166.15133661776781082
 10
695594.48066792474128306
 20
5343210.42987973429262638
 10
695605.76007814286276698
 20
5343211.0753395464271307
 10
695605.56644019926898181
 20
5343166.92588839214295149
  0
LWPOLYLINE
  5
225
  8
Other Places
100
AcDbEntity
100
AcDbPolyline
  6
CONTINUOUS
420
16712144
 90
     5
 70
   129
 43
253.99999999999997158
 10
695593.64157016889657825
 20
5343166.15133661776781082
 10
695581.248741774703376
 20
5343165.7640607301145792
 10
695582.9914832676295191
 20
5343209.91351188439875841
 10
695594.48066792474128306
 20
5343210.42987973429262638
 10
695593.64157016889657825
 20
5343166.15133661776781082
  0
LWPOLYLINE
  5
226
  8
Other Places
100
AcDbEntity
100
AcDbPolyline
  6
CONTINUOUS
420
16712144
 90
     5
 70
   129
 43
253.99999999999997158
 10
695581.248741774703376
 20
5343165.7640607301145792
 10
695569.1786432865774259
 20
5343165.37678484339267015
 10
695572.47048832883592695
 20
5343209.4616900160908699
 10
695582.9914832676295191
 20
5343209.91351188439875841
 10
695581.248741774703376
 20
5343165.7640607301145792
  0
LWPOLYLINE
  5
227
  8
Other Places
100
AcDbEntity
100
AcDbPolyline
  6
CONTINUOUS
420
16712144
 90
     6
 70
   129
 43
253.99999999999997158
 10
695569.1786432865774259
 20
5343165.37678484339267015
 10
695557.34417144360486418
 20
5343165.11429979652166367
 10
695560.78335150063503534
 20
5343205.47941309865564108
 10
695561.11039563431404531
 20
5343208.84850319381803274
 10
695572.47048832883592695
 20
5343209.4616900160908699
 10
695569.1786432865774259
 20
5343165.37678484339267015
  0
LWPOLYLINE
  5
228
  8
Other Places
100
AcDbEntity
100
AcDbPolyline
  6
CONTINUOUS
420
16712144
 90
    12
 70
   129
 43
253.99999999999997158
 10
695600.9352660458534956
 20
5343251.51339678280055523
 10
695601.37095141957979649
 20
5343251.52247356623411179
 10
695600.11230478540528566
 20
5343224.65823447145521641
 10
695599.49508383998181671
 20
5343223.30276886560022831
 10
695598.57530360762029886
 20
5343221.95940563175827265
 10
695597.4497830601176247
 20
5343220.7128613693639636
 10
695596.19113642640877515
 20
5343219.74467165116220713
 10
695594.44839493359904736
 20
5343218.98222224973142147
 10
695556.49535797804128379
 20
5343217.43311870098114014
 10
695556.78085520502645522
 20
5343221.32674241438508034
 10
695559.70049036701675504
 20
5343250.02237001527100801
 10
695600.9352660458534956
 20
5343251.51339678280055523
  0
LWPOLYLINE
  5
229
  8
Other Places
100
AcDbEntity
100
AcDbPolyline
  6
CONTINUOUS
420
16712144
 90
     5
 70
   129
 43
253.99999999999997158
 10
695561.73491794045548886
 20
5343270.01773682981729507
 10
695603.48281524260528386
 20
5343272.13886338006705046
 10
695601.37095141957979649
 20
5343251.52247356623411179
 10
695559.70049036701675504
 20
5343250.02237001527100801
 10
695561.73491794045548886
 20
5343270.01773682981729507
  0
LWPOLYLINE
  5
22a
  8
Other Places
100
AcDbEntity
100
AcDbPolyline
  6
CONTINUOUS
420
16712144
 90
     5
 70
   129
 43
253.99999999999997158
 10
695603.48281524260528386
 20
5343272.13886338006705046
 10
695561.73491794045548886
 20
5343270.01773682981729507
 10
695564.14763293659780174
 20
5343293.73110072594136
 10
695605.14689132082276046
 20
5343296.20442906673997641
 10
695603.48281524260528386
 20
5343272.13886338006705046
  0
LWPOLYLINE
  5
22b
  8
Other Places
100
AcDbEntity
100
AcDbPolyline
  6
CONTINUOUS
420
16712144
 90
     5
 70
   129
 43
253.99999999999997158
 10
695566.24717984581366181
 20
5343314.36649278458207846
 10
695604.6627964616054669
 20
5343315.85868034977465868
 10
695605.14689132082276046
 20
5343296.20442906673997641
 10
695564.14763293659780174
 20
5343293.73110072594136
 10
695566.24717984581366181
 20
5343314.36649278458207846
  0
LWPOLYLINE
  5
22c
  8
Other Places
100
AcDbEntity
100
AcDbPolyline
  6
CONTINUOUS
420
16712144
 90
     5
 70
   129
 43
253.99999999999997158
 10
695569.33940369065385312
 20
5343344.75840786565095186
 10
695603.79142571508418769
 20
5343344.61391498520970345
 10
695604.6627964616054669
 20
5343315.85868034977465868
 10
695566.24717984581366181
 20
5343314.36649278458207846
 10
695569.33940369065385312
 20
5343344.75840786565095186
  0
LWPOLYLINE
  5
22d
  8
Other Places
100
AcDbEntity
100
AcDbPolyline
  6
CONTINUOUS
420
16712144
 90
     8
 70
   129
 43
253.99999999999997158
 10
695572.5068209336604923
 20
5343375.88936109095811844
 10
695604.95325337711255997
 20
5343370.75503738131374121
 10
695604.37233954609837383
 20
5343364.65544215496629477
 10
695603.79142571508418769
 20
5343355.45763983111828566
 10
695603.79142571508418769
 20
5343348.38985488656908274
 10
695603.79142571508418769
 20
5343344.61391498520970345
 10
695569.33940369065385312
 20
5343344.75840786565095186
 10
695572.5068209336604923
 20
5343375.88936109095811844
  0
LWPOLYLINE
  5
22e
  8
Other Places
100
AcDbEntity
100
AcDbPolyline
  6
CONTINUOUS
420
16712144
 90
     7
 70
   129
 43
253.99999999999997158
 10
695575.56103714287746698
 20
5343405.90771821141242981
 10
695609.69738299713935703
 20
5343392.73294398840516806
 10
695608.05146047589369118
 20
5343388.08563333936035633
 10
695607.08327075757551938
 20
5343383.43832269124686718
 10
695604.95325337711255997
 20
5343370.75503738131374121
 10
695572.5068209336604923
 20
5343375.88936109095811844
 10
695575.56103714287746698
 20
5343405.90771821141242981
  0
LWPOLYLINE
  5
22f
  8
Other Places
100
AcDbEntity
100
AcDbPolyline
  6
CONTINUOUS
420
16712144
 90
     7
 70
   129
 43
253.99999999999997158
 10
695579.64809370052535087
 20
5343446.07734436541795731
 10
695615.48110632691532373
 20
5343399.70512019377201796
 10
695613.08483677438925952
 20
5343398.04951577633619308
 10
695611.21138966956641525
 20
5343395.74038329813629389
 10
695609.69738299713935703
 20
5343392.73294398840516806
 10
695575.56103714287746698
 20
5343405.90771821141242981
 10
695579.64809370052535087
 20
5343446.07734436541795731
  0
LWPOLYLINE
  5
230
  8
Other Places
100
AcDbEntity
100
AcDbPolyline
  6
CONTINUOUS
420
16712144
 90
     7
 70
   129
 43
253.99999999999997158
 10
695579.64809370052535087
 20
5343446.07734436541795731
 10
695620.09937128284946084
 20
5343447.41266855876892805
 10
695628.02884507505223155
 20
5343404.19267953839153051
 10
695626.06826089567039162
 20
5343404.23624807503074408
 10
695620.49148811865597963
 20
5343402.88562341872602701
 10
695615.48110632691532373
 20
5343399.70512019377201796
 10
695579.64809370052535087
 20
5343446.07734436541795731
  0
LWPOLYLINE
  5
231
  8
Other Places
100
AcDbEntity
100
AcDbPolyline
  6
CONTINUOUS
420
16712144
 90
     5
 70
   129
 43
253.99999999999997158
 10
695620.09937128284946084
 20
5343447.41266855876892805
 10
695653.54911580996122211
 20
5343448.93756736442446709
 10
695651.4578260185662657
 20
5343405.19475589506328106
 10
695628.02884507505223155
 20
5343404.19267953839153051
 10
695620.09937128284946084
 20
5343447.41266855876892805
  0
LWPOLYLINE
  5
232
  8
Other Places
100
AcDbEntity
100
AcDbPolyline
  6
CONTINUOUS
420
16712144
 90
     9
 70
   129
 43
253.99999999999997158
 10
695653.54911580996122211
 20
5343448.93756736442446709
 10
695688.40394566569011658
 20
5343450.59317178186029196
 10
695687.09688954602461308
 20
5343412.9499555379152298
 10
695686.53049856098368764
 20
5343410.16156914737075567
 10
695685.33236378466244787
 20
5343408.39704338554292917
 10
695683.48070094850845635
 20
5343406.63251762464642525
 10
695680.53982467949390411
 20
5343406.10969517659395933
 10
695651.4578260185662657
 20
5343405.19475589506328106
 10
695653.54911580996122211
 20
5343448.93756736442446709
  0
LWPOLYLINE
  5
233
  8
Other Places
100
AcDbEntity
100
AcDbPolyline
  6
CONTINUOUS
420
16712144
 90
     6
 70
   129
 43
253.99999999999997158
 10
695579.64809370052535087
 20
5343446.07734436541795731
 10
695583.8107757605612278
 20
5343486.99025559891015291
 10
695584.22431151149794459
 20
5343491.0610815268009901
 10
695607.40277336549479514
 20
5343491.75817812420427799
 10
695604.38452401745598763
 20
5343446.89391075912863016
 10
695579.64809370052535087
 20
5343446.07734436541795731
  0
LWPOLYLINE
  5
234
  8
Other Places
100
AcDbEntity
100
AcDbPolyline
  6
CONTINUOUS
420
16712144
 90
     6
 70
   129
 43
253.99999999999997158
 10
695628.97555432678200305
 20
5343447.81731382943689823
 10
695620.09937128284946084
 20
5343447.41266855876892805
 10
695604.38452401745598763
 20
5343446.89391075912863016
 10
695607.40277336549479514
 20
5343491.75817812420427799
 10
695630.89783325314056128
 20
5343493.05942508764564991
 10
695628.97555432678200305
 20
5343447.81731382943689823
  0
LWPOLYLINE
  5
235
  8
Other Places
100
AcDbEntity
100
AcDbPolyline
  6
CONTINUOUS
420
16712144
 90
     5
 70
   129
 43
253.99999999999997158
 10
695653.54911580996122211
 20
5343448.93756736442446709
 10
695628.97555432678200305
 20
5343447.81731382943689823
 10
695630.89783325314056128
 20
5343493.05942508764564991
 10
695655.0246369264787063
 20
5343493.76233081892132759
 10
695653.54911580996122211
 20
5343448.93756736442446709
  0
LWPOLYLINE
  5
236
  8
Other Places
100
AcDbEntity
100
AcDbPolyline
  6
CONTINUOUS
420
16712144
 90
     9
 70
   129
 43
253.99999999999997158
 10
695688.40394566569011658
 20
5343450.59317178186029196
 10
695653.54911580996122211
 20
5343448.93756736442446709
 10
695655.0246369264787063
 20
5343493.76233081892132759
 10
695683.87136547442059964
 20
5343494.91254020389169455
 10
695686.17178424401208758
 20
5343494.18058877717703581
 10
695688.57676750305108726
 20
5343492.45527470018714666
 10
695690.19751709070987999
 20
5343490.72996062319725752
 10
695690.51121055928524584
 20
5343488.84779981151223183
 10
695688.40394566569011658
 20
5343450.59317178186029196
  0
LWPOLYLINE
  5
237
  8
Other Places
100
AcDbEntity
100
AcDbPolyline
  6
CONTINUOUS
420
16712144
 90
    15
 70
   129
 43
253.99999999999997158
 10
695644.4156980934785679
 20
5343353.74612249061465263
 10
695647.34350379975512624
 20
5343396.25158748310059309
 10
695674.79168230027426034
 20
5343397.03582115471363068
 10
695676.4647141327150166
 20
5343396.87897442001849413
 10
695678.29459269938524812
 20
5343396.30386972799897194
 10
695679.60164881846867502
 20
5343395.25822483282536268
 10
695680.80414044798817486
 20
5343393.06237055268138647
 10
695681.48380962992087007
 20
5343390.91879851743578911
 10
695681.22239840612746775
 20
5343387.88642832078039646
 10
695680.28131800040137023
 20
5343382.9718973133713007
 10
695678.55600392317865044
 20
5343376.38433447293937206
 10
695677.3535122936591506
 20
5343369.43079591915011406
 10
695676.4647141327150166
 20
5343363.10464430321007967
 10
695675.88960944022983313
 20
5343354.79176738578826189
 10
695644.4156980934785679
 20
5343353.74612249061465263
  0
LWPOLYLINE
  5
238
  8
Other Places
100
AcDbEntity
100
AcDbPolyline
  6
CONTINUOUS
420
16712144
 90
    12
 70
   129
 43
253.99999999999997158
 10
695644.4156980934785679
 20
5343353.74612249061465263
 10
695612.95485730690415949
 20
5343352.80504208523780107
 10
695613.47767975460737944
 20
5343360.49053206481039524
 10
695614.41876016033347696
 20
5343371.05154550727456808
 10
695616.09179199277423322
 20
5343383.44243751559406519
 10
695617.24200137751176953
 20
5343388.25240403413772583
 10
695618.91503320995252579
 20
5343390.91879851743578911
 10
695621.00632300041615963
 20
5343393.11465279664844275
 10
695623.77728197281248868
 20
5343394.78768462967127562
 10
695626.54824094532523304
 20
5343395.72876503504812717
 10
695647.34350379975512624
 20
5343396.25158748310059309
 10
695644.4156980934785679
 20
5343353.74612249061465263
  0
LWPOLYLINE
  5
239
  8
Other Places
100
AcDbEntity
100
AcDbPolyline
  6
CONTINUOUS
420
16712144
 90
     5
 70
   129
 43
253.99999999999997158
 10
695645.04308503016363829
 20
5343323.99752522073686123
 10
695613.25548021437134594
 20
5343322.84731583576649427
 10
695612.95485730690415949
 20
5343352.80504208523780107
 10
695644.4156980934785679
 20
5343353.74612249061465263
 10
695645.04308503016363829
 20
5343323.99752522073686123
  0
LWPOLYLINE
  5
23a
  8
Other Places
100
AcDbEntity
100
AcDbPolyline
  6
CONTINUOUS
420
16712144
 90
     6
 70
   129
 43
253.99999999999997158
 10
695645.04308503016363829
 20
5343323.99752522073686123
 10
695647.76176175789441913
 20
5343293.77838774770498276
 10
695613.67373817251063883
 20
5343292.8373073423281312
 10
695613.67373817251063883
 20
5343302.61408711224794388
 10
695613.25548021437134594
 20
5343322.84731583576649427
 10
695645.04308503016363829
 20
5343323.99752522073686123
  0
LWPOLYLINE
  5
23b
  8
Other Places
100
AcDbEntity
100
AcDbPolyline
  6
CONTINUOUS
420
16712144
 90
     6
 70
   129
 43
253.99999999999997158
 10
695647.76176175789441913
 20
5343293.77838774770498276
 10
695649.90533379325643182
 20
5343263.9775082329288125
 10
695611.42560164770111442
 20
5343262.67045211419463158
 10
695612.78494001156650484
 20
5343279.03479472547769547
 10
695613.67373817251063883
 20
5343292.8373073423281312
 10
695647.76176175789441913
 20
5343293.77838774770498276
  0
LWPOLYLINE
  5
23c
  8
Other Places
100
AcDbEntity
100
AcDbPolyline
  6
CONTINUOUS
420
16712144
 90
     9
 70
   129
 43
253.99999999999997158
 10
695649.90533379325643182
 20
5343263.9775082329288125
 10
695647.08209257596172392
 20
5343221.26291426178067923
 10
695614.9285120468121022
 20
5343219.90357589814811945
 10
695612.83722225634846836
 20
5343220.84465630445629358
 10
695610.95506144489627331
 20
5343222.25627691298723221
 10
695609.43887634680140764
 20
5343224.0338732348755002
 10
695608.86377165431622416
 20
5343226.49113873858004808
 10
695611.42560164770111442
 20
5343262.67045211419463158
 10
695649.90533379325643182
 20
5343263.9775082329288125
  0
LWPOLYLINE
  5
23d
  8
Other Places
100
AcDbEntity
100
AcDbPolyline
  6
CONTINUOUS
420
16712144
 90
    13
 70
   129
 43
253.99999999999997158
 10
695647.08209257596172392
 20
5343221.26291426178067923
 10
695649.90533379325643182
 20
5343263.9775082329288125
 10
695688.17593695968389511
 20
5343265.59825782105326653
 10
695687.18257430917583406
 20
5343257.91276784054934978
 10
695685.71867145574651659
 20
5343251.74346295930445194
 10
695684.77759105002041906
 20
5343244.94677113927900791
 10
695684.25476860243361443
 20
5343239.61398217361420393
 10
695684.46389758144505322
 20
5343230.72600056417286396
 10
695684.20248635765165091
 20
5343227.90275934711098671
 10
695682.99999472813215107
 20
5343224.92267139535397291
 10
695680.85642269277013838
 20
5343223.40648629702627659
 10
695678.24231045471969992
 20
5343222.77909936010837555
 10
695647.08209257596172392
 20
5343221.26291426178067923
  0
LWPOLYLINE
  5
23e
  8
Other Places
100
AcDbEntity
100
AcDbPolyline
  6
CONTINUOUS
420
16712144
 90
     9
 70
   129
 43
253.99999999999997158
 10
695688.17593695968389511
 20
5343265.59825782105326653
 10
695649.90533379325643182
 20
5343263.9775082329288125
 10
695647.76176175789441913
 20
5343293.77838774770498276
 10
695680.58194090786855668
 20
5343294.87631488777697086
 10
695684.18941579642705619
 20
5343285.67463980987668037
 10
695685.91472987364977598
 20
5343281.02152002602815628
 10
695687.58776170609053224
 20
5343274.64308616518974304
 10
695688.1628663984593004
 20
5343270.30365984980016947
 10
695688.17593695968389511
 20
5343265.59825782105326653
  0
LWPOLYLINE
  5
23f
  8
Other Places
100
AcDbEntity
100
AcDbPolyline
  6
CONTINUOUS
420
16712144
 90
    10
 70
   129
 43
253.99999999999997158
 10
695680.58194090786855668
 20
5343294.87631488777697086
 10
695647.76176175789441913
 20
5343293.77838774770498276
 10
695645.04308503016363829
 20
5343323.99752522073686123
 10
695675.771974389674142
 20
5343326.14109725598245859
 10
695676.03338561346754432
 20
5343320.54689706675708294
 10
695676.50392581638880074
 20
5343316.88713993318378925
 10
695677.34044173255097121
 20
5343312.54771361779421568
 10
695677.96782866970170289
 20
5343309.46306117717176676
 10
695679.32716703356709331
 20
5343302.61408711317926645
 10
695680.58194090786855668
 20
5343294.87631488777697086
  0
LWPOLYLINE
  5
240
  8
Other Places
100
AcDbEntity
100
AcDbPolyline
  6
CONTINUOUS
420
16712144
 90
     7
 70
   129
 43
253.99999999999997158
 10
695675.88960944022983313
 20
5343354.79176738578826189
 10
695675.30143418675288558
 20
5343347.10627740621566772
 10
695675.35371643153484911
 20
5343339.8390453839674592
 10
695675.771974389674142
 20
5343326.14109725598245859
 10
695645.04308503016363829
 20
5343323.99752522073686123
 10
695644.4156980934785679
 20
5343353.74612249061465263
 10
695675.88960944022983313
 20
5343354.79176738578826189
  0
LWPOLYLINE
  5
241
  8
Other Places
100
AcDbEntity
100
AcDbPolyline
  6
CONTINUOUS
420
16712144
 90
     5
 70
   129
 43
253.99999999999997158
 10
695491.4747208256740123
 20
5343299.53265062719583511
 10
695447.5283910115249455
 20
5343297.36836288403719664
 10
695448.35447390750050545
 20
5343308.4379245825111866
 10
695492.36938383767846972
 20
5343310.54230657964944839
 10
695491.4747208256740123
 20
5343299.53265062719583511
  0
LWPOLYLINE
  5
242
  8
Other Places
100
AcDbEntity
100
AcDbPolyline
  6
CONTINUOUS
420
16712144
 90
     5
 70
   129
 43
253.99999999999997158
 10
695492.36938383767846972
 20
5343310.54230657964944839
 10
695448.35447390750050545
 20
5343308.4379245825111866
 10
695449.27113250445108861
 20
5343319.81487331353127956
 10
695493.24058084504213184
 20
5343321.2631916394457221
 10
695492.36938383767846972
 20
5343310.54230657964944839
  0
LWPOLYLINE
  5
243
  8
Other Places
100
AcDbEntity
100
AcDbPolyline
  6
CONTINUOUS
420
16712144
 90
     5
 70
   129
 43
253.99999999999997158
 10
695493.24058084504213184
 20
5343321.2631916394457221
 10
695449.27113250445108861
 20
5343319.81487331353127956
 10
695449.66879914724268019
 20
5343329.93100791331380606
 10
695494.11361929017584771
 20
5343332.00673729367554188
 10
695493.24058084504213184
 20
5343321.2631916394457221
  0
LWPOLYLINE
  5
244
  8
Other Places
100
AcDbEntity
100
AcDbPolyline
  6
CONTINUOUS
420
16712144
 90
     5
 70
   129
 43
253.99999999999997158
 10
695494.11361929017584771
 20
5343332.00673729367554188
 10
695449.66879914724268019
 20
5343329.93100791331380606
 10
695450.17735808074939996
 20
5343340.51864225044846535
 10
695494.9772485438734293
 20
5343342.63449414260685444
 10
695494.11361929017584771
 20
5343332.00673729367554188
  0
LWPOLYLINE
  5
245
  8
Other Places
100
AcDbEntity
100
AcDbPolyline
  6
CONTINUOUS
420
16712144
 90
     5
 70
   129
 43
253.99999999999997158
 10
695494.9772485438734293
 20
5343342.63449414260685444
 10
695450.17735808074939996
 20
5343340.51864225044846535
 10
695451.06043763633351773
 20
5343351.52073280792683363
 10
695495.85469525819644332
 20
5343353.43228762689977884
 10
695494.9772485438734293
 20
5343342.63449414260685444
  0
LWPOLYLINE
  5
246
  8
Other Places
100
AcDbEntity
100
AcDbPolyline
  6
CONTINUOUS
420
16712144
 90
     5
 70
   129
 43
253.99999999999997158
 10
695495.85469525819644332
 20
5343353.43228762689977884
 10
695451.06043763633351773
 20
5343351.52073280792683363
 10
695451.50184161541983485
 20
5343362.19834642298519611
 10
695496.73807820759247988
 20
5343364.30313197430223227
 10
695495.85469525819644332
 20
5343353.43228762689977884
  0
LWPOLYLINE
  5
247
  8
Our Place
100
AcDbEntity
100
AcDbPolyline
  6
CONTINUOUS
420
5025535
 90
    11
 70
   129
 43
960.0
 10
695404.82704347174149007
 20
5343258.63424269389361143
 10
695413.9241540664806962
 20
5343298.63015996385365725
 10
695433.0071734176017344
 20
5343295.5455075204372406
 10
695434.26194729271810502
 20
5343295.12724956218153238
 10
695435.25530994380824268
 20
5343294.55214486923068762
 10
695436.30095483979675919
 20
5343293.71562895271927118
 10
695437.13747075654100627
 20
5343292.8268307913094759
 10
695437.50344647013116628
 20
5343291.83346814010292292
 10
695437.55572871491312981
 20
5343290.63097650930285454
 10
695435.67356790229678154
 20
5343253.71971168275922537
 10
695404.82704347174149007
 20
5343258.63424269389361143
  0
LWPOLYLINE
  5
248
  8
Dill Park
100
AcDbEntity
100
AcDbPolyline
  6
CONTINUOUS
420
5091146
 90
    11
 70
   129
 43
960.0
 10
695441.66545898444019258
 20
5343344.61985789891332388
 10
695413.68138745636679232
 20
5343351.31198523286730051
 10
695398.2058429962489754
 20
5343358.84062848426401615
 10
695385.06992899102624506
 20
5343370.67384322267025709
 10
695374.68318969127722085
 20
5343384.56349292397499084
 10
695367.60765922884456813
 20
5343400.40501310210675001
 10
695364.08732141216751188
 20
5343417.64072646945714951
 10
695363.6342086240183562
 20
5343434.75444793328642845
 10
695363.52713830559514463
 20
5343441.76268695946782827
 10
695448.74632272333838046
 20
5343443.80370340775698423
 10
695441.66545898444019258
 20
5343344.61985789891332388
  0
LWPOLYLINE
  5
249
  8
Dirtbike Park
100
AcDbEntity
100
AcDbPolyline
  6
CONTINUOUS
420
5091146
 90
     9
 70
   129
 43
960.0
 10
695506.49187099875416607
 20
5343484.33257482014596462
 10
695583.8107757605612278
 20
5343486.99025559891015291
 10
695556.78085520502645522
 20
5343221.32674241438508034
 10
695547.37658642325550318
 20
5343220.85620220936834812
 10
695541.05043480382300913
 20
5343222.97363312356173992
 10
695502.83211386308539659
 20
5343221.19603680074214935
 10
695499.43376795190852135
 20
5343218.68648905120790005
 10
695484.87316277821082622
 20
5343218.29437221493571997
 10
695506.49187099875416607
 20
5343484.33257482014596462
  0
LWPOLYLINE
  5
24a
  8
Dog Pond Park
100
AcDbEntity
100
AcDbPolyline
  6
CONTINUOUS
420
5091146
 90
     5
 70
   129
 43
960.0
 10
695557.25139540829695761
 20
5343164.0254021193832159
 10
695479.92014622734859586
 20
5343161.14406951796263456
 10
695483.73094095860142261
 20
5343201.85451079346239567
 10
695560.78335150063503534
 20
5343205.47941309865564108
 10
695557.25139540829695761
 20
5343164.0254021193832159
  0
LWPOLYLINE
  5
24b
  8
Bike Path
100
AcDbEntity
100
AcDbPolyline
  6
symbolLayer0
420
4591162
 90
    30
 70
   128
 43
660.0
 10
695171.70578206959180534
 20
5343474.43968452326953411
 10
695171.66657038603443652
 20
5343470.36166943144053221
 10
695169.4315044223330915
 20
5343463.18593133799731731
 10
695169.47071610623970628
 20
5343432.83608825411647558
 10
695170.4117965119658038
 20
5343412.05389596056193113
 10
695172.29395732341799885
 20
5343387.42895867675542831
 10
695174.09769476775545627
 20
5343380.05716216564178467
 10
695177.70516965643037111
 20
5343362.96086812857538462
 10
695183.03795862221159041
 20
5343342.64921603817492723
 10
695190.48817850090563297
 20
5343322.49441068153828382
 10
695200.13425265962723643
 20
5343302.7317221611738205
 10
695209.93717355269473046
 20
5343283.67484394554048777
 10
695222.87702913151588291
 20
5343264.69638909678906202
 10
695239.18908949755132198
 20
5343245.56108751334249973
 10
695250.28599594824481755
 20
5343233.64073570724576712
 10
695267.06859651720151305
 20
5343218.89714268408715725
 10
695283.69435035181231797
 20
5343206.58467404264956713
 10
695299.69271724915597588
 20
5343195.99751947820186615
 10
695318.31826694600749761
 20
5343185.88090511597692966
 10
695338.78676577075384557
 20
5343176.70537116006016731
 10
695359.17684122826904058
 20
5343169.64726811740547419
 10
695380.74326719285454601
 20
5343163.76551558170467615
 10
695400.97649591614026576
 20
5343160.62858089618384838
 10
695414.07319822919089347
 20
5343158.58957334980368614
 10
695425.28773973090574145
 20
5343157.9621864128857851
 10
695452.65749486419372261
 20
5343158.11903314758092165
 10
695591.38843134231865406
 20
5343163.13812864478677511
 10
695852.16573293867986649
 20
5343172.54893270134925842
 10
695873.49688880192115903
 20
5343174.66636361461132765
 10
695905.88573943253140897
 20
5343174.98005708307027817
  0
LWPOLYLINE
  5
24c
  8
Walk Path
100
AcDbEntity
100
AcDbPolyline
  6
symbolLayer1
420
     0
 90
    27
 70
   128
 43
660.0
 10
695554.84022906341124326
 20
5343221.22964367736130953
 10
695556.3920037547359243
 20
5343235.54250236228108406
 10
695556.88214979937765747
 20
5343242.01243015192449093
 10
695556.52924464747775346
 20
5343249.28619745559990406
 10
695555.1764415642246604
 20
5343253.46224175672978163
 10
695551.94147766951937228
 20
5343257.22656337916851044
 10
695546.29499523516278714
 20
5343261.46142520476132631
 10
695540.53087775001768023
 20
5343265.46101692970842123
 10
695535.13436979847028852
 20
5343269.8135138051584363
 10
695529.66433994006365538
 20
5343274.34246325772255659
 10
695521.78279154212214053
 20
5343281.22411372419446707
 10
695514.72468849911820143
 20
5343285.69424565136432648
 10
695510.13692152115982026
 20
5343288.45866934396326542
 10
695503.54935868107713759
 20
5343292.22299096640199423
 10
695499.13804427918512374
 20
5343295.63440743740648031
 10
695498.13814634806476533
 20
5343297.92829092592000961
 10
695497.60878861986566335
 20
5343300.04572183918207884
 10
695497.60878861986566335
 20
5343303.16305068321526051
 10
695498.02051129739265889
 20
5343305.92747437488287687
 10
695504.90216176433023065
 20
5343391.80106139555573463
 10
695507.19604525330942124
 20
5343412.56364784669131041
 10
695509.07820606476161629
 20
5343430.79708070773631334
 10
695510.31337409722618759
 20
5343440.91369506996124983
 10
695514.90114107518456876
 20
5343471.32235567737370729
 10
695515.72458643023855984
 20
5343477.38056078925728798
 10
695515.37168127810582519
 20
5343482.73295559734106064
 10
695514.85428554017562419
 20
5343484.62001588568091393
  0
LWPOLYLINE
  5
24d
  8
Roads
100
AcDbEntity
100
AcDbPolyline
  6
CONTINUOUS
420
     0
 90
    13
 70
   128
 43
1060.0
 10
695690.59635098103899509
 20
5343142.78532096650451422
 10
695687.58227961277589202
 20
5343219.10694062896072865
 10
695688.55472934991121292
 20
5343240.56357353553175926
 10
695692.69548306846991181
 20
5343267.16477924212813377
 10
695690.18593536026310176
 20
5343282.72397503349930048
 10
695684.16302086052019149
 20
5343303.92965316772460938
 10
695680.6496540691005066
 20
5343325.0098539162427187
 10
695680.0222671419614926
 20
5343347.97221544664353132
 10
695682.65729223564267159
 20
5343375.82819500751793385
 10
695688.42925196443684399
 20
5343401.80201378744095564
 10
695692.31905091216322035
 20
5343420.37266682833433151
 10
695692.69548306846991181
 20
5343447.97769161872565746
 10
695695.67557097179815173
 20
5343499.17246486525982618
  0
LWPOLYLINE
  5
24e
  8
Roads
100
AcDbEntity
100
AcDbPolyline
  6
CONTINUOUS
420
     0
 90
    11
 70
   128
 43
1060.0
 10
695316.85934441862627864
 20
5343484.93078162148594856
 10
695318.83561323850881308
 20
5343411.96568200550973415
 10
695320.96872879052534699
 20
5343395.52814451698213816
 10
695327.11712067562621087
 20
5343376.70653670560568571
 10
695336.15149242512416095
 20
5343360.01804444566369057
 10
695350.51865305460523814
 20
5343341.07095924858003855
 10
695365.32498453301377594
 20
5343327.14296946860849857
 10
695383.26825064665172249
 20
5343314.84618569817394018
 10
695400.83508460409939289
 20
5343307.31754257343709469
 10
695417.77453163452446461
 20
5343302.67487931344658136
 10
695442.3680991749279201
 20
5343299.28698990773409605
  0
LWPOLYLINE
  5
24f
  8
Roads
100
AcDbEntity
100
AcDbPolyline
  6
CONTINUOUS
420
     0
 90
     3
 70
   128
 43
1060.0
 10
695456.98621457512490451
 20
5343490.51452527195215225
 10
695442.3680991749279201
 20
5343299.28698990773409605
 10
695437.34900375851429999
 20
5343209.570659339427948
  0
LWPOLYLINE
  5
250
  8
Roads
100
AcDbEntity
100
AcDbPolyline
  6
CONTINUOUS
420
     0
 90
    21
 70
   128
 43
1060.0
 10
695687.58227961277589202
 20
5343219.10694062896072865
 10
695437.34900375851429999
 20
5343209.570659339427948
 10
695427.18010731611866504
 20
5343208.94327240996062756
 10
695411.74638891057111323
 20
5343210.19804626423865557
 10
695394.5559871094301343
 20
5343212.20568443089723587
 10
695371.09171603771392256
 20
5343218.22859892994165421
 10
695348.75674143468495458
 20
5343226.51010636705905199
 10
695326.17081206082366407
 20
5343238.05402582511305809
 10
695303.71036007243674248
 20
5343253.36226684506982565
 10
695277.79927998525090516
 20
5343278.70869869831949472
 10
695261.23626511101610959
 20
5343298.03221605159342289
 10
695246.93184317427221686
 20
5343320.6181454248726368
 10
695236.64269757061265409
 20
5343341.82382355909794569
 10
695229.74144137313123792
 20
5343362.65306953713297844
 10
695225.72616503993049264
 20
5343382.6039738180115819
 10
695225.85164242540486157
 20
5343404.31156149320304394
 10
695229.49048660229891539
 20
5343421.6274406798183918
 10
695234.76053678954485804
 20
5343436.93568170070648193
 10
695239.9992176303640008
 20
5343453.37321918923407793
 10
695242.63424272404517978
 20
5343465.1680934177711606
 10
695242.69436730456072837
 20
5343481.82521633245050907
  0
LWPOLYLINE
  5
251
  8
Roads
100
AcDbEntity
100
AcDbPolyline
  6
CONTINUOUS
420
     0
 90
    20
 70
   128
 43
1060.0
 10
695688.42925196443684399
 20
5343401.80201378744095564
 10
695630.54757971980143338
 20
5343400.17080777511000633
 10
695623.77180090767797083
 20
5343399.16698869131505489
 10
695619.00366026209667325
 20
5343396.65744098275899887
 10
695614.73742915818002075
 20
5343392.39120987895876169
 10
695612.72979099163785577
 20
5343387.87402400467544794
 10
695611.47501713747624308
 20
5343382.1020642751827836
 10
695610.47119805414695293
 20
5343375.57724023424088955
 10
695610.22024328343104571
 20
5343366.2919137142598629
 10
695609.4673789709340781
 20
5343355.75181333906948566
 10
695608.46355988760478795
 20
5343348.47412498574703932
 10
695608.46355988760478795
 20
5343338.93784369435161352
 10
695608.21260511677246541
 20
5343328.89965286199003458
 10
695608.71451465843711048
 20
5343319.36337157059460878
 10
695609.4673789709340781
 20
5343312.08568321634083986
 10
695609.96928851259872317
 20
5343303.80417577922344208
 10
695609.96928851259872317
 20
5343297.78126128017902374
 10
695609.4673789709340781
 20
5343290.00166338495910168
 10
695608.21260511677246541
 20
5343275.44628667645156384
 10
695603.40891041036229581
 20
5343215.89913014508783817
  0
LWPOLYLINE
  5
252
  8
Roads
100
AcDbEntity
100
AcDbPolyline
  6
CONTINUOUS
420
     0
 90
     2
 70
   128
 43
1060.0
 10
695789.33012279018294066
 20
5343436.70801870804280043
 10
695833.04476948513183743
 20
5343437.59636663645505905
  0
LWPOLYLINE
  5
253
  8
Roads
100
AcDbEntity
100
AcDbPolyline
  6
CONTINUOUS
420
     0
 90
     2
 70
   128
 43
1060.0
 10
695785.3895033523440361
 20
5343217.43583379220217466
 10
695808.29570592218078673
 20
5343236.7950775446370244
  0
LWPOLYLINE
  5
254
  8
Roads
100
AcDbEntity
100
AcDbPolyline
  6
CONTINUOUS
420
     0
 90
    13
 70
   128
 43
1060.0
 10
695912.17748029856011271
 20
5343151.58384621795266867
 10
695908.62272070709150285
 20
5343214.43735111504793167
 10
695908.25944334268569946
 20
5343223.5192852271720767
 10
695907.44206927251070738
 20
5343229.60418108198791742
 10
695904.26339233329053968
 20
5343235.96153496019542217
 10
695897.99685779598075897
 20
5343243.49954027310013771
 10
695846.43417687469627708
 20
5343298.39983198139816523
 10
695840.73526321933604777
 20
5343303.98522146046161652
 10
695834.55954802304040641
 20
5343307.61799510475248098
 10
695824.20614313532132655
 20
5343310.52421402093023062
 10
695811.03733867278788239
 20
5343311.70486545562744141
 10
695799.59410169150214642
 20
5343311.3415880911052227
 10
695792.60101242526434362
 20
5343311.15994940884411335
  0
LWPOLYLINE
  5
255
  8
Roads
100
AcDbEntity
100
AcDbPolyline
  6
CONTINUOUS
420
     0
 90
    26
 70
   128
 43
1060.0
 10
695144.64424709882587194
 20
5343479.23201702255755663
 10
695242.69436730456072837
 20
5343481.82521633245050907
 10
695316.85934441862627864
 20
5343484.93078162148594856
 10
695456.98621457512490451
 20
5343490.51452527195215225
 10
695695.67557097179815173
 20
5343499.17246486525982618
 10
695741.31078952783718705
 20
5343501.13130619842559099
 10
695750.66518166323658079
 20
5343500.49557081051170826
 10
695758.20318697625771165
 20
5343498.58836464770138264
 10
695767.28512108838185668
 20
5343494.04739759117364883
 10
695776.00377783598378301
 20
5343487.32676634844392538
 10
695781.54375764436554164
 20
5343480.42449642345309258
 10
695785.63062799477484077
 20
5343470.88846560567617416
 10
695788.26438888732809573
 20
5343460.26260269433259964
 10
695788.17356954619754106
 20
5343448.81936571281403303
 10
695789.33012279018294066
 20
5343436.70801870804280043
 10
695792.60101242526434362
 20
5343311.15994940884411335
 10
695793.62273001344874501
 20
5343266.1135562127456069
 10
695793.98600737797096372
 20
5343259.66538299340754747
 10
695796.1656715648714453
 20
5343252.94475175067782402
 10
695800.97909664420876652
 20
5343246.22412050794810057
 10
695808.29570592218078673
 20
5343236.7950775446370244
 10
695819.27919388003647327
 20
5343225.5627204030752182
 10
695827.90703128650784492
 20
5343218.02471508923918009
 10
695835.89913330518174917
 20
5343214.11948342155665159
 10
695844.52697071165312082
 20
5343211.66736121103167534
 10
695908.62272070709150285
 20
5343214.43735111504793167
  0
LWPOLYLINE
  5
256
  8
Roads
100
AcDbEntity
100
AcDbPolyline
  6
CONTINUOUS
 62
   255
 90
    13
 70
   128
 43
860.0
 10
695690.59635098103899509
 20
5343142.78532096650451422
 10
695687.58227961277589202
 20
5343219.10694062896072865
 10
695688.55472934991121292
 20
5343240.56357353553175926
 10
695692.69548306846991181
 20
5343267.16477924212813377
 10
695690.18593536026310176
 20
5343282.72397503349930048
 10
695684.16302086052019149
 20
5343303.92965316772460938
 10
695680.6496540691005066
 20
5343325.0098539162427187
 10
695680.0222671419614926
 20
5343347.97221544664353132
 10
695682.65729223564267159
 20
5343375.82819500751793385
 10
695688.42925196443684399
 20
5343401.80201378744095564
 10
695692.31905091216322035
 20
5343420.37266682833433151
 10
695692.69548306846991181
 20
5343447.97769161872565746
 10
695695.67557097179815173
 20
5343499.17246486525982618
  0
LWPOLYLINE
  5
257
  8
Roads
100
AcDbEntity
100
AcDbPolyline
  6
CONTINUOUS
 62
   255
 90
    11
 70
   128
 43
860.0
 10
695316.85934441862627864
 20
5343484.93078162148594856
 10
695318.83561323850881308
 20
5343411.96568200550973415
 10
695320.96872879052534699
 20
5343395.52814451698213816
 10
695327.11712067562621087
 20
5343376.70653670560568571
 10
695336.15149242512416095
 20
5343360.01804444566369057
 10
695350.51865305460523814
 20
5343341.07095924858003855
 10
695365.32498453301377594
 20
5343327.14296946860849857
 10
695383.26825064665172249
 20
5343314.84618569817394018
 10
695400.83508460409939289
 20
5343307.31754257343709469
 10
695417.77453163452446461
 20
5343302.67487931344658136
 10
695442.3680991749279201
 20
5343299.28698990773409605
  0
LWPOLYLINE
  5
258
  8
Roads
100
AcDbEntity
100
AcDbPolyline
  6
CONTINUOUS
 62
   255
 90
     3
 70
   128
 43
860.0
 10
695456.98621457512490451
 20
5343490.51452527195215225
 10
695442.3680991749279201
 20
5343299.28698990773409605
 10
695437.34900375851429999
 20
5343209.570659339427948
  0
LWPOLYLINE
  5
259
  8
Roads
100
AcDbEntity
100
AcDbPolyline
  6
CONTINUOUS
 62
   255
 90
    21
 70
   128
 43
860.0
 10
695687.58227961277589202
 20
5343219.10694062896072865
 10
695437.34900375851429999
 20
5343209.570659339427948
 10
695427.18010731611866504
 20
5343208.94327240996062756
 10
695411.74638891057111323
 20
5343210.19804626423865557
 10
695394.5559871094301343
 20
5343212.20568443089723587
 10
695371.09171603771392256
 20
5343218.22859892994165421
 10
695348.75674143468495458
 20
5343226.51010636705905199
 10
695326.17081206082366407
 20
5343238.05402582511305809
 10
695303.71036007243674248
 20
5343253.36226684506982565
 10
695277.79927998525090516
 20
5343278.70869869831949472
 10
695261.23626511101610959
 20
5343298.03221605159342289
 10
695246.93184317427221686
 20
5343320.6181454248726368
 10
695236.64269757061265409
 20
5343341.82382355909794569
 10
695229.74144137313123792
 20
5343362.65306953713297844
 10
695225.72616503993049264
 20
5343382.6039738180115819
 10
695225.85164242540486157
 20
5343404.31156149320304394
 10
695229.49048660229891539
 20
5343421.6274406798183918
 10
695234.76053678954485804
 20
5343436.93568170070648193
 10
695239.9992176303640008
 20
5343453.37321918923407793
 10
695242.63424272404517978
 20
5343465.1680934177711606
 10
695242.69436730456072837
 20
5343481.82521633245050907
  0
LWPOLYLINE
  5
25a
  8
Roads
100
AcDbEntity
100
AcDbPolyline
  6
CONTINUOUS
 62
   255
 90
    20
 70
   128
 43
860.0
 10
695688.42925196443684399
 20
5343401.80201378744095564
 10
695630.54757971980143338
 20
5343400.17080777511000633
 10
695623.77180090767797083
 20
5343399.16698869131505489
 10
695619.00366026209667325
 20
5343396.65744098275899887
 10
695614.73742915818002075
 20
5343392.39120987895876169
 10
695612.72979099163785577
 20
5343387.87402400467544794
 10
695611.47501713747624308
 20
5343382.1020642751827836
 10
695610.47119805414695293
 20
5343375.57724023424088955
 10
695610.22024328343104571
 20
5343366.2919137142598629
 10
695609.4673789709340781
 20
5343355.75181333906948566
 10
695608.46355988760478795
 20
5343348.47412498574703932
 10
695608.46355988760478795
 20
5343338.93784369435161352
 10
695608.21260511677246541
 20
5343328.89965286199003458
 10
695608.71451465843711048
 20
5343319.36337157059460878
 10
695609.4673789709340781
 20
5343312.08568321634083986
 10
695609.96928851259872317
 20
5343303.80417577922344208
 10
695609.96928851259872317
 20
5343297.78126128017902374
 10
695609.4673789709340781
 20
5343290.00166338495910168
 10
695608.21260511677246541
 20
5343275.44628667645156384
 10
695603.40891041036229581
 20
5343215.89913014508783817
  0
LWPOLYLINE
  5
25b
  8
Roads
100
AcDbEntity
100
AcDbPolyline
  6
CONTINUOUS
 62
   255
 90
     2
 70
   128
 43
860.0
 10
695789.33012279018294066
 20
5343436.70801870804280043
 10
695833.04476948513183743
 20
5343437.59636663645505905
  0
LWPOLYLINE
  5
25c
  8
Roads
100
AcDbEntity
100
AcDbPolyline
  6
CONTINUOUS
 62
   255
 90
     2
 70
   128
 43
860.0
 10
695785.3895033523440361
 20
5343217.43583379220217466
 10
695808.29570592218078673
 20
5343236.7950775446370244
  0
LWPOLYLINE
  5
25d
  8
Roads
100
AcDbEntity
100
AcDbPolyline
  6
CONTINUOUS
 62
   255
 90
    13
 70
   128
 43
860.0
 10
695912.17748029856011271
 20
5343151.58384621795266867
 10
695908.62272070709150285
 20
5343214.43735111504793167
 10
695908.25944334268569946
 20
5343223.5192852271720767
 10
695907.44206927251070738
 20
5343229.60418108198791742
 10
695904.26339233329053968
 20
5343235.96153496019542217
 10
695897.99685779598075897
 20
5343243.49954027310013771
 10
695846.43417687469627708
 20
5343298.39983198139816523
 10
695840.73526321933604777
 20
5343303.98522146046161652
 10
695834.55954802304040641
 20
5343307.61799510475248098
 10
695824.20614313532132655
 20
5343310.52421402093023062
 10
695811.03733867278788239
 20
5343311.70486545562744141
 10
695799.59410169150214642
 20
5343311.3415880911052227
 10
695792.60101242526434362
 20
5343311.15994940884411335
  0
LWPOLYLINE
  5
25e
  8
Roads
100
AcDbEntity
100
AcDbPolyline
  6
CONTINUOUS
 62
   255
 90
    26
 70
   128
 43
860.0
 10
695144.64424709882587194
 20
5343479.23201702255755663
 10
695242.69436730456072837
 20
5343481.82521633245050907
 10
695316.85934441862627864
 20
5343484.93078162148594856
 10
695456.98621457512490451
 20
5343490.51452527195215225
 10
695695.67557097179815173
 20
5343499.17246486525982618
 10
695741.31078952783718705
 20
5343501.13130619842559099
 10
695750.66518166323658079
 20
5343500.49557081051170826
 10
695758.20318697625771165
 20
5343498.58836464770138264
 10
695767.28512108838185668
 20
5343494.04739759117364883
 10
695776.00377783598378301
 20
5343487.32676634844392538
 10
695781.54375764436554164
 20
5343480.42449642345309258
 10
695785.63062799477484077
 20
5343470.88846560567617416
 10
695788.26438888732809573
 20
5343460.26260269433259964
 10
695788.17356954619754106
 20
5343448.81936571281403303
 10
695789.33012279018294066
 20
5343436.70801870804280043
 10
695792.60101242526434362
 20
5343311.15994940884411335
 10
695793.62273001344874501
 20
5343266.1135562127456069
 10
695793.98600737797096372
 20
5343259.66538299340754747
 10
695796.1656715648714453
 20
5343252.94475175067782402
 10
695800.97909664420876652
 20
5343246.22412050794810057
 10
695808.29570592218078673
 20
5343236.7950775446370244
 10
695819.27919388003647327
 20
5343225.5627204030752182
 10
695827.90703128650784492
 20
5343218.02471508923918009
 10
695835.89913330518174917
 20
5343214.11948342155665159
 10
695844.52697071165312082
 20
5343211.66736121103167534
 10
695908.62272070709150285
 20
5343214.43735111504793167
  0
LWPOLYLINE
  5
25f
  8
Highways
100
AcDbEntity
100
AcDbPolyline
  6
CONTINUOUS
420
     0
 90
    18
 70
   128
 43
2060.0
 10
695144.64424709882587194
 20
5343479.23201702255755663
 10
695145.09648846474010497
 20
5343425.45450093410909176
 10
695147.35508140211459249
 20
5343391.8265616437420249
 10
695151.62131250614766032
 20
5343364.72344639524817467
 10
695161.094855104573071
 20
5343328.83691416773945093
 10
695177.1559604371432215
 20
5343291.94656285736709833
 10
695198.9890254985075444
 20
5343255.80907585937529802
 10
695222.82972872641403228
 20
5343226.94927721470594406
 10
695256.70862278714776039
 20
5343195.57993086241185665
 10
695287.82701436895877123
 20
5343173.99782057199627161
 10
695338.51987807464320213
 20
5343150.40807211492210627
 10
695376.91595801012590528
 20
5343138.86415265686810017
 10
695402.76429940469097346
 20
5343135.09983109496533871
 10
695426.85595740342978388
 20
5343133.59410247020423412
 10
695474.28640908852685243
 20
5343134.09601201117038727
 10
695690.59635098103899509
 20
5343142.78532096650451422
 10
695912.17748029856011271
 20
5343151.58384621795266867
 10
698318.64960736245848238
 20
5343246.77470410987734795
  0
LWPOLYLINE
  5
260
  8
Highways
100
AcDbEntity
100
AcDbPolyline
  6
CONTINUOUS
420
16736273
 90
    18
 70
   128
 43
1460.0
 10
695144.64424709882587194
 20
5343479.23201702255755663
 10
695145.09648846474010497
 20
5343425.45450093410909176
 10
695147.35508140211459249
 20
5343391.8265616437420249
 10
695151.62131250614766032
 20
5343364.72344639524817467
 10
695161.094855104573071
 20
5343328.83691416773945093
 10
695177.1559604371432215
 20
5343291.94656285736709833
 10
695198.9890254985075444
 20
5343255.80907585937529802
 10
695222.82972872641403228
 20
5343226.94927721470594406
 10
695256.70862278714776039
 20
5343195.57993086241185665
 10
695287.82701436895877123
 20
5343173.99782057199627161
 10
695338.51987807464320213
 20
5343150.40807211492210627
 10
695376.91595801012590528
 20
5343138.86415265686810017
 10
695402.76429940469097346
 20
5343135.09983109496533871
 10
695426.85595740342978388
 20
5343133.59410247020423412
 10
695474.28640908852685243
 20
5343134.09601201117038727
 10
695690.59635098103899509
 20
5343142.78532096650451422
 10
695912.17748029856011271
 20
5343151.58384621795266867
 10
698318.64960736245848238
 20
5343246.77470410987734795
  0
MTEXT
  5
261
100
AcDbEntity
100
AcDbMText
  8
Cottage Drive
 62
   255
 10
695967.40854273142758757
 20
5341108.22666879743337631
  1
\fOpen Sans|i0|b0;\H5604.73;191
 50
0.0
 41
10168.307993338421511
 71
     7
  7
STANDARD
  0
MTEXT
  5
262
100
AcDbEntity
100
AcDbMText
  8
Jackson Peak Drive
 62
   255
 10
686018.73633301944937557
 20
5341383.69533222727477551
  1
\fOpen Sans|i0|b0;\H5604.73;227
 50
0.0
 41
10168.307993338421511
 71
     7
  7
STANDARD
  0
ENDSEC
0
SECTION
2
OBJECTS
0
DICTIONARY
5
C
330
0
100
AcDbDictionary
281
   1
3
ACAD_GROUP
350
D
3
ACAD_LAYOUT
350
1A
3
ACAD_MLEADERSTYLE
350
43
3
ACAD_MLINESTYLE
350
17
3
ACAD_PLOTSETTINGS
350
19
3
ACAD_PLOTSTYLENAME
350
E
3
ACAD_TABLESTYLE
350
42
3
ACAD_VISUALSTYLE
350
2A
0
DICTIONARY
5
D
102
{ACAD_REACTORS
330
C
102
}
330
C
100
AcDbDictionary
281
   1
0
DICTIONARY
5
1A
102
{ACAD_REACTORS
330
C
102
}
330
C
100
AcDbDictionary
281
   1
3
Layout1
350
1E
3
Layout2
350
26
3
Model
350
22
0
DICTIONARY
5
43
102
{ACAD_REACTORS
330
C
102
}
330
C
100
AcDbDictionary
281
   1
0
DICTIONARY
5
17
102
{ACAD_REACTORS
330
C
102
}
330
C
100
AcDbDictionary
281
   1
3
Standard
350
18
0
DICTIONARY
5
19
102
{ACAD_REACTORS
330
C
102
}
330
C
100
AcDbDictionary
281
   1
0
ACDBDICTIONARYWDFLT
5
E
102
{ACAD_REACTORS
330
C
102
}
330
C
100
AcDbDictionary
281
   1
3
Normal
350
F
100
AcDbDictionaryWithDefault
340
F
0
DICTIONARY
5
42
102
{ACAD_REACTORS
330
C
102
}
330
C
100
AcDbDictionary
281
   1
0
DICTIONARY
5
2A
102
{ACAD_REACTORS
330
C
102
}
330
C
100
AcDbDictionary
281
   1
3
2dWireframe
350
2F
3
3D Hidden
350
31
3
3dWireframe
350
30
3
Basic
350
32
3
Brighten
350
36
3
ColorChange
350
3A
3
Conceptual
350
34
3
Dim
350
35
3
Facepattern
350
39
3
Flat
350
2B
3
FlatWithEdges
350
2C
3
Gouraud
350
2D
3
GouraudWithEdges
350
2E
3
Linepattern
350
38
3
Realistic
350
33
3
Thicken
350
37
0
LAYOUT
5
1E
102
{ACAD_REACTORS
330
1A
102
}
330
1A
100
AcDbPlotSettings
1

2
none_device
4

6

40
0.0
41
0.0
42
0.0
43
0.0
44
0.0
45
0.0
46
0.0
47
0.0
48
0.0
49
0.0
140
0.0
141
0.0
142
1.0
143
1.0
70
 688
72
   0
73
   0
74
   5
7

75
  16
76
   0
77
   2
78
 300
147
1.0
148
0.0
149
0.0
100
AcDbLayout
1
Layout1
70
   1
71
   1
10
0.0
20
0.0
11
12.0
21
9.0
12
0.0
22
0.0
32
0.0
14
1.000000000000000E+20
24
1.000000000000000E+20
34
1.000000000000000E+20
15
-1.000000000000000E+20
25
-1.000000000000000E+20
35
-1.000000000000000E+20
146
0.0
13
0.0
23
0.0
33
0.0
16
1.0
26
0.0
36
0.0
17
0.0
27
1.0
37
0.0
76
   0
330
1B
0
LAYOUT
5
26
102
{ACAD_REACTORS
330
1A
102
}
330
1A
100
AcDbPlotSettings
1

2
none_device
4

6

40
0.0
41
0.0
42
0.0
43
0.0
44
0.0
45
0.0
46
0.0
47
0.0
48
0.0
49
0.0
140
0.0
141
0.0
142
1.0
143
1.0
70
 688
72
   0
73
   0
74
   5
7

75
  16
76
   0
77
   2
78
 300
147
1.0
148
0.0
149
0.0
100
AcDbLayout
1
Layout2
70
   1
71
   2
10
0.0
20
0.0
11
0.0
21
0.0
12
0.0
22
0.0
32
0.0
14
0.0
24
0.0
34
0.0
15
0.0
25
0.0
35
0.0
146
0.0
13
0.0
23
0.0
33
0.0
16
1.0
26
0.0
36
0.0
17
0.0
27
1.0
37
0.0
76
   0
330
23
0
LAYOUT
5
22
102
{ACAD_REACTORS
330
1A
102
}
330
1A
100
AcDbPlotSettings
1

2
none_device
4

6

40
0.0
41
0.0
42
0.0
43
0.0
44
0.0
45
0.0
46
0.0
47
0.0
48
0.0
49
0.0
140
0.0
141
0.0
142
1.0
143
1.0
70
1712
72
   0
73
   0
74
   0
7

75
   0
76
   0
77
   2
78
 300
147
1.0
148
0.0
149
0.0
100
AcDbLayout
1
Model
70
   1
71
   0
10
0.0
20
0.0
11
12.0
21
9.0
12
0.0
22
0.0
32
0.0
14
30.0
24
49.75
34
0.0
15
130.5
25
163.1318914119703
35
0.0
146
0.0
13
0.0
23
0.0
33
0.0
16
1.0
26
0.0
36
0.0
17
0.0
27
1.0
37
0.0
76
   0
330
1F
331
29
0
MLINESTYLE
5
18
102
{ACAD_REACTORS
330
17
102
}
330
17
100
AcDbMlineStyle
2
Standard
70
   0
3

62
 256
51
90.0
52
90.0
71
   2
49
0.5
62
 256
6
BYLAYER
49
-0.5
62
 256
6
BYLAYER
0
ACDBPLACEHOLDER
5
F
102
{ACAD_REACTORS
330
E
102
}
330
E
0
VISUALSTYLE
5
2F
102
{ACAD_REACTORS
330
2A
102
}
330
2A
100
AcDbVisualStyle
2
2dWireframe
70
   4
71
   0
72
   2
73
   0
90
      0
40
-0.6
41
-30.0
62
   5
63
   7
421
16777215
74
   1
91
      4
64
   7
65
 257
75
   1
175
   1
42
1.0
92
      0
66
 257
43
1.0
76
   1
77
   6
78
   2
67
   7
79
   5
170
   0
171
   0
290
   0
174
   0
93
      1
44
0.0
173
   0
291
   0
45
0.0
1001
ACAD
1000
AcDbSavedByObjectVersion
1070
   0
0
VISUALSTYLE
5
31
102
{ACAD_REACTORS
330
2A
102
}
330
2A
100
AcDbVisualStyle
2
3D Hidden
70
   6
71
   1
72
   2
73
   2
90
      0
40
-0.6
41
-30.0
62
   5
63
   7
421
16777215
74
   2
91
      2
64
   7
65
 257
75
   2
175
   1
42
40.0
92
      0
66
 257
43
1.0
76
   1
77
   6
78
   2
67
   7
79
   3
170
   0
171
   0
290
   0
174
   0
93
      1
44
0.0
173
   0
291
   0
45
0.0
1001
ACAD
1000
AcDbSavedByObjectVersion
1070
   0
0
VISUALSTYLE
5
30
102
{ACAD_REACTORS
330
2A
102
}
330
2A
100
AcDbVisualStyle
2
3dWireframe
70
   5
71
   0
72
   2
73
   0
90
      0
40
-0.6
41
-30.0
62
   5
63
   7
421
16777215
74
   1
91
      4
64
   7
65
 257
75
   1
175
   1
42
1.0
92
      0
66
 257
43
1.0
76
   1
77
   6
78
   2
67
   7
79
   5
170
   0
171
   0
290
   0
174
   0
93
      1
44
0.0
173
   0
291
   0
45
0.0
1001
ACAD
1000
AcDbSavedByObjectVersion
1070
   0
0
VISUALSTYLE
5
32
102
{ACAD_REACTORS
330
2A
102
}
330
2A
100
AcDbVisualStyle
2
Basic
70
   7
71
   1
72
   0
73
   1
90
      0
40
-0.6
41
-30.0
62
   5
63
   7
421
16777215
74
   0
91
      4
64
   7
65
 257
75
   1
175
   1
42
1.0
92
      8
66
   7
43
1.0
76
   1
77
   6
78
   2
67
   7
79
   5
170
   0
171
   0
290
   0
174
   0
93
      1
44
0.0
173
   0
291
   1
45
0.0
1001
ACAD
1000
AcDbSavedByObjectVersion
1070
   0
0
VISUALSTYLE
5
36
102
{ACAD_REACTORS
330
2A
102
}
330
2A
100
AcDbVisualStyle
2
Brighten
70
  12
71
   2
72
   2
73
   0
90
      0
40
-0.6
41
-30.0
62
   5
63
   7
421
16777215
74
   1
91
      4
64
   7
65
 257
75
   1
175
   1
42
1.0
92
      8
66
   7
43
1.0
76
   1
77
   6
78
   2
67
   7
79
   5
170
   0
171
   0
290
   0
174
   0
93
      1
44
50.0
173
   0
291
   1
45
0.0
1001
ACAD
1000
AcDbSavedByObjectVersion
1070
   0
0
VISUALSTYLE
5
3A
102
{ACAD_REACTORS
330
2A
102
}
330
2A
100
AcDbVisualStyle
2
ColorChange
70
  16
71
   2
72
   2
73
   3
90
      0
40
-0.6
41
-30.0
62
   5
63
   8
421
8421504
74
   1
91
      4
64
   7
65
 257
75
   1
175
   1
42
1.0
92
      8
66
   8
424
8421504
43
1.0
76
   1
77
   6
78
   2
67
   7
79
   5
170
   0
171
   0
290
   0
174
   0
93
      1
44
0.0
173
   0
291
   1
45
0.0
1001
ACAD
1000
AcDbSavedByObjectVersion
1070
   0
0
VISUALSTYLE
5
34
102
{ACAD_REACTORS
330
2A
102
}
330
2A
100
AcDbVisualStyle
2
Conceptual
70
   9
71
   3
72
   2
73
   0
90
      0
40
-0.6
41
-30.0
62
   5
63
   7
421
16777215
74
   2
91
      2
64
   7
65
 257
75
   1
175
   1
42
40.0
92
      8
66
   7
43
1.0
76
   1
77
   6
78
   2
67
   7
79
   3
170
   0
171
   0
290
   0
174
   0
93
      1
44
0.0
173
   0
291
   0
45
0.0
1001
ACAD
1000
AcDbSavedByObjectVersion
1070
   0
0
VISUALSTYLE
5
35
102
{ACAD_REACTORS
330
2A
102
}
330
2A
100
AcDbVisualStyle
2
Dim
70
  11
71
   2
72
   2
73
   0
90
      0
40
-0.6
41
-30.0
62
   5
63
   7
421
16777215
74
   1
91
      4
64
   7
65
 257
75
   1
175
   1
42
1.0
92
      8
66
   7
43
1.0
76
   1
77
   6
78
   2
67
   7
79
   5
170
   0
171
   0
290
   0
174
   0
93
      1
44
-50.0
173
   0
291
   1
45
0.0
1001
ACAD
1000
AcDbSavedByObjectVersion
1070
   0
0
VISUALSTYLE
5
39
102
{ACAD_REACTORS
330
2A
102
}
330
2A
100
AcDbVisualStyle
2
Facepattern
70
  15
71
   2
72
   2
73
   0
90
      0
40
-0.6
41
-30.0
62
   5
63
   7
421
16777215
74
   1
91
      4
64
   7
65
 257
75
   1
175
   1
42
1.0
92
      8
66
   7
43
1.0
76
   1
77
   6
78
   2
67
   7
79
   5
170
   0
171
   0
290
   0
174
   0
93
      1
44
0.0
173
   0
291
   1
45
0.0
1001
ACAD
1000
AcDbSavedByObjectVersion
1070
   0
0
VISUALSTYLE
5
2B
102
{ACAD_REACTORS
330
2A
102
}
330
2A
100
AcDbVisualStyle
2
Flat
70
   0
71
   2
72
   1
73
   1
90
      2
40
-0.6
41
30.0
62
   5
63
   7
421
16777215
74
   0
91
      4
64
   7
65
 257
75
   1
175
   1
42
1.0
92
      8
66
   7
43
1.0
76
   1
77
   6
78
   2
67
   7
79
   5
170
   0
171
   0
290
   0
174
   0
93
     13
44
0.0
173
   0
291
   1
45
0.0
1001
ACAD
1000
AcDbSavedByObjectVersion
1070
   0
0
VISUALSTYLE
5
2C
102
{ACAD_REACTORS
330
2A
102
}
330
2A
100
AcDbVisualStyle
2
FlatWithEdges
70
   1
71
   2
72
   1
73
   1
90
      2
40
-0.6
41
30.0
62
   5
63
   7
421
16777215
74
   1
91
      4
64
   7
65
 257
75
   1
175
   1
42
1.0
92
      0
66
 257
43
1.0
76
   1
77
   6
78
   2
67
   7
79
   5
170
   0
171
   0
290
   0
174
   0
93
     13
44
0.0
173
   0
291
   1
45
0.0
1001
ACAD
1000
AcDbSavedByObjectVersion
1070
   0
0
VISUALSTYLE
5
2D
102
{ACAD_REACTORS
330
2A
102
}
330
2A
100
AcDbVisualStyle
2
Gouraud
70
   2
71
   2
72
   2
73
   1
90
      2
40
-0.6
41
30.0
62
   5
63
   7
421
16777215
74
   0
91
      4
64
   7
65
 257
75
   1
175
   1
42
1.0
92
      0
66
   7
43
1.0
76
   1
77
   6
78
   2
67
   7
79
   5
170
   0
171
   0
290
   0
174
   0
93
     13
44
0.0
173
   0
291
   1
45
0.0
1001
ACAD
1000
AcDbSavedByObjectVersion
1070
   0
0
VISUALSTYLE
5
2E
102
{ACAD_REACTORS
330
2A
102
}
330
2A
100
AcDbVisualStyle
2
GouraudWithEdges
70
   3
71
   2
72
   2
73
   1
90
      2
40
-0.6
41
30.0
62
   5
63
   7
421
16777215
74
   1
91
      4
64
   7
65
 257
75
   1
175
   1
42
1.0
92
      0
66
 257
43
1.0
76
   1
77
   6
78
   2
67
   7
79
   5
170
   0
171
   0
290
   0
174
   0
93
     13
44
0.0
173
   0
291
   1
45
0.0
1001
ACAD
1000
AcDbSavedByObjectVersion
1070
   0
0
VISUALSTYLE
5
38
102
{ACAD_REACTORS
330
2A
102
}
330
2A
100
AcDbVisualStyle
2
Linepattern
70
  14
71
   2
72
   2
73
   0
90
      0
40
-0.6
41
-30.0
62
   5
63
   7
421
16777215
74
   1
91
      4
64
   7
65
 257
75
   7
175
   7
42
1.0
92
      8
66
   7
43
1.0
76
   1
77
   6
78
   2
67
   7
79
   5
170
   0
171
   0
290
   0
174
   0
93
      1
44
0.0
173
   0
291
   1
45
0.0
1001
ACAD
1000
AcDbSavedByObjectVersion
1070
   0
0
VISUALSTYLE
5
33
102
{ACAD_REACTORS
330
2A
102
}
330
2A
100
AcDbVisualStyle
2
Realistic
70
   8
71
   2
72
   2
73
   0
90
      0
40
-0.6
41
-30.0
62
   5
63
   7
421
16777215
74
   1
91
      0
64
   7
65
 257
75
   1
175
   1
42
1.0
92
      8
66
   8
424
7895160
43
1.0
76
   1
77
   6
78
   2
67
   7
79
   5
170
   0
171
   0
290
   0
174
   0
93
     13
44
0.0
173
   0
291
   0
45
0.0
1001
ACAD
1000
AcDbSavedByObjectVersion
1070
   0
0
VISUALSTYLE
5
37
102
{ACAD_REACTORS
330
2A
102
}
330
2A
100
AcDbVisualStyle
2
Thicken
70
  13
71
   2
72
   2
73
   0
90
      0
40
-0.6
41
-30.0
62
   5
63
   7
421
16777215
74
   1
91
      4
64
   7
65
 257
75
   1
175
   1
42
1.0
92
     12
66
   7
43
1.0
76
   1
77
   6
78
   2
67
   7
79
   5
170
   0
171
   0
290
   0
174
   0
93
      1
44
0.0
173
   0
291
   1
45
0.0
1001
ACAD
1000
AcDbSavedByObjectVersion
1070
   0
0
ENDSEC
  0
EOF
